<svg width="35" height="35" viewBox="0 0 35 35" fill="none" xmlns="http://www.w3.org/2000/svg">
<path d="M18.9584 26.25C18.9584 24.6392 20.2642 23.3333 21.875 23.3333C23.4858 23.3333 24.7917 24.6392 24.7917 26.25M18.9584 26.25C18.9584 27.8608 20.2642 29.1667 21.875 29.1667C23.4858 29.1667 24.7917 27.8608 24.7917 26.25M18.9584 26.25L5.83335 26.25M24.7917 26.25L29.1667 26.25M18.9584 8.75001C18.9584 7.13918 20.2642 5.83334 21.875 5.83334C23.4859 5.83334 24.7917 7.13918 24.7917 8.75001M18.9584 8.75001C18.9584 10.3608 20.2642 11.6667 21.875 11.6667C23.4859 11.6667 24.7917 10.3608 24.7917 8.75001M18.9584 8.75001L5.83335 8.75001M24.7917 8.75001L29.1667 8.75001M10.2084 17.5C10.2084 15.8892 11.5142 14.5833 13.125 14.5833C14.7359 14.5833 16.0417 15.8892 16.0417 17.5M10.2084 17.5C10.2084 19.1108 11.5142 20.4167 13.125 20.4167C14.7359 20.4167 16.0417 19.1108 16.0417 17.5M10.2084 17.5L5.83335 17.5M16.0417 17.5L29.1667 17.5" stroke="#CB9C9C" stroke-width="1.5" stroke-linecap="round" stroke-linejoin="round"/>
</svg>
