<svg width="140" height="36" viewBox="0 0 140 36" fill="none" xmlns="http://www.w3.org/2000/svg">
<path d="M18.3198 5.51957V3.55772C19.1607 3.26043 19.6651 2.40059 19.5142 1.52156C19.3634 0.642532 18.6013 0 17.7094 0C16.8175 0 16.0554 0.642532 15.9045 1.52156C15.7537 2.40059 16.2581 3.26043 17.099 3.55772V5.51957C17.3004 5.50736 17.508 5.50126 17.7094 5.50126C17.9108 5.50126 18.1184 5.50736 18.3198 5.51957Z" fill="white"/>
<path d="M9.51772 8.65705L8.13881 7.27142C8.25582 7.02902 8.31714 6.76353 8.31827 6.49437C8.31827 5.48301 7.4984 4.66315 6.48705 4.66315C5.47569 4.66315 4.65582 5.48301 4.65582 6.49437C4.65582 7.50573 5.47569 8.3256 6.48705 8.3256C6.76042 8.32521 7.03012 8.26259 7.27569 8.14247L8.65705 9.51772C8.92848 9.21577 9.21577 8.92848 9.51772 8.65705Z" fill="white"/>
<path d="M5.51957 17.099H3.55772C3.26043 16.2581 2.40059 15.7537 1.52156 15.9045C0.642532 16.0554 0 16.8175 0 17.7094C0 18.6013 0.642532 19.3634 1.52156 19.5142C2.40059 19.6651 3.26043 19.1607 3.55772 18.3198H5.51957C5.50736 18.1184 5.50126 17.9108 5.50126 17.7094C5.50126 17.508 5.50736 17.3004 5.51957 17.099Z" fill="white"/>
<path d="M8.65705 25.9011L7.2647 27.2885C6.44965 26.8989 5.47245 27.154 4.9518 27.8923C4.43116 28.6305 4.51891 29.6367 5.1595 30.2737C5.80008 30.9106 6.80669 30.9927 7.542 30.4679C8.2773 29.9431 8.52688 28.9645 8.1327 28.1516L9.51772 26.7617C9.21577 26.4903 8.92847 26.203 8.65705 25.9011Z" fill="white"/>
<path d="M17.099 29.8993V31.8611C16.2581 32.1584 15.7537 33.0183 15.9045 33.8973C16.0554 34.7763 16.8175 35.4189 17.7094 35.4189C18.6013 35.4189 19.3634 34.7763 19.5142 33.8973C19.6651 33.0183 19.1607 32.1584 18.3198 31.8611V29.8993C18.1184 29.9115 17.9108 29.9176 17.7094 29.9176C17.508 29.9176 17.3004 29.9115 17.099 29.8993Z" fill="white"/>
<path d="M25.9011 26.7617L27.2861 28.1516C27.1664 28.3974 27.1038 28.667 27.103 28.9403C27.0954 29.7648 27.6349 30.4946 28.4253 30.7292C29.2158 30.9638 30.0661 30.6464 30.5095 29.9512C30.9529 29.2561 30.8822 28.3512 30.3362 27.7334C29.7902 27.1155 28.901 26.934 28.1565 27.2885L26.7617 25.9011C26.4903 26.203 26.203 26.4903 25.9011 26.7617Z" fill="white"/>
<path d="M33.5801 15.8782C32.8068 15.8814 32.1189 16.37 31.8611 17.099H29.8993C29.9115 17.3004 29.9176 17.508 29.9176 17.7094C29.9176 17.9108 29.9115 18.1184 29.8993 18.3198H31.8611C32.1731 19.1955 33.0925 19.6977 33.9978 19.4869C34.9032 19.2761 35.5063 18.4195 35.3994 17.4961C35.2925 16.5727 34.5096 15.8765 33.5801 15.8782Z" fill="white"/>
<path d="M26.7617 9.51772L28.1431 8.14125C28.3887 8.26137 28.6584 8.32399 28.9317 8.32437C29.9431 8.32437 30.763 7.50451 30.763 6.49315C30.763 5.48179 29.9431 4.66193 28.9317 4.66193C27.9204 4.66193 27.1005 5.48179 27.1005 6.49315C27.1016 6.76231 27.163 7.0278 27.28 7.2702L25.9011 8.65705C26.203 8.92848 26.4903 9.21577 26.7617 9.51772Z" fill="white"/>
<path fill-rule="evenodd" clip-rule="evenodd" d="M27.476 17.099H29.8993C29.7634 14.2848 28.6544 11.605 26.7618 9.51777L25.0465 11.233L24.1859 10.3723L25.9011 8.65709C23.8139 6.76448 21.1341 5.65547 18.3198 5.51959V7.94291H17.099V5.51959C14.2848 5.65547 11.605 6.76448 9.51777 8.65709L11.233 10.3723L10.3723 11.233L8.65709 9.51777C6.76448 11.605 5.65547 14.2848 5.51959 17.099H7.94291V18.3198H5.51959C5.65547 21.1341 6.76448 23.8139 8.65709 25.9011L10.3723 24.1859L11.233 25.0465L9.51777 26.7618C11.605 28.6544 14.2848 29.7634 17.099 29.8993V27.476H18.3198V29.8993C21.1341 29.7634 23.8139 28.6544 25.9011 26.7618L24.1859 25.0465L25.0465 24.1859L26.7618 25.9011C28.6544 23.8139 29.7634 21.1341 29.8993 18.3198H27.476V17.099ZM22.3851 13.6001C22.8128 13.3532 23.347 13.3882 23.7387 13.6888C24.1305 13.9894 24.3026 14.4964 24.1748 14.9733C24.047 15.4503 23.6445 15.8033 23.1549 15.8678C22.6654 15.9322 22.1852 15.6954 21.9383 15.2678C21.6012 14.6839 21.8013 13.9373 22.3851 13.6001ZM20.9209 11.2129C20.4313 11.1485 19.9511 11.3853 19.7042 11.8129C19.3671 12.3968 19.5672 13.1434 20.1511 13.4805C20.5787 13.7274 21.1129 13.6924 21.5047 13.3918C21.8964 13.0913 22.0685 12.5843 21.9407 12.1073C21.8129 11.6304 21.4104 11.2774 20.9209 11.2129ZM11.3661 14.047C11.6129 13.6193 12.0931 13.3825 12.5827 13.447C13.0722 13.5114 13.4747 13.8645 13.6025 14.3414C13.7303 14.8184 13.5582 15.3253 13.1665 15.6259C12.7747 15.9265 12.2405 15.9615 11.8129 15.7146C11.229 15.3775 11.029 14.6309 11.3661 14.047ZM11.6053 16.4886C10.9311 16.4886 10.3845 17.0352 10.3845 17.7094C10.3845 18.3837 10.9311 18.9302 11.6053 18.9302C12.2796 18.9302 12.8261 18.3837 12.8261 17.7094C12.8261 17.0352 12.2796 16.4886 11.6053 16.4886ZM13.0337 21.8187C12.6061 22.0656 12.0718 22.0306 11.6801 21.73C11.2883 21.4294 11.1162 20.9224 11.244 20.4455C11.3718 19.9685 11.7743 19.6155 12.2639 19.5511C12.7534 19.4866 13.2336 19.7234 13.4805 20.1511C13.8176 20.7349 13.6176 21.4816 13.0337 21.8187ZM14.498 24.2059C14.9875 24.2704 15.4677 24.0336 15.7146 23.606C16.0517 23.0221 15.8517 22.2755 15.2678 21.9383C14.8402 21.6914 14.3059 21.7264 13.9142 22.027C13.5224 22.3276 13.3503 22.8346 13.4781 23.3115C13.6059 23.7885 14.0084 24.1415 14.498 24.2059ZM15.2678 13.4805C14.8402 13.7274 14.3059 13.6924 13.9142 13.3918C13.5224 13.0913 13.3503 12.5843 13.4781 12.1073C13.6059 11.6304 14.0084 11.2774 14.498 11.2129C14.9875 11.1485 15.4677 11.3853 15.7146 11.8129C16.0517 12.3968 15.8517 13.1434 15.2678 13.4805ZM16.4886 23.8135C16.4886 24.4877 17.0352 25.0343 17.7094 25.0343C18.3837 25.0343 18.9302 24.4877 18.9302 23.8135C18.9302 23.1393 18.3837 22.5927 17.7094 22.5927C17.0352 22.5927 16.4886 23.1393 16.4886 23.8135ZM17.7094 12.8261C17.0352 12.8261 16.4886 12.2796 16.4886 11.6053C16.4886 10.9311 17.0352 10.3845 17.7094 10.3845C18.3837 10.3845 18.9302 10.9311 18.9302 11.6053C18.9302 12.2796 18.3837 12.8261 17.7094 12.8261ZM20.0183 23.9641C20.41 24.2647 20.9443 24.2997 21.3719 24.0528C21.9557 23.7156 22.1558 22.969 21.8187 22.3851C21.5718 21.9575 21.0916 21.7207 20.6021 21.7852C20.1125 21.8496 19.71 22.2026 19.5822 22.6796C19.4544 23.1565 19.6265 23.6635 20.0183 23.9641ZM24.0528 21.3719C23.8059 21.7995 23.3257 22.0363 22.8362 21.9718C22.3466 21.9074 21.9441 21.5544 21.8163 21.0774C21.6885 20.6005 21.8606 20.0935 22.2523 19.7929C22.6441 19.4923 23.1783 19.4573 23.606 19.7042C24.1898 20.0414 24.3899 20.788 24.0528 21.3719ZM22.5927 17.7094C22.5927 18.3837 23.1393 18.9302 23.8135 18.9302C24.4877 18.9302 25.0343 18.3837 25.0343 17.7094C25.0343 17.0352 24.4877 16.4886 23.8135 16.4886C23.1393 16.4886 22.5927 17.0352 22.5927 17.7094Z" fill="white"/>
<path d="M14.5499 5.91691C15.2011 5.74224 15.5874 5.07277 15.4128 4.42158C15.2382 3.77039 14.5687 3.38403 13.9175 3.5586C13.2663 3.73317 12.8799 4.40257 13.0544 5.0538C13.1383 5.36659 13.3429 5.63326 13.6234 5.79513C13.9039 5.95701 14.2372 6.00081 14.5499 5.91691Z" fill="white"/>
<path d="M11.6053 7.13714C12.1893 6.80018 12.3896 6.05363 12.0526 5.46964C11.7157 4.88565 10.9692 4.68535 10.3852 5.02225C9.80115 5.35915 9.60081 6.10569 9.93769 6.68971C10.0995 6.9702 10.3661 7.17493 10.6788 7.25884C10.9916 7.34275 11.3249 7.29897 11.6053 7.13714Z" fill="white"/>
<path d="M5.46891 12.0521C5.89653 12.299 6.43077 12.264 6.82252 11.9635C7.21427 11.6629 7.38637 11.1559 7.25858 10.6789C7.13079 10.202 6.72826 9.84898 6.23871 9.78453C5.74915 9.72008 5.26898 9.95688 5.02209 10.3845C4.68499 10.9684 4.88504 11.715 5.46891 12.0521Z" fill="white"/>
<path d="M4.42208 15.4131C5.0733 15.5876 5.7427 15.2012 5.91727 14.55C6.09184 13.8988 5.70549 13.2293 5.05429 13.0547C4.4031 12.8801 3.73364 13.2664 3.55896 13.9176C3.47506 14.2304 3.51887 14.5636 3.68074 14.8441C3.84261 15.1246 4.10928 15.3293 4.42208 15.4131Z" fill="white"/>
<path d="M5.05381 22.3644C5.53083 22.2367 5.88393 21.8342 5.94844 21.3446C6.01295 20.855 5.77617 20.3748 5.34852 20.1279C4.92087 19.881 4.38658 19.916 3.99483 20.2166C3.60308 20.5173 3.43103 21.0243 3.55892 21.5013C3.73349 22.1523 4.40268 22.5387 5.05381 22.3644Z" fill="white"/>
<path d="M5.02209 25.0343C5.26898 25.4619 5.74915 25.6987 6.23871 25.6343C6.72826 25.5698 7.13079 25.2168 7.25858 24.7398C7.38637 24.2629 7.21427 23.7559 6.82252 23.4553C6.43077 23.1547 5.89653 23.1197 5.46891 23.3666C4.88504 23.7038 4.68499 24.4504 5.02209 25.0343Z" fill="white"/>
<path d="M11.6053 28.2817C11.0214 27.9447 10.2749 28.1448 9.93787 28.7287C9.6008 29.3125 9.80075 30.059 10.3845 30.3962C10.9682 30.7334 11.7148 30.5336 12.0521 29.9499C12.2142 29.6695 12.2582 29.3361 12.1744 29.0232C12.0906 28.7103 11.8859 28.4436 11.6053 28.2817Z" fill="white"/>
<path d="M14.55 29.5013C13.8987 29.3267 13.2293 29.7132 13.0548 30.3644C12.8802 31.0156 13.2665 31.685 13.9177 31.8596C14.5689 32.0342 15.2384 31.6479 15.4131 30.9968C15.497 30.684 15.4532 30.3507 15.2913 30.0702C15.1294 29.7898 14.8627 29.5851 14.55 29.5013Z" fill="white"/>
<path d="M20.8689 29.5013C20.2178 29.6759 19.8314 30.3452 20.0058 30.9964C20.1803 31.6476 20.8495 32.0341 21.5007 31.8598C22.1519 31.6855 22.5386 31.0163 22.3644 30.365C22.2807 30.0521 22.0761 29.7853 21.7956 29.6233C21.5151 29.4613 21.1818 29.4174 20.8689 29.5013Z" fill="white"/>
<path d="M23.8135 28.2817C23.2295 28.6186 23.0293 29.3652 23.3662 29.9492C23.7031 30.5332 24.4497 30.7335 25.0337 30.3966C25.6177 30.0597 25.818 29.3131 25.4812 28.7291C25.3194 28.4486 25.0528 28.2439 24.74 28.16C24.4273 28.0761 24.094 28.1199 23.8135 28.2817Z" fill="white"/>
<path d="M29.9499 23.3666C29.5223 23.1197 28.9881 23.1547 28.5963 23.4553C28.2046 23.7559 28.0325 24.2629 28.1602 24.7398C28.288 25.2168 28.6906 25.5698 29.1801 25.6343C29.6697 25.6987 30.1498 25.4619 30.3967 25.0343C30.7338 24.4504 30.5338 23.7038 29.9499 23.3666Z" fill="white"/>
<path d="M30.9968 20.0058C30.3456 19.8313 29.6762 20.2177 29.5016 20.8689C29.327 21.5201 29.7134 22.1895 30.3646 22.3641C31.0158 22.5388 31.6852 22.1525 31.8599 21.5013C31.9438 21.1885 31.9 20.8552 31.7381 20.5747C31.5763 20.2943 31.3096 20.0896 30.9968 20.0058Z" fill="white"/>
<path d="M30.365 13.0544C29.888 13.1821 29.5349 13.5846 29.4704 14.0742C29.4059 14.5638 29.6427 15.044 30.0703 15.2909C30.498 15.5379 31.0323 15.5028 31.424 15.2022C31.8158 14.9015 31.9878 14.3945 31.8599 13.9175C31.6854 13.2665 31.0162 12.8801 30.365 13.0544Z" fill="white"/>
<path d="M30.3967 10.3845C30.1498 9.95688 29.6697 9.72008 29.1801 9.78453C28.6906 9.84898 28.288 10.202 28.1602 10.6789C28.0325 11.1559 28.2046 11.6629 28.5963 11.9635C28.9881 12.264 29.5223 12.299 29.9499 12.0521C30.5338 11.715 30.7338 10.9684 30.3967 10.3845Z" fill="white"/>
<path d="M23.8135 7.13717C24.3974 7.47412 25.1439 7.27401 25.481 6.69019C25.818 6.10637 25.6181 5.35985 25.0343 5.02265C24.4506 4.68546 23.704 4.88525 23.3667 5.46893C23.2046 5.74938 23.1606 6.08274 23.2444 6.39563C23.3283 6.70852 23.533 6.97528 23.8135 7.13717Z" fill="white"/>
<path d="M20.8689 5.91699C21.3458 6.04487 21.8529 5.87283 22.1535 5.48108C22.4542 5.08933 22.4892 4.55504 22.2423 4.12739C21.9954 3.69974 21.5151 3.46296 21.0256 3.52747C20.536 3.59198 20.1335 3.94508 20.0058 4.4221C19.8314 5.07322 20.2178 5.74242 20.8689 5.91699Z" fill="white"/>
<path d="M50.75 20.1864C49.2914 20.1864 47.969 19.8647 46.783 19.2215C45.6106 18.5643 44.6836 17.6623 44.002 16.5156C43.334 15.355 43 14.0475 43 12.5932C43 11.1389 43.334 9.83838 44.002 8.69171C44.6836 7.53106 45.6106 6.62911 46.783 5.98586C47.969 5.32862 49.2982 5 50.7705 5C52.0111 5 53.1289 5.22374 54.1241 5.67122C55.1329 6.1187 55.9781 6.76195 56.6597 7.60098L54.5331 9.61464C53.5652 8.46797 52.3655 7.89464 50.9341 7.89464C50.048 7.89464 49.2573 8.0974 48.562 8.50293C47.8668 8.89448 47.3215 9.44684 46.9261 10.16C46.5444 10.8732 46.3536 11.6842 46.3536 12.5932C46.3536 13.5021 46.5444 14.3132 46.9261 15.0264C47.3215 15.7395 47.8668 16.2989 48.562 16.7044C49.2573 17.096 50.048 17.2917 50.9341 17.2917C52.3655 17.2917 53.5652 16.7114 54.5331 15.5508L56.6597 17.5644C55.9781 18.4174 55.1329 19.0677 54.1241 19.5151C53.1153 19.9626 51.9906 20.1864 50.75 20.1864ZM65.5293 20.1864C64.0434 20.1864 62.7006 19.8578 61.5009 19.2005C60.3149 18.5433 59.3811 17.6413 58.6995 16.4947C58.0315 15.334 57.6975 14.0335 57.6975 12.5932C57.6975 11.1529 58.0315 9.85936 58.6995 8.71269C59.3811 7.55204 60.3149 6.64309 61.5009 5.98586C62.7006 5.32862 64.0434 5 65.5293 5C67.0153 5 68.3512 5.32862 69.5373 5.98586C70.7233 6.64309 71.6571 7.55204 72.3387 8.71269C73.0204 9.85936 73.3612 11.1529 73.3612 12.5932C73.3612 14.0335 73.0204 15.334 72.3387 16.4947C71.6571 17.6413 70.7233 18.5433 69.5373 19.2005C68.3512 19.8578 67.0153 20.1864 65.5293 20.1864ZM65.5293 17.2917C66.3745 17.2917 67.138 17.096 67.8196 16.7044C68.5012 16.2989 69.0329 15.7395 69.4146 15.0264C69.8099 14.3132 70.0076 13.5021 70.0076 12.5932C70.0076 11.6842 69.8099 10.8732 69.4146 10.16C69.0329 9.44684 68.5012 8.89448 67.8196 8.50293C67.138 8.0974 66.3745 7.89464 65.5293 7.89464C64.6841 7.89464 63.9207 8.0974 63.2391 8.50293C62.5575 8.89448 62.019 9.44684 61.6236 10.16C61.2419 10.8732 61.0511 11.6842 61.0511 12.5932C61.0511 13.5021 61.2419 14.3132 61.6236 15.0264C62.019 15.7395 62.5575 16.2989 63.2391 16.7044C63.9207 17.096 64.6841 17.2917 65.5293 17.2917ZM89.1335 5.25171L82.9376 19.9347H79.6658L73.4902 5.25171H77.0688L81.4244 15.7395L85.8413 5.25171H89.1335ZM90.3286 5.25171H93.6413V19.9347H90.3286V5.25171ZM97.0384 5.25171H103.541C105.095 5.25171 106.465 5.55935 107.651 6.17464C108.851 6.77594 109.778 7.62895 110.432 8.73367C111.1 9.83838 111.434 11.1249 111.434 12.5932C111.434 14.0615 111.1 15.348 110.432 16.4527C109.778 17.5574 108.851 18.4174 107.651 19.0327C106.465 19.634 105.095 19.9347 103.541 19.9347H97.0384V5.25171ZM103.378 17.1449C104.809 17.1449 105.947 16.7394 106.792 15.9283C107.651 15.1033 108.081 13.9916 108.081 12.5932C108.081 11.1948 107.651 10.0901 106.792 9.27903C105.947 8.45399 104.809 8.04147 103.378 8.04147H100.351V17.1449H103.378ZM113.379 12.719H119.166V15.341H113.379V12.719ZM126.082 5.25171V19.9347H122.77V7.97854H119.907V5.25171H126.082ZM133.6 5C135.604 5 137.171 5.62927 138.303 6.88781C139.434 8.13236 140 9.92928 140 12.2786C140 13.9426 139.693 15.369 139.08 16.5576C138.48 17.7462 137.628 18.6482 136.524 19.2634C135.419 19.8787 134.145 20.1864 132.7 20.1864C131.936 20.1864 131.207 20.1025 130.512 19.9347C129.817 19.7529 129.224 19.5012 128.733 19.1795L129.96 16.6834C130.655 17.1729 131.548 17.4176 132.638 17.4176C133.852 17.4176 134.813 17.054 135.522 16.3269C136.231 15.5857 136.612 14.5229 136.667 13.1386C135.808 14.0195 134.622 14.46 133.109 14.46C132.195 14.46 131.364 14.2712 130.614 13.8937C129.864 13.5161 129.271 12.9847 128.835 12.2995C128.399 11.6003 128.181 10.7963 128.181 9.88733C128.181 8.90846 128.419 8.04846 128.896 7.30732C129.374 6.56618 130.021 5.99984 130.839 5.60829C131.671 5.20276 132.591 5 133.6 5ZM133.845 11.922C134.567 11.922 135.154 11.7192 135.604 11.3137C136.067 10.8942 136.299 10.3628 136.299 9.71952C136.299 9.07627 136.074 8.55188 135.624 8.14635C135.188 7.74082 134.581 7.53805 133.804 7.53805C133.095 7.53805 132.516 7.73383 132.066 8.12537C131.63 8.51692 131.412 9.0483 131.412 9.71952C131.412 10.3907 131.63 10.9291 132.066 11.3346C132.516 11.7262 133.109 11.922 133.845 11.922ZM43.2704 25.7612H46.7467C47.5949 25.7612 48.3485 25.9321 49.0074 26.274C49.6663 26.608 50.1775 27.0858 50.541 27.7073C50.9045 28.321 51.0863 29.0319 51.0863 29.8398C51.0863 30.6478 50.9045 31.3625 50.541 31.984C50.1775 32.5977 49.6663 33.0755 49.0074 33.4173C48.3485 33.7514 47.5949 33.9184 46.7467 33.9184H43.2704V25.7612ZM46.6785 32.6366C47.2617 32.6366 47.7729 32.524 48.2121 32.2986C48.659 32.0656 48.9998 31.7393 49.2346 31.3198C49.4769 30.8925 49.5981 30.3992 49.5981 29.8398C49.5981 29.2805 49.4769 28.791 49.2346 28.3715C48.9998 27.9443 48.659 27.618 48.2121 27.3927C47.7729 27.1596 47.2617 27.0431 46.6785 27.0431H44.7472V32.6366H46.6785ZM54.8372 27.6257C55.7309 27.6257 56.4125 27.8471 56.882 28.29C57.3592 28.725 57.5977 29.3854 57.5977 30.271V33.9184H56.2572V33.161C56.0831 33.4329 55.8331 33.6427 55.5074 33.7902C55.1893 33.9301 54.8031 34 54.3487 34C53.8943 34 53.4966 33.9223 53.1558 33.7669C52.815 33.6038 52.55 33.3824 52.3606 33.1027C52.1788 32.8153 52.088 32.4928 52.088 32.1355C52.088 31.5761 52.2887 31.1294 52.6901 30.7954C53.099 30.4535 53.739 30.2826 54.61 30.2826H56.1777V30.1894C56.1777 29.7544 56.049 29.4203 55.7914 29.1873C55.5415 28.9542 55.1666 28.8377 54.6668 28.8377C54.326 28.8377 53.9889 28.892 53.6557 29.0008C53.33 29.1096 53.0536 29.2611 52.8264 29.4553L52.2697 28.3948C52.5878 28.1462 52.9703 27.9559 53.4171 27.8238C53.864 27.6917 54.3373 27.6257 54.8372 27.6257ZM54.644 32.9396C55 32.9396 55.3143 32.858 55.587 32.6948C55.8672 32.524 56.0641 32.2831 56.1777 31.9724V31.2499H54.7122C53.8943 31.2499 53.4853 31.5256 53.4853 32.0772C53.4853 32.3414 53.5875 32.5511 53.792 32.7065C53.9965 32.8619 54.2805 32.9396 54.644 32.9396ZM63.0669 33.5805C62.9003 33.7203 62.6958 33.8252 62.4535 33.8951C62.2186 33.965 61.9687 34 61.7037 34C61.0372 34 60.5222 33.8213 60.1587 33.464C59.7951 33.1066 59.6134 32.5861 59.6134 31.9024V28.9076H58.6136V27.7423H59.6134V26.3206H61.0334V27.7423H62.6579V28.9076H61.0334V31.8675C61.0334 32.1705 61.1053 32.4035 61.2493 32.5667C61.3931 32.7221 61.6014 32.7997 61.8741 32.7997C62.1922 32.7997 62.4572 32.7143 62.6693 32.5434L63.0669 33.5805ZM66.5526 27.6257C67.4463 27.6257 68.1279 27.8471 68.5974 28.29C69.0746 28.725 69.3131 29.3854 69.3131 30.271V33.9184H67.9726V33.161C67.7985 33.4329 67.5485 33.6427 67.2228 33.7902C66.9047 33.9301 66.5185 34 66.0641 34C65.6096 34 65.212 33.9223 64.8712 33.7669C64.5304 33.6038 64.2654 33.3824 64.076 33.1027C63.8942 32.8153 63.8033 32.4928 63.8033 32.1355C63.8033 31.5761 64.0041 31.1294 64.4054 30.7954C64.8144 30.4535 65.4544 30.2826 66.3254 30.2826H67.8931V30.1894C67.8931 29.7544 67.7644 29.4203 67.5068 29.1873C67.2569 28.9542 66.882 28.8377 66.3822 28.8377C66.0413 28.8377 65.7043 28.892 65.3711 29.0008C65.0454 29.1096 64.769 29.2611 64.5418 29.4553L63.9851 28.3948C64.3032 28.1462 64.6857 27.9559 65.1325 27.8238C65.5794 27.6917 66.0527 27.6257 66.5526 27.6257ZM66.3594 32.9396C66.7154 32.9396 67.0297 32.858 67.3023 32.6948C67.5826 32.524 67.7795 32.2831 67.8931 31.9724V31.2499H66.4276C65.6096 31.2499 65.2007 31.5256 65.2007 32.0772C65.2007 32.3414 65.3029 32.5511 65.5074 32.7065C65.7119 32.8619 65.9959 32.9396 66.3594 32.9396ZM77.6833 25.7612C78.3726 25.7612 78.9709 25.8778 79.4783 26.1108C79.9933 26.3439 80.3871 26.6779 80.6598 27.113C80.9324 27.5481 81.0687 28.0646 81.0687 28.6629C81.0687 29.2533 80.9324 29.7699 80.6598 30.2127C80.3871 30.6478 79.9933 30.9818 79.4783 31.2149C78.9709 31.448 78.3726 31.5645 77.6833 31.5645H75.8884V33.9184H74.4116V25.7612H77.6833ZM77.6152 30.2826C78.259 30.2826 78.7475 30.1428 79.0807 29.8631C79.4139 29.5835 79.5805 29.1833 79.5805 28.6629C79.5805 28.1424 79.4139 27.7423 79.0807 27.4626C78.7475 27.1829 78.259 27.0431 77.6152 27.0431H75.8884V30.2826H77.6152ZM84.6693 27.6257C85.563 27.6257 86.2446 27.8471 86.7142 28.29C87.1913 28.725 87.4299 29.3854 87.4299 30.271V33.9184H86.0893V33.161C85.9151 33.4329 85.6652 33.6427 85.3396 33.7902C85.0215 33.9301 84.6352 34 84.1808 34C83.7264 34 83.3288 33.9223 82.988 33.7669C82.6471 33.6038 82.382 33.3824 82.1927 33.1027C82.011 32.8153 81.9201 32.4928 81.9201 32.1355C81.9201 31.5761 82.1208 31.1294 82.5222 30.7954C82.9312 30.4535 83.5711 30.2826 84.4421 30.2826H86.0098V30.1894C86.0098 29.7544 85.881 29.4203 85.6236 29.1873C85.3736 28.9542 84.9987 28.8377 84.4989 28.8377C84.1581 28.8377 83.821 28.892 83.4878 29.0008C83.1621 29.1096 82.8857 29.2611 82.6585 29.4553L82.1018 28.3948C82.4199 28.1462 82.8024 27.9559 83.2492 27.8238C83.696 27.6917 84.1694 27.6257 84.6693 27.6257ZM84.4762 32.9396C84.8321 32.9396 85.1464 32.858 85.4191 32.6948C85.6993 32.524 85.8962 32.2831 86.0098 31.9724V31.2499H84.5443C83.7264 31.2499 83.3174 31.5256 83.3174 32.0772C83.3174 32.3414 83.4196 32.5511 83.6241 32.7065C83.8286 32.8619 84.1126 32.9396 84.4762 32.9396ZM92.6945 27.6257C93.4594 27.6257 94.0729 27.8549 94.5349 28.3133C94.9968 28.7716 95.2279 29.4514 95.2279 30.3526V33.9184H93.8078V30.539C93.8078 29.9952 93.6828 29.5874 93.4329 29.3154C93.183 29.0358 92.827 28.8959 92.365 28.8959C91.8425 28.8959 91.4297 29.0591 91.1268 29.3854C90.8238 29.7039 90.6723 30.1661 90.6723 30.7721V33.9184H89.2523V27.6957H90.6042V28.4997C90.8389 28.2123 91.1343 27.9947 91.4903 27.8471C91.8463 27.6996 92.2476 27.6257 92.6945 27.6257ZM102.787 30.842C102.787 30.943 102.78 31.0867 102.765 31.2732H98.005C98.0882 31.7315 98.3041 32.0966 98.6525 32.3686C99.0084 32.6327 99.4477 32.7648 99.97 32.7648C100.637 32.7648 101.186 32.5395 101.617 32.0889L102.378 32.9862C102.106 33.3202 101.762 33.5727 101.345 33.7436C100.928 33.9145 100.459 34 99.9359 34C99.2697 34 98.6828 33.8641 98.1754 33.5921C97.6679 33.3202 97.2741 32.9435 96.9939 32.4618C96.7212 31.9724 96.5849 31.4208 96.5849 30.807C96.5849 30.2011 96.7174 29.6573 96.9825 29.1756C97.2552 28.6862 97.6301 28.3055 98.1072 28.0336C98.5843 27.7617 99.122 27.6257 99.7201 27.6257C100.311 27.6257 100.837 27.7617 101.299 28.0336C101.769 28.2977 102.132 28.6745 102.39 29.1639C102.655 29.6456 102.787 30.205 102.787 30.842ZM99.7201 28.791C99.266 28.791 98.8797 28.9309 98.5616 29.2106C98.2511 29.4825 98.0618 29.8476 97.9936 30.306H101.436C101.375 29.8554 101.19 29.4902 100.879 29.2106C100.569 28.9309 100.182 28.791 99.7201 28.791ZM104.152 25.2718H105.572V33.9184H104.152V25.2718Z" fill="white"/>
</svg>
