<svg width="35" height="35" viewBox="0 0 35 35" fill="none" xmlns="http://www.w3.org/2000/svg">
<g id="globe">
<path id="Oval" fill-rule="evenodd" clip-rule="evenodd" d="M17.5 30.625C24.7487 30.625 30.625 24.7487 30.625 17.5C30.625 10.2513 24.7487 4.375 17.5 4.375C10.2513 4.375 4.375 10.2513 4.375 17.5C4.375 24.7487 10.2513 30.625 17.5 30.625Z" stroke="#EF4444" stroke-width="1.5"/>
<path id="Oval_2" fill-rule="evenodd" clip-rule="evenodd" d="M17.5 29.3125C17.5 29.3125 22.75 25.017 22.75 17.5C22.75 9.98296 17.5 5.6875 17.5 5.6875C17.5 5.6875 12.25 9.98296 12.25 17.5C12.25 25.017 17.5 29.3125 17.5 29.3125Z" stroke="#EF4444" stroke-width="1.5"/>
<path id="Line" d="M5.03125 13.5625H29.9688" stroke="#EF4444" stroke-width="1.5" stroke-linecap="round"/>
<path id="Line_2" d="M5.03125 21.4375H29.9688" stroke="#EF4444" stroke-width="1.5" stroke-linecap="round"/>
</g>
</svg>
