<svg width="1205" height="406" viewBox="0 0 1205 406" fill="none" xmlns="http://www.w3.org/2000/svg">
<g clip-path="url(#clip0_58:140)">
<rect width="1205" height="406" rx="46" fill="#433E43" fill-opacity="0.85"/>
<path d="M36.384 49.096H30.112V45.4H47.192V49.096H40.92V65H36.384V49.096ZM53.1685 51.924C53.6911 51.196 54.3911 50.6453 55.2685 50.272C56.1645 49.8987 57.1911 49.712 58.3485 49.712V53.744C57.8631 53.7067 57.5365 53.688 57.3685 53.688C56.1178 53.688 55.1378 54.0427 54.4285 54.752C53.7191 55.4427 53.3645 56.488 53.3645 57.888V65H48.9965V49.936H53.1685V51.924ZM75.565 57.524C75.565 57.58 75.537 57.972 75.481 58.7H64.085C64.2903 59.6333 64.7756 60.3707 65.541 60.912C66.3063 61.4533 67.2583 61.724 68.397 61.724C69.181 61.724 69.8716 61.612 70.469 61.388C71.085 61.1453 71.6543 60.772 72.177 60.268L74.501 62.788C73.0823 64.412 71.0103 65.224 68.285 65.224C66.5863 65.224 65.0836 64.8973 63.777 64.244C62.4703 63.572 61.4623 62.648 60.753 61.472C60.0436 60.296 59.689 58.9613 59.689 57.468C59.689 55.9933 60.0343 54.668 60.725 53.492C61.4343 52.2973 62.3956 51.3733 63.609 50.72C64.841 50.048 66.213 49.712 67.725 49.712C69.1996 49.712 70.5343 50.0293 71.729 50.664C72.9236 51.2987 73.857 52.2133 74.529 53.408C75.2196 54.584 75.565 55.956 75.565 57.524ZM67.753 53.016C66.7636 53.016 65.933 53.296 65.261 53.856C64.589 54.416 64.1783 55.1813 64.029 56.152H71.449C71.2996 55.2 70.889 54.444 70.217 53.884C69.545 53.3053 68.7236 53.016 67.753 53.016ZM87.629 49.712C89.4957 49.712 90.9984 50.272 92.137 51.392C93.2944 52.512 93.873 54.1733 93.873 56.376V65H89.505V57.048C89.505 55.8533 89.2437 54.9667 88.721 54.388C88.1984 53.7907 87.4424 53.492 86.453 53.492C85.3517 53.492 84.4744 53.8373 83.821 54.528C83.1677 55.2 82.841 56.208 82.841 57.552V65H78.473V49.936H82.645V51.7C83.2237 51.0653 83.9424 50.58 84.801 50.244C85.6597 49.8893 86.6024 49.712 87.629 49.712ZM113.34 44.224V65H109.168V63.264C108.086 64.5707 106.518 65.224 104.464 65.224C103.046 65.224 101.758 64.9067 100.6 64.272C99.4618 63.6373 98.5658 62.732 97.9125 61.556C97.2591 60.38 96.9325 59.0173 96.9325 57.468C96.9325 55.9187 97.2591 54.556 97.9125 53.38C98.5658 52.204 99.4618 51.2987 100.6 50.664C101.758 50.0293 103.046 49.712 104.464 49.712C106.387 49.712 107.89 50.3187 108.972 51.532V44.224H113.34ZM105.22 61.64C106.322 61.64 107.236 61.2667 107.964 60.52C108.692 59.7547 109.056 58.7373 109.056 57.468C109.056 56.1987 108.692 55.1907 107.964 54.444C107.236 53.6787 106.322 53.296 105.22 53.296C104.1 53.296 103.176 53.6787 102.448 54.444C101.72 55.1907 101.356 56.1987 101.356 57.468C101.356 58.7373 101.72 59.7547 102.448 60.52C103.176 61.2667 104.1 61.64 105.22 61.64Z" fill="white"/>
<line opacity="0.2" x1="46" y1="142.753" x2="475" y2="142.753" stroke="white" stroke-width="1.20074" stroke-dasharray="4.8 7.2"/>
<line opacity="0.2" x1="46" y1="172.825" x2="475" y2="172.825" stroke="white" stroke-width="1.20074" stroke-dasharray="4.8 7.2"/>
<line opacity="0.2" x1="46" y1="202.898" x2="475" y2="202.898" stroke="white" stroke-width="1.20074" stroke-dasharray="4.8 7.2"/>
<line opacity="0.2" x1="46" y1="232.971" x2="475" y2="232.971" stroke="white" stroke-width="1.20074" stroke-dasharray="4.8 7.2"/>
<line opacity="0.2" x1="46" y1="263.044" x2="475" y2="263.044" stroke="white" stroke-width="1.20074" stroke-dasharray="4.8 7.2"/>
<line opacity="0.2" x1="46" y1="293.117" x2="475" y2="293.117" stroke="white" stroke-width="1.20074" stroke-dasharray="4.8 7.2"/>
<line opacity="0.2" x1="46" y1="323.189" x2="475" y2="323.189" stroke="white" stroke-width="1.20074" stroke-dasharray="4.8 7.2"/>
<line opacity="0.2" x1="46" y1="353.262" x2="475" y2="353.262" stroke="white" stroke-width="1.20074" stroke-dasharray="4.8 7.2"/>
<path opacity="0.5" d="M467.812 301.594C466.909 301.489 466.009 301.361 465.112 301.21C456.935 299.935 449.007 297.133 441.116 294.343C430.56 290.611 420.069 286.903 409.13 286.903C394.466 286.903 380.605 293.569 366.315 300.441C361.977 302.527 357.6 304.632 353.149 306.576C335.399 314.922 316.283 320.884 298.533 314.922C281.088 310.026 264.781 295.696 247.535 280.541C245.883 279.09 244.222 277.631 242.551 276.172C241.129 274.93 239.714 273.687 238.306 272.451C220.787 257.071 204.263 242.565 186.57 239.806C178.39 238.432 169.919 240.097 161.426 241.767C151.49 243.72 141.524 245.679 131.954 242.787C122.084 239.709 112.213 232.339 102.531 225.109C93.4615 218.338 84.5573 211.689 75.9724 208.806C68.0423 206.58 60.3471 207.227 52.692 209.512" stroke="#EC4444" stroke-width="6" stroke-linecap="round"/>
<line opacity="0.2" x1="752" y1="155.785" x2="1157" y2="155.785" stroke="white" stroke-width="1.20074" stroke-dasharray="4.8 7.2"/>
<line opacity="0.2" x1="752" y1="185.858" x2="1157" y2="185.858" stroke="white" stroke-width="1.20074" stroke-dasharray="4.8 7.2"/>
<line opacity="0.2" x1="752" y1="215.93" x2="1157" y2="215.93" stroke="white" stroke-width="1.20074" stroke-dasharray="4.8 7.2"/>
<line opacity="0.2" x1="752" y1="246.003" x2="1157" y2="246.003" stroke="white" stroke-width="1.20074" stroke-dasharray="4.8 7.2"/>
<line opacity="0.2" x1="752" y1="276.076" x2="1157" y2="276.076" stroke="white" stroke-width="1.20074" stroke-dasharray="4.8 7.2"/>
<line opacity="0.2" x1="752" y1="306.149" x2="1157" y2="306.149" stroke="white" stroke-width="1.20074" stroke-dasharray="4.8 7.2"/>
<line opacity="0.2" x1="752" y1="336.222" x2="1157" y2="336.222" stroke="white" stroke-width="1.20074" stroke-dasharray="4.8 7.2"/>
<line opacity="0.2" x1="752" y1="366.294" x2="1157" y2="366.294" stroke="white" stroke-width="1.20074" stroke-dasharray="4.8 7.2"/>
<path opacity="0.5" d="M1150.21 316.091C1140.46 311.299 1130.96 306.836 1120.93 306.836C1113.1 306.836 1105.59 309.553 1098.04 312.287C1092.4 314.33 1086.72 316.383 1080.87 317.317C1068.17 319.501 1054.49 315.134 1041.79 309.02C1028.12 302.906 1014.44 294.609 1001.74 282.381C998.703 279.667 995.715 276.759 992.754 273.877C982.375 263.776 972.325 253.995 961.684 253.995C953.99 253.995 945.937 259.926 937.742 265.961C932.411 269.887 927.02 273.857 921.629 276.267C913.732 280.068 905.458 279.987 897.276 279.906C892.298 279.857 887.355 279.808 882.551 280.634C869.927 282.246 858.134 289.44 845.638 297.063C844.596 297.698 843.549 298.337 842.496 298.976C829.796 306.836 816.118 315.134 802.441 319.501C789.741 323.431 776.064 323.431 763.363 312.95C761.663 311.702 759.978 310.291 758.318 308.759" stroke="#EC4444" stroke-width="6" stroke-linecap="round"/>
<path d="M1034.1 48H1036.1V60.26H1043.68V62H1034.1V48ZM1049.61 51.3C1051.08 51.3 1052.2 51.66 1052.97 52.38C1053.76 53.1 1054.15 54.1733 1054.15 55.6V62H1052.33V60.6C1052.01 61.0933 1051.55 61.4733 1050.95 61.74C1050.37 61.9933 1049.67 62.12 1048.85 62.12C1047.67 62.12 1046.71 61.8333 1045.99 61.26C1045.29 60.6867 1044.93 59.9333 1044.93 59C1044.93 58.0667 1045.27 57.32 1045.95 56.76C1046.63 56.1867 1047.71 55.9 1049.19 55.9H1052.23V55.52C1052.23 54.6933 1051.99 54.06 1051.51 53.62C1051.03 53.18 1050.33 52.96 1049.39 52.96C1048.77 52.96 1048.15 53.0667 1047.55 53.28C1046.95 53.48 1046.45 53.7533 1046.03 54.1L1045.23 52.66C1045.78 52.22 1046.43 51.8867 1047.19 51.66C1047.95 51.42 1048.76 51.3 1049.61 51.3ZM1049.17 60.64C1049.91 60.64 1050.54 60.48 1051.07 60.16C1051.61 59.8267 1051.99 59.36 1052.23 58.76V57.28H1049.27C1047.65 57.28 1046.83 57.8267 1046.83 58.92C1046.83 59.4533 1047.04 59.8733 1047.45 60.18C1047.87 60.4867 1048.44 60.64 1049.17 60.64ZM1060.75 62.12C1059.88 62.12 1059.05 62.0067 1058.25 61.78C1057.45 61.54 1056.82 61.24 1056.37 60.88L1057.17 59.36C1057.63 59.6933 1058.2 59.96 1058.87 60.16C1059.53 60.36 1060.21 60.46 1060.89 60.46C1062.57 60.46 1063.41 59.98 1063.41 59.02C1063.41 58.7 1063.29 58.4467 1063.07 58.26C1062.84 58.0733 1062.55 57.94 1062.21 57.86C1061.87 57.7667 1061.39 57.6667 1060.77 57.56C1059.91 57.4267 1059.21 57.2733 1058.67 57.1C1058.13 56.9267 1057.67 56.6333 1057.29 56.22C1056.9 55.8067 1056.71 55.2267 1056.71 54.48C1056.71 53.52 1057.11 52.7533 1057.91 52.18C1058.71 51.5933 1059.78 51.3 1061.13 51.3C1061.83 51.3 1062.54 51.3867 1063.25 51.56C1063.95 51.7333 1064.53 51.9667 1064.99 52.26L1064.17 53.78C1063.3 53.22 1062.28 52.94 1061.11 52.94C1060.29 52.94 1059.67 53.0733 1059.25 53.34C1058.82 53.6067 1058.61 53.96 1058.61 54.4C1058.61 54.7467 1058.73 55.02 1058.97 55.22C1059.21 55.42 1059.5 55.5667 1059.85 55.66C1060.21 55.7533 1060.71 55.86 1061.35 55.98C1062.2 56.1267 1062.89 56.2867 1063.41 56.46C1063.94 56.62 1064.39 56.9 1064.77 57.3C1065.14 57.7 1065.33 58.26 1065.33 58.98C1065.33 59.94 1064.91 60.7067 1064.09 61.28C1063.27 61.84 1062.16 62.12 1060.75 62.12ZM1073.69 61.38C1073.41 61.62 1073.06 61.8067 1072.65 61.94C1072.23 62.06 1071.81 62.12 1071.37 62.12C1070.3 62.12 1069.47 61.8333 1068.89 61.26C1068.3 60.6867 1068.01 59.8667 1068.01 58.8V52.98H1066.21V51.4H1068.01V49.08H1069.93V51.4H1072.97V52.98H1069.93V58.72C1069.93 59.2933 1070.07 59.7333 1070.35 60.04C1070.64 60.3467 1071.05 60.5 1071.59 60.5C1072.17 60.5 1072.67 60.3333 1073.09 60L1073.69 61.38ZM1085.06 47.84C1086.94 47.84 1088.39 48.4467 1089.4 49.66C1090.43 50.8733 1090.94 52.5933 1090.94 54.82C1090.94 56.38 1090.66 57.7133 1090.1 58.82C1089.55 59.9133 1088.78 60.7467 1087.78 61.32C1086.79 61.88 1085.64 62.16 1084.32 62.16C1083.64 62.16 1083 62.0933 1082.4 61.96C1081.8 61.8133 1081.28 61.6067 1080.84 61.34L1081.6 59.78C1082.28 60.22 1083.18 60.44 1084.3 60.44C1085.75 60.44 1086.89 59.9933 1087.7 59.1C1088.53 58.1933 1088.94 56.88 1088.94 55.16V54.66C1088.54 55.26 1087.99 55.72 1087.28 56.04C1086.57 56.3467 1085.78 56.5 1084.9 56.5C1083.98 56.5 1083.15 56.3267 1082.42 55.98C1081.7 55.6333 1081.13 55.14 1080.72 54.5C1080.32 53.8467 1080.12 53.1 1080.12 52.26C1080.12 51.38 1080.33 50.6067 1080.76 49.94C1081.2 49.2733 1081.79 48.76 1082.54 48.4C1083.29 48.0267 1084.13 47.84 1085.06 47.84ZM1085.24 54.88C1085.87 54.88 1086.43 54.76 1086.92 54.52C1087.41 54.28 1087.79 53.9533 1088.06 53.54C1088.34 53.1267 1088.48 52.6667 1088.48 52.16C1088.48 51.6667 1088.35 51.22 1088.08 50.82C1087.83 50.4067 1087.45 50.08 1086.94 49.84C1086.45 49.5867 1085.85 49.46 1085.14 49.46C1084.22 49.46 1083.47 49.7067 1082.9 50.2C1082.34 50.6933 1082.06 51.3533 1082.06 52.18C1082.06 53.0067 1082.35 53.6667 1082.92 54.16C1083.49 54.64 1084.27 54.88 1085.24 54.88ZM1098.58 62.16C1097.48 62.16 1096.49 61.88 1095.62 61.32C1094.77 60.7467 1094.1 59.92 1093.6 58.84C1093.11 57.76 1092.86 56.48 1092.86 55C1092.86 53.52 1093.11 52.24 1093.6 51.16C1094.1 50.08 1094.77 49.26 1095.62 48.7C1096.49 48.1267 1097.48 47.84 1098.58 47.84C1099.68 47.84 1100.65 48.1267 1101.5 48.7C1102.37 49.26 1103.05 50.08 1103.54 51.16C1104.04 52.24 1104.28 53.52 1104.28 55C1104.28 56.48 1104.04 57.76 1103.54 58.84C1103.05 59.92 1102.37 60.7467 1101.5 61.32C1100.65 61.88 1099.68 62.16 1098.58 62.16ZM1098.58 60.38C1099.7 60.38 1100.6 59.92 1101.26 59C1101.94 58.08 1102.28 56.7467 1102.28 55C1102.28 53.2533 1101.94 51.92 1101.26 51C1100.6 50.08 1099.7 49.62 1098.58 49.62C1097.45 49.62 1096.54 50.08 1095.86 51C1095.2 51.92 1094.86 53.2533 1094.86 55C1094.86 56.7467 1095.2 58.08 1095.86 59C1096.54 59.92 1097.45 60.38 1098.58 60.38ZM1122.43 47.16V62H1120.59V60.32C1120.17 60.9067 1119.63 61.3533 1118.97 61.66C1118.32 61.9667 1117.6 62.12 1116.81 62.12C1115.79 62.12 1114.87 61.8933 1114.05 61.44C1113.24 60.9867 1112.6 60.3533 1112.13 59.54C1111.68 58.7133 1111.45 57.7667 1111.45 56.7C1111.45 55.6333 1111.68 54.6933 1112.13 53.88C1112.6 53.0667 1113.24 52.4333 1114.05 51.98C1114.87 51.5267 1115.79 51.3 1116.81 51.3C1117.57 51.3 1118.27 51.4467 1118.91 51.74C1119.55 52.02 1120.09 52.44 1120.51 53V47.16H1122.43ZM1116.97 60.44C1117.64 60.44 1118.25 60.2867 1118.79 59.98C1119.34 59.66 1119.77 59.22 1120.07 58.66C1120.38 58.0867 1120.53 57.4333 1120.53 56.7C1120.53 55.9667 1120.38 55.32 1120.07 54.76C1119.77 54.1867 1119.34 53.7467 1118.79 53.44C1118.25 53.1333 1117.64 52.98 1116.97 52.98C1116.29 52.98 1115.68 53.1333 1115.13 53.44C1114.6 53.7467 1114.17 54.1867 1113.85 54.76C1113.55 55.32 1113.39 55.9667 1113.39 56.7C1113.39 57.4333 1113.55 58.0867 1113.85 58.66C1114.17 59.22 1114.6 59.66 1115.13 59.98C1115.68 60.2867 1116.29 60.44 1116.97 60.44ZM1129.93 51.3C1131.39 51.3 1132.51 51.66 1133.29 52.38C1134.07 53.1 1134.47 54.1733 1134.47 55.6V62H1132.65V60.6C1132.33 61.0933 1131.87 61.4733 1131.27 61.74C1130.68 61.9933 1129.98 62.12 1129.17 62.12C1127.98 62.12 1127.03 61.8333 1126.31 61.26C1125.6 60.6867 1125.25 59.9333 1125.25 59C1125.25 58.0667 1125.59 57.32 1126.27 56.76C1126.95 56.1867 1128.03 55.9 1129.51 55.9H1132.55V55.52C1132.55 54.6933 1132.31 54.06 1131.83 53.62C1131.35 53.18 1130.64 52.96 1129.71 52.96C1129.08 52.96 1128.47 53.0667 1127.87 53.28C1127.27 53.48 1126.76 53.7533 1126.35 54.1L1125.55 52.66C1126.09 52.22 1126.75 51.8867 1127.51 51.66C1128.27 51.42 1129.07 51.3 1129.93 51.3ZM1129.49 60.64C1130.22 60.64 1130.85 60.48 1131.39 60.16C1131.92 59.8267 1132.31 59.36 1132.55 58.76V57.28H1129.59C1127.96 57.28 1127.15 57.8267 1127.15 58.92C1127.15 59.4533 1127.35 59.8733 1127.77 60.18C1128.18 60.4867 1128.75 60.64 1129.49 60.64ZM1147.2 51.4L1142.06 63.06C1141.61 64.14 1141.08 64.9 1140.46 65.34C1139.86 65.78 1139.14 66 1138.28 66C1137.76 66 1137.26 65.9133 1136.76 65.74C1136.28 65.58 1135.88 65.34 1135.56 65.02L1136.38 63.58C1136.93 64.1 1137.56 64.36 1138.28 64.36C1138.75 64.36 1139.14 64.2333 1139.44 63.98C1139.76 63.74 1140.05 63.32 1140.3 62.72L1140.64 61.98L1135.96 51.4H1137.96L1141.66 59.88L1145.32 51.4H1147.2ZM1151.9 62.12C1151.03 62.12 1150.2 62.0067 1149.4 61.78C1148.6 61.54 1147.97 61.24 1147.52 60.88L1148.32 59.36C1148.79 59.6933 1149.35 59.96 1150.02 60.16C1150.69 60.36 1151.36 60.46 1152.04 60.46C1153.72 60.46 1154.56 59.98 1154.56 59.02C1154.56 58.7 1154.45 58.4467 1154.22 58.26C1153.99 58.0733 1153.71 57.94 1153.36 57.86C1153.03 57.7667 1152.55 57.6667 1151.92 57.56C1151.07 57.4267 1150.37 57.2733 1149.82 57.1C1149.29 56.9267 1148.83 56.6333 1148.44 56.22C1148.05 55.8067 1147.86 55.2267 1147.86 54.48C1147.86 53.52 1148.26 52.7533 1149.06 52.18C1149.86 51.5933 1150.93 51.3 1152.28 51.3C1152.99 51.3 1153.69 51.3867 1154.4 51.56C1155.11 51.7333 1155.69 51.9667 1156.14 52.26L1155.32 53.78C1154.45 53.22 1153.43 52.94 1152.26 52.94C1151.45 52.94 1150.83 53.0733 1150.4 53.34C1149.97 53.6067 1149.76 53.96 1149.76 54.4C1149.76 54.7467 1149.88 55.02 1150.12 55.22C1150.36 55.42 1150.65 55.5667 1151 55.66C1151.36 55.7533 1151.86 55.86 1152.5 55.98C1153.35 56.1267 1154.04 56.2867 1154.56 56.46C1155.09 56.62 1155.55 56.9 1155.92 57.3C1156.29 57.7 1156.48 58.26 1156.48 58.98C1156.48 59.94 1156.07 60.7067 1155.24 61.28C1154.43 61.84 1153.31 62.12 1151.9 62.12Z" fill="white"/>
<rect x="991.5" y="43.5" width="21" height="22" rx="10.5" stroke="white" stroke-width="3"/>
<path d="M901.02 58.5H893.58L892.04 62H889.98L896.32 48H898.3L904.66 62H902.56L901.02 58.5ZM900.32 56.9L897.3 50.04L894.28 56.9H900.32ZM906.468 47.16H908.388V62H906.468V47.16ZM912.054 47.16H913.974V62H912.054V47.16ZM928.971 61.38C928.691 61.62 928.345 61.8067 927.931 61.94C927.518 62.06 927.091 62.12 926.651 62.12C925.585 62.12 924.758 61.8333 924.171 61.26C923.585 60.6867 923.291 59.8667 923.291 58.8V52.98H921.491V51.4H923.291V49.08H925.211V51.4H928.251V52.98H925.211V58.72C925.211 59.2933 925.351 59.7333 925.631 60.04C925.925 60.3467 926.338 60.5 926.871 60.5C927.458 60.5 927.958 60.3333 928.371 60L928.971 61.38ZM931.293 51.4H933.213V62H931.293V51.4ZM932.253 49.36C931.879 49.36 931.566 49.24 931.313 49C931.073 48.76 930.953 48.4667 930.953 48.12C930.953 47.7733 931.073 47.48 931.313 47.24C931.566 46.9867 931.879 46.86 932.253 46.86C932.626 46.86 932.933 46.98 933.173 47.22C933.426 47.4467 933.553 47.7333 933.553 48.08C933.553 48.44 933.426 48.7467 933.173 49C932.933 49.24 932.626 49.36 932.253 49.36ZM950.139 51.3C951.472 51.3 952.525 51.6867 953.299 52.46C954.085 53.2333 954.479 54.38 954.479 55.9V62H952.559V56.12C952.559 55.0933 952.319 54.32 951.839 53.8C951.372 53.28 950.699 53.02 949.819 53.02C948.845 53.02 948.072 53.3267 947.499 53.94C946.925 54.54 946.639 55.4067 946.639 56.54V62H944.719V56.12C944.719 55.0933 944.479 54.32 943.999 53.8C943.532 53.28 942.859 53.02 941.979 53.02C941.005 53.02 940.232 53.3267 939.659 53.94C939.085 54.54 938.799 55.4067 938.799 56.54V62H936.879V51.4H938.719V52.98C939.105 52.4333 939.612 52.02 940.239 51.74C940.865 51.4467 941.579 51.3 942.379 51.3C943.205 51.3 943.939 51.4667 944.579 51.8C945.219 52.1333 945.712 52.62 946.059 53.26C946.459 52.6467 947.012 52.1667 947.719 51.82C948.439 51.4733 949.245 51.3 950.139 51.3ZM967.65 56.76C967.65 56.9067 967.637 57.1 967.61 57.34H959.01C959.13 58.2733 959.537 59.0267 960.23 59.6C960.937 60.16 961.81 60.44 962.85 60.44C964.117 60.44 965.137 60.0133 965.91 59.16L966.97 60.4C966.49 60.96 965.89 61.3867 965.17 61.68C964.463 61.9733 963.67 62.12 962.79 62.12C961.67 62.12 960.677 61.8933 959.81 61.44C958.943 60.9733 958.27 60.3267 957.79 59.5C957.323 58.6733 957.09 57.74 957.09 56.7C957.09 55.6733 957.317 54.7467 957.77 53.92C958.237 53.0933 958.87 52.4533 959.67 52C960.483 51.5333 961.397 51.3 962.41 51.3C963.423 51.3 964.323 51.5333 965.11 52C965.91 52.4533 966.53 53.0933 966.97 53.92C967.423 54.7467 967.65 55.6933 967.65 56.76ZM962.41 52.92C961.49 52.92 960.717 53.2 960.09 53.76C959.477 54.32 959.117 55.0533 959.01 55.96H965.81C965.703 55.0667 965.337 54.34 964.71 53.78C964.097 53.2067 963.33 52.92 962.41 52.92Z" fill="white"/>
<rect x="849.5" y="43.5" width="21" height="22" rx="10.5" stroke="white" stroke-width="3"/>
<ellipse cx="860" cy="54.5" rx="6" ry="6.25" fill="white"/>
<path d="M57.883 110.1V122H56.846L49.196 112.344V122H47.938V110.1H48.975L56.642 119.756V110.1H57.883ZM69.2981 117.903H61.8181C61.8861 118.832 62.2431 119.586 62.8891 120.164C63.5351 120.731 64.3511 121.014 65.3371 121.014C65.8924 121.014 66.4024 120.918 66.8671 120.725C67.3318 120.521 67.7341 120.226 68.0741 119.841L68.7541 120.623C68.3574 121.099 67.8588 121.462 67.2581 121.711C66.6688 121.96 66.0171 122.085 65.3031 122.085C64.3851 122.085 63.5691 121.892 62.8551 121.507C62.1524 121.11 61.6028 120.566 61.2061 119.875C60.8094 119.184 60.6111 118.402 60.6111 117.529C60.6111 116.656 60.7981 115.874 61.1721 115.183C61.5574 114.492 62.0788 113.953 62.7361 113.568C63.4048 113.183 64.1528 112.99 64.9801 112.99C65.8074 112.99 66.5498 113.183 67.2071 113.568C67.8644 113.953 68.3801 114.492 68.7541 115.183C69.1281 115.863 69.3151 116.645 69.3151 117.529L69.2981 117.903ZM64.9801 114.027C64.1188 114.027 63.3934 114.305 62.8041 114.86C62.2261 115.404 61.8974 116.118 61.8181 117.002H68.1591C68.0798 116.118 67.7454 115.404 67.1561 114.86C66.5781 114.305 65.8528 114.027 64.9801 114.027ZM84.7299 113.058L81.3469 122H80.2079L77.3859 114.673L74.5639 122H73.4249L70.0589 113.058H71.2149L74.0199 120.657L76.8929 113.058H77.9299L80.7859 120.657L83.6249 113.058H84.7299ZM92.1525 114.809C92.4358 114.208 92.8551 113.755 93.4105 113.449C93.9771 113.143 94.6741 112.99 95.5015 112.99V114.163L95.2125 114.146C94.2718 114.146 93.5351 114.435 93.0025 115.013C92.4698 115.591 92.2035 116.401 92.2035 117.444V122H90.9965V113.058H92.1525V114.809ZM105.39 117.903H97.9099C97.9779 118.832 98.3349 119.586 98.9809 120.164C99.6269 120.731 100.443 121.014 101.429 121.014C101.984 121.014 102.494 120.918 102.959 120.725C103.424 120.521 103.826 120.226 104.166 119.841L104.846 120.623C104.449 121.099 103.951 121.462 103.35 121.711C102.761 121.96 102.109 122.085 101.395 122.085C100.477 122.085 99.6609 121.892 98.9469 121.507C98.2442 121.11 97.6946 120.566 97.2979 119.875C96.9012 119.184 96.7029 118.402 96.7029 117.529C96.7029 116.656 96.8899 115.874 97.2639 115.183C97.6492 114.492 98.1706 113.953 98.8279 113.568C99.4966 113.183 100.245 112.99 101.072 112.99C101.899 112.99 102.642 113.183 103.299 113.568C103.956 113.953 104.472 114.492 104.846 115.183C105.22 115.863 105.407 116.645 105.407 117.529L105.39 117.903ZM101.072 114.027C100.211 114.027 99.4852 114.305 98.8959 114.86C98.3179 115.404 97.9892 116.118 97.9099 117.002H104.251C104.172 116.118 103.837 115.404 103.248 114.86C102.67 114.305 101.945 114.027 101.072 114.027ZM112.471 112.99C113.309 112.99 114.069 113.183 114.749 113.568C115.429 113.942 115.961 114.475 116.347 115.166C116.732 115.857 116.925 116.645 116.925 117.529C116.925 118.424 116.732 119.218 116.347 119.909C115.961 120.6 115.429 121.139 114.749 121.524C114.08 121.898 113.321 122.085 112.471 122.085C111.745 122.085 111.088 121.938 110.499 121.643C109.921 121.337 109.445 120.895 109.071 120.317V125.298H107.864V113.058H109.02V114.826C109.382 114.237 109.858 113.783 110.448 113.466C111.048 113.149 111.723 112.99 112.471 112.99ZM112.386 121.014C113.009 121.014 113.576 120.872 114.086 120.589C114.596 120.294 114.992 119.881 115.276 119.348C115.57 118.815 115.718 118.209 115.718 117.529C115.718 116.849 115.57 116.248 115.276 115.727C114.992 115.194 114.596 114.781 114.086 114.486C113.576 114.191 113.009 114.044 112.386 114.044C111.751 114.044 111.179 114.191 110.669 114.486C110.17 114.781 109.773 115.194 109.479 115.727C109.195 116.248 109.054 116.849 109.054 117.529C109.054 118.209 109.195 118.815 109.479 119.348C109.773 119.881 110.17 120.294 110.669 120.589C111.179 120.872 111.751 121.014 112.386 121.014ZM123.04 122.085C122.179 122.085 121.402 121.892 120.711 121.507C120.02 121.11 119.476 120.566 119.079 119.875C118.682 119.184 118.484 118.402 118.484 117.529C118.484 116.656 118.682 115.874 119.079 115.183C119.476 114.492 120.02 113.953 120.711 113.568C121.402 113.183 122.179 112.99 123.04 112.99C123.901 112.99 124.678 113.183 125.369 113.568C126.06 113.953 126.599 114.492 126.984 115.183C127.381 115.874 127.579 116.656 127.579 117.529C127.579 118.402 127.381 119.184 126.984 119.875C126.599 120.566 126.06 121.11 125.369 121.507C124.678 121.892 123.901 122.085 123.04 122.085ZM123.04 121.014C123.675 121.014 124.241 120.872 124.74 120.589C125.25 120.294 125.647 119.881 125.93 119.348C126.213 118.815 126.355 118.209 126.355 117.529C126.355 116.849 126.213 116.243 125.93 115.71C125.647 115.177 125.25 114.769 124.74 114.486C124.241 114.191 123.675 114.044 123.04 114.044C122.405 114.044 121.833 114.191 121.323 114.486C120.824 114.769 120.428 115.177 120.133 115.71C119.85 116.243 119.708 116.849 119.708 117.529C119.708 118.209 119.85 118.815 120.133 119.348C120.428 119.881 120.824 120.294 121.323 120.589C121.833 120.872 122.405 121.014 123.04 121.014ZM131.199 114.809C131.483 114.208 131.902 113.755 132.457 113.449C133.024 113.143 133.721 112.99 134.548 112.99V114.163L134.259 114.146C133.319 114.146 132.582 114.435 132.049 115.013C131.517 115.591 131.25 116.401 131.25 117.444V122H130.043V113.058H131.199V114.809ZM141.825 121.456C141.598 121.66 141.315 121.819 140.975 121.932C140.646 122.034 140.3 122.085 139.938 122.085C139.099 122.085 138.453 121.858 138 121.405C137.546 120.952 137.32 120.311 137.32 119.484V114.078H135.722V113.058H137.32V111.103H138.527V113.058H141.247V114.078H138.527V119.416C138.527 119.949 138.657 120.357 138.918 120.64C139.19 120.912 139.575 121.048 140.074 121.048C140.323 121.048 140.561 121.008 140.788 120.929C141.026 120.85 141.23 120.736 141.4 120.589L141.825 121.456ZM151.492 117.903H144.012C144.08 118.832 144.437 119.586 145.083 120.164C145.729 120.731 146.545 121.014 147.531 121.014C148.087 121.014 148.597 120.918 149.061 120.725C149.526 120.521 149.928 120.226 150.268 119.841L150.948 120.623C150.552 121.099 150.053 121.462 149.452 121.711C148.863 121.96 148.211 122.085 147.497 122.085C146.579 122.085 145.763 121.892 145.049 121.507C144.347 121.11 143.797 120.566 143.4 119.875C143.004 119.184 142.805 118.402 142.805 117.529C142.805 116.656 142.992 115.874 143.366 115.183C143.752 114.492 144.273 113.953 144.93 113.568C145.599 113.183 146.347 112.99 147.174 112.99C148.002 112.99 148.744 113.183 149.401 113.568C150.059 113.953 150.574 114.492 150.948 115.183C151.322 115.863 151.509 116.645 151.509 117.529L151.492 117.903ZM147.174 114.027C146.313 114.027 145.588 114.305 144.998 114.86C144.42 115.404 144.092 116.118 144.012 117.002H150.353C150.274 116.118 149.94 115.404 149.35 114.86C148.772 114.305 148.047 114.027 147.174 114.027ZM162.126 109.386V122H160.97V120.232C160.608 120.833 160.126 121.292 159.525 121.609C158.936 121.926 158.267 122.085 157.519 122.085C156.681 122.085 155.921 121.892 155.241 121.507C154.561 121.122 154.029 120.583 153.643 119.892C153.258 119.201 153.065 118.413 153.065 117.529C153.065 116.645 153.258 115.857 153.643 115.166C154.029 114.475 154.561 113.942 155.241 113.568C155.921 113.183 156.681 112.99 157.519 112.99C158.245 112.99 158.896 113.143 159.474 113.449C160.064 113.744 160.545 114.18 160.919 114.758V109.386H162.126ZM157.621 121.014C158.245 121.014 158.806 120.872 159.304 120.589C159.814 120.294 160.211 119.881 160.494 119.348C160.789 118.815 160.936 118.209 160.936 117.529C160.936 116.849 160.789 116.243 160.494 115.71C160.211 115.177 159.814 114.769 159.304 114.486C158.806 114.191 158.245 114.044 157.621 114.044C156.987 114.044 156.414 114.191 155.904 114.486C155.406 114.769 155.009 115.177 154.714 115.71C154.431 116.243 154.289 116.849 154.289 117.529C154.289 118.209 154.431 118.815 154.714 119.348C155.009 119.881 155.406 120.294 155.904 120.589C156.414 120.872 156.987 121.014 157.621 121.014ZM173.643 122.085C172.759 122.085 171.966 121.892 171.263 121.507C170.572 121.122 170.028 120.583 169.631 119.892C169.234 119.189 169.036 118.402 169.036 117.529C169.036 116.656 169.234 115.874 169.631 115.183C170.028 114.492 170.572 113.953 171.263 113.568C171.966 113.183 172.759 112.99 173.643 112.99C174.414 112.99 175.099 113.143 175.7 113.449C176.312 113.744 176.794 114.18 177.145 114.758L176.244 115.37C175.949 114.928 175.575 114.599 175.122 114.384C174.669 114.157 174.176 114.044 173.643 114.044C172.997 114.044 172.413 114.191 171.892 114.486C171.382 114.769 170.98 115.177 170.685 115.71C170.402 116.243 170.26 116.849 170.26 117.529C170.26 118.22 170.402 118.832 170.685 119.365C170.98 119.886 171.382 120.294 171.892 120.589C172.413 120.872 172.997 121.014 173.643 121.014C174.176 121.014 174.669 120.906 175.122 120.691C175.575 120.476 175.949 120.147 176.244 119.705L177.145 120.317C176.794 120.895 176.312 121.337 175.7 121.643C175.088 121.938 174.402 122.085 173.643 122.085ZM182.644 112.99C183.811 112.99 184.707 113.285 185.33 113.874C185.953 114.452 186.265 115.313 186.265 116.458V122H185.109V120.606C184.837 121.071 184.435 121.433 183.902 121.694C183.381 121.955 182.757 122.085 182.032 122.085C181.035 122.085 180.241 121.847 179.652 121.371C179.063 120.895 178.768 120.266 178.768 119.484C178.768 118.725 179.04 118.113 179.584 117.648C180.139 117.183 181.018 116.951 182.219 116.951H185.058V116.407C185.058 115.636 184.843 115.053 184.412 114.656C183.981 114.248 183.352 114.044 182.525 114.044C181.958 114.044 181.414 114.14 180.893 114.333C180.372 114.514 179.924 114.769 179.55 115.098L179.006 114.197C179.459 113.812 180.003 113.517 180.638 113.313C181.273 113.098 181.941 112.99 182.644 112.99ZM182.219 121.133C182.899 121.133 183.483 120.98 183.97 120.674C184.457 120.357 184.82 119.903 185.058 119.314V117.852H182.253C180.723 117.852 179.958 118.385 179.958 119.45C179.958 119.971 180.156 120.385 180.553 120.691C180.95 120.986 181.505 121.133 182.219 121.133ZM191.94 122.085C191.215 122.085 190.518 121.983 189.849 121.779C189.192 121.564 188.676 121.297 188.302 120.98L188.846 120.028C189.22 120.323 189.691 120.566 190.257 120.759C190.824 120.94 191.413 121.031 192.025 121.031C192.841 121.031 193.442 120.906 193.827 120.657C194.224 120.396 194.422 120.034 194.422 119.569C194.422 119.24 194.315 118.985 194.099 118.804C193.884 118.611 193.612 118.47 193.283 118.379C192.955 118.277 192.518 118.181 191.974 118.09C191.249 117.954 190.665 117.818 190.223 117.682C189.781 117.535 189.402 117.291 189.084 116.951C188.778 116.611 188.625 116.141 188.625 115.54C188.625 114.792 188.937 114.18 189.56 113.704C190.184 113.228 191.051 112.99 192.161 112.99C192.739 112.99 193.317 113.069 193.895 113.228C194.473 113.375 194.949 113.574 195.323 113.823L194.796 114.792C194.06 114.282 193.181 114.027 192.161 114.027C191.391 114.027 190.807 114.163 190.41 114.435C190.025 114.707 189.832 115.064 189.832 115.506C189.832 115.846 189.94 116.118 190.155 116.322C190.382 116.526 190.66 116.679 190.988 116.781C191.317 116.872 191.77 116.968 192.348 117.07C193.062 117.206 193.635 117.342 194.065 117.478C194.496 117.614 194.864 117.846 195.17 118.175C195.476 118.504 195.629 118.957 195.629 119.535C195.629 120.317 195.301 120.94 194.643 121.405C193.997 121.858 193.096 122.085 191.94 122.085ZM205.647 117.903H198.167C198.235 118.832 198.592 119.586 199.238 120.164C199.884 120.731 200.7 121.014 201.686 121.014C202.241 121.014 202.751 120.918 203.216 120.725C203.68 120.521 204.083 120.226 204.423 119.841L205.103 120.623C204.706 121.099 204.207 121.462 203.607 121.711C203.017 121.96 202.366 122.085 201.652 122.085C200.734 122.085 199.918 121.892 199.204 121.507C198.501 121.11 197.951 120.566 197.555 119.875C197.158 119.184 196.96 118.402 196.96 117.529C196.96 116.656 197.147 115.874 197.521 115.183C197.906 114.492 198.427 113.953 199.085 113.568C199.753 113.183 200.501 112.99 201.329 112.99C202.156 112.99 202.898 113.183 203.556 113.568C204.213 113.953 204.729 114.492 205.103 115.183C205.477 115.863 205.664 116.645 205.664 117.529L205.647 117.903ZM201.329 114.027C200.467 114.027 199.742 114.305 199.153 114.86C198.575 115.404 198.246 116.118 198.167 117.002H204.508C204.428 116.118 204.094 115.404 203.505 114.86C202.927 114.305 202.201 114.027 201.329 114.027ZM210.518 122.085C209.792 122.085 209.095 121.983 208.427 121.779C207.769 121.564 207.254 121.297 206.88 120.98L207.424 120.028C207.798 120.323 208.268 120.566 208.835 120.759C209.401 120.94 209.991 121.031 210.603 121.031C211.419 121.031 212.019 120.906 212.405 120.657C212.801 120.396 213 120.034 213 119.569C213 119.24 212.892 118.985 212.677 118.804C212.461 118.611 212.189 118.47 211.861 118.379C211.532 118.277 211.096 118.181 210.552 118.09C209.826 117.954 209.243 117.818 208.801 117.682C208.359 117.535 207.979 117.291 207.662 116.951C207.356 116.611 207.203 116.141 207.203 115.54C207.203 114.792 207.514 114.18 208.138 113.704C208.761 113.228 209.628 112.99 210.739 112.99C211.317 112.99 211.895 113.069 212.473 113.228C213.051 113.375 213.527 113.574 213.901 113.823L213.374 114.792C212.637 114.282 211.759 114.027 210.739 114.027C209.968 114.027 209.384 114.163 208.988 114.435C208.602 114.707 208.41 115.064 208.41 115.506C208.41 115.846 208.517 116.118 208.733 116.322C208.959 116.526 209.237 116.679 209.566 116.781C209.894 116.872 210.348 116.968 210.925 117.07C211.64 117.206 212.212 117.342 212.643 117.478C213.073 117.614 213.442 117.846 213.748 118.175C214.054 118.504 214.207 118.957 214.207 119.535C214.207 120.317 213.878 120.94 213.221 121.405C212.575 121.858 211.674 122.085 210.518 122.085ZM225.494 112.99C226.333 112.99 227.092 113.183 227.772 113.568C228.452 113.942 228.985 114.475 229.37 115.166C229.755 115.857 229.948 116.645 229.948 117.529C229.948 118.413 229.755 119.201 229.37 119.892C228.985 120.583 228.452 121.122 227.772 121.507C227.092 121.892 226.333 122.085 225.494 122.085C224.746 122.085 224.072 121.926 223.471 121.609C222.882 121.292 222.406 120.833 222.043 120.232V122H220.887V109.386H222.094V114.758C222.468 114.18 222.944 113.744 223.522 113.449C224.111 113.143 224.769 112.99 225.494 112.99ZM225.409 121.014C226.032 121.014 226.599 120.872 227.109 120.589C227.619 120.294 228.016 119.881 228.299 119.348C228.594 118.815 228.741 118.209 228.741 117.529C228.741 116.849 228.594 116.243 228.299 115.71C228.016 115.177 227.619 114.769 227.109 114.486C226.599 114.191 226.032 114.044 225.409 114.044C224.774 114.044 224.202 114.191 223.692 114.486C223.193 114.769 222.797 115.177 222.502 115.71C222.219 116.243 222.077 116.849 222.077 117.529C222.077 118.209 222.219 118.815 222.502 119.348C222.797 119.881 223.193 120.294 223.692 120.589C224.202 120.872 224.774 121.014 225.409 121.014ZM239.674 113.058L235.203 123.071C234.84 123.91 234.421 124.505 233.945 124.856C233.469 125.207 232.896 125.383 232.228 125.383C231.797 125.383 231.395 125.315 231.021 125.179C230.647 125.043 230.324 124.839 230.052 124.567L230.613 123.666C231.066 124.119 231.61 124.346 232.245 124.346C232.653 124.346 232.998 124.233 233.282 124.006C233.576 123.779 233.848 123.394 234.098 122.85L234.489 121.983L230.494 113.058H231.752L235.118 120.657L238.484 113.058H239.674ZM253.983 109.386V122H252.827V120.232C252.464 120.833 251.982 121.292 251.382 121.609C250.792 121.926 250.124 122.085 249.376 122.085C248.537 122.085 247.778 121.892 247.098 121.507C246.418 121.122 245.885 120.583 245.5 119.892C245.114 119.201 244.922 118.413 244.922 117.529C244.922 116.645 245.114 115.857 245.5 115.166C245.885 114.475 246.418 113.942 247.098 113.568C247.778 113.183 248.537 112.99 249.376 112.99C250.101 112.99 250.753 113.143 251.331 113.449C251.92 113.744 252.402 114.18 252.776 114.758V109.386H253.983ZM249.478 121.014C250.101 121.014 250.662 120.872 251.161 120.589C251.671 120.294 252.067 119.881 252.351 119.348C252.645 118.815 252.793 118.209 252.793 117.529C252.793 116.849 252.645 116.243 252.351 115.71C252.067 115.177 251.671 114.769 251.161 114.486C250.662 114.191 250.101 114.044 249.478 114.044C248.843 114.044 248.271 114.191 247.761 114.486C247.262 114.769 246.865 115.177 246.571 115.71C246.287 116.243 246.146 116.849 246.146 117.529C246.146 118.209 246.287 118.815 246.571 119.348C246.865 119.881 247.262 120.294 247.761 120.589C248.271 120.872 248.843 121.014 249.478 121.014ZM260.472 112.99C261.639 112.99 262.535 113.285 263.158 113.874C263.781 114.452 264.093 115.313 264.093 116.458V122H262.937V120.606C262.665 121.071 262.263 121.433 261.73 121.694C261.209 121.955 260.585 122.085 259.86 122.085C258.863 122.085 258.069 121.847 257.48 121.371C256.891 120.895 256.596 120.266 256.596 119.484C256.596 118.725 256.868 118.113 257.412 117.648C257.967 117.183 258.846 116.951 260.047 116.951H262.886V116.407C262.886 115.636 262.671 115.053 262.24 114.656C261.809 114.248 261.18 114.044 260.353 114.044C259.786 114.044 259.242 114.14 258.721 114.333C258.2 114.514 257.752 114.769 257.378 115.098L256.834 114.197C257.287 113.812 257.831 113.517 258.466 113.313C259.101 113.098 259.769 112.99 260.472 112.99ZM260.047 121.133C260.727 121.133 261.311 120.98 261.798 120.674C262.285 120.357 262.648 119.903 262.886 119.314V117.852H260.081C258.551 117.852 257.786 118.385 257.786 119.45C257.786 119.971 257.984 120.385 258.381 120.691C258.778 120.986 259.333 121.133 260.047 121.133ZM274.719 113.058L270.248 123.071C269.886 123.91 269.466 124.505 268.99 124.856C268.514 125.207 267.942 125.383 267.273 125.383C266.843 125.383 266.44 125.315 266.066 125.179C265.692 125.043 265.369 124.839 265.097 124.567L265.658 123.666C266.112 124.119 266.656 124.346 267.29 124.346C267.698 124.346 268.044 124.233 268.327 124.006C268.622 123.779 268.894 123.394 269.143 122.85L269.534 121.983L265.539 113.058H266.797L270.163 120.657L273.529 113.058H274.719Z" fill="white"/>
<path d="M763.883 129.1V141H762.846L755.196 131.344V141H753.938V129.1H754.975L762.642 138.756V129.1H763.883ZM775.298 136.903H767.818C767.886 137.832 768.243 138.586 768.889 139.164C769.535 139.731 770.351 140.014 771.337 140.014C771.892 140.014 772.402 139.918 772.867 139.725C773.332 139.521 773.734 139.226 774.074 138.841L774.754 139.623C774.357 140.099 773.859 140.462 773.258 140.711C772.669 140.96 772.017 141.085 771.303 141.085C770.385 141.085 769.569 140.892 768.855 140.507C768.152 140.11 767.603 139.566 767.206 138.875C766.809 138.184 766.611 137.402 766.611 136.529C766.611 135.656 766.798 134.874 767.172 134.183C767.557 133.492 768.079 132.953 768.736 132.568C769.405 132.183 770.153 131.99 770.98 131.99C771.807 131.99 772.55 132.183 773.207 132.568C773.864 132.953 774.38 133.492 774.754 134.183C775.128 134.863 775.315 135.645 775.315 136.529L775.298 136.903ZM770.98 133.027C770.119 133.027 769.393 133.305 768.804 133.86C768.226 134.404 767.897 135.118 767.818 136.002H774.159C774.08 135.118 773.745 134.404 773.156 133.86C772.578 133.305 771.853 133.027 770.98 133.027ZM790.73 132.058L787.347 141H786.208L783.386 133.673L780.564 141H779.425L776.059 132.058H777.215L780.02 139.657L782.893 132.058H783.93L786.786 139.657L789.625 132.058H790.73ZM798.152 133.809C798.436 133.208 798.855 132.755 799.41 132.449C799.977 132.143 800.674 131.99 801.501 131.99V133.163L801.212 133.146C800.272 133.146 799.535 133.435 799.002 134.013C798.47 134.591 798.203 135.401 798.203 136.444V141H796.996V132.058H798.152V133.809ZM811.39 136.903H803.91C803.978 137.832 804.335 138.586 804.981 139.164C805.627 139.731 806.443 140.014 807.429 140.014C807.984 140.014 808.494 139.918 808.959 139.725C809.424 139.521 809.826 139.226 810.166 138.841L810.846 139.623C810.449 140.099 809.951 140.462 809.35 140.711C808.761 140.96 808.109 141.085 807.395 141.085C806.477 141.085 805.661 140.892 804.947 140.507C804.244 140.11 803.695 139.566 803.298 138.875C802.901 138.184 802.703 137.402 802.703 136.529C802.703 135.656 802.89 134.874 803.264 134.183C803.649 133.492 804.171 132.953 804.828 132.568C805.497 132.183 806.245 131.99 807.072 131.99C807.899 131.99 808.642 132.183 809.299 132.568C809.956 132.953 810.472 133.492 810.846 134.183C811.22 134.863 811.407 135.645 811.407 136.529L811.39 136.903ZM807.072 133.027C806.211 133.027 805.485 133.305 804.896 133.86C804.318 134.404 803.989 135.118 803.91 136.002H810.251C810.172 135.118 809.837 134.404 809.248 133.86C808.67 133.305 807.945 133.027 807.072 133.027ZM818.471 131.99C819.309 131.99 820.069 132.183 820.749 132.568C821.429 132.942 821.961 133.475 822.347 134.166C822.732 134.857 822.925 135.645 822.925 136.529C822.925 137.424 822.732 138.218 822.347 138.909C821.961 139.6 821.429 140.139 820.749 140.524C820.08 140.898 819.321 141.085 818.471 141.085C817.745 141.085 817.088 140.938 816.499 140.643C815.921 140.337 815.445 139.895 815.071 139.317V144.298H813.864V132.058H815.02V133.826C815.382 133.237 815.858 132.783 816.448 132.466C817.048 132.149 817.723 131.99 818.471 131.99ZM818.386 140.014C819.009 140.014 819.576 139.872 820.086 139.589C820.596 139.294 820.992 138.881 821.276 138.348C821.57 137.815 821.718 137.209 821.718 136.529C821.718 135.849 821.57 135.248 821.276 134.727C820.992 134.194 820.596 133.781 820.086 133.486C819.576 133.191 819.009 133.044 818.386 133.044C817.751 133.044 817.179 133.191 816.669 133.486C816.17 133.781 815.773 134.194 815.479 134.727C815.195 135.248 815.054 135.849 815.054 136.529C815.054 137.209 815.195 137.815 815.479 138.348C815.773 138.881 816.17 139.294 816.669 139.589C817.179 139.872 817.751 140.014 818.386 140.014ZM829.04 141.085C828.179 141.085 827.402 140.892 826.711 140.507C826.02 140.11 825.476 139.566 825.079 138.875C824.682 138.184 824.484 137.402 824.484 136.529C824.484 135.656 824.682 134.874 825.079 134.183C825.476 133.492 826.02 132.953 826.711 132.568C827.402 132.183 828.179 131.99 829.04 131.99C829.901 131.99 830.678 132.183 831.369 132.568C832.06 132.953 832.599 133.492 832.984 134.183C833.381 134.874 833.579 135.656 833.579 136.529C833.579 137.402 833.381 138.184 832.984 138.875C832.599 139.566 832.06 140.11 831.369 140.507C830.678 140.892 829.901 141.085 829.04 141.085ZM829.04 140.014C829.675 140.014 830.241 139.872 830.74 139.589C831.25 139.294 831.647 138.881 831.93 138.348C832.213 137.815 832.355 137.209 832.355 136.529C832.355 135.849 832.213 135.243 831.93 134.71C831.647 134.177 831.25 133.769 830.74 133.486C830.241 133.191 829.675 133.044 829.04 133.044C828.405 133.044 827.833 133.191 827.323 133.486C826.824 133.769 826.428 134.177 826.133 134.71C825.85 135.243 825.708 135.849 825.708 136.529C825.708 137.209 825.85 137.815 826.133 138.348C826.428 138.881 826.824 139.294 827.323 139.589C827.833 139.872 828.405 140.014 829.04 140.014ZM837.199 133.809C837.483 133.208 837.902 132.755 838.457 132.449C839.024 132.143 839.721 131.99 840.548 131.99V133.163L840.259 133.146C839.319 133.146 838.582 133.435 838.049 134.013C837.517 134.591 837.25 135.401 837.25 136.444V141H836.043V132.058H837.199V133.809ZM847.825 140.456C847.598 140.66 847.315 140.819 846.975 140.932C846.646 141.034 846.3 141.085 845.938 141.085C845.099 141.085 844.453 140.858 844 140.405C843.546 139.952 843.32 139.311 843.32 138.484V133.078H841.722V132.058H843.32V130.103H844.527V132.058H847.247V133.078H844.527V138.416C844.527 138.949 844.657 139.357 844.918 139.64C845.19 139.912 845.575 140.048 846.074 140.048C846.323 140.048 846.561 140.008 846.788 139.929C847.026 139.85 847.23 139.736 847.4 139.589L847.825 140.456ZM857.492 136.903H850.012C850.08 137.832 850.437 138.586 851.083 139.164C851.729 139.731 852.545 140.014 853.531 140.014C854.087 140.014 854.597 139.918 855.061 139.725C855.526 139.521 855.928 139.226 856.268 138.841L856.948 139.623C856.552 140.099 856.053 140.462 855.452 140.711C854.863 140.96 854.211 141.085 853.497 141.085C852.579 141.085 851.763 140.892 851.049 140.507C850.347 140.11 849.797 139.566 849.4 138.875C849.004 138.184 848.805 137.402 848.805 136.529C848.805 135.656 848.992 134.874 849.366 134.183C849.752 133.492 850.273 132.953 850.93 132.568C851.599 132.183 852.347 131.99 853.174 131.99C854.002 131.99 854.744 132.183 855.401 132.568C856.059 132.953 856.574 133.492 856.948 134.183C857.322 134.863 857.509 135.645 857.509 136.529L857.492 136.903ZM853.174 133.027C852.313 133.027 851.588 133.305 850.998 133.86C850.42 134.404 850.092 135.118 850.012 136.002H856.353C856.274 135.118 855.94 134.404 855.35 133.86C854.772 133.305 854.047 133.027 853.174 133.027ZM868.126 128.386V141H866.97V139.232C866.608 139.833 866.126 140.292 865.525 140.609C864.936 140.926 864.267 141.085 863.519 141.085C862.681 141.085 861.921 140.892 861.241 140.507C860.561 140.122 860.029 139.583 859.643 138.892C859.258 138.201 859.065 137.413 859.065 136.529C859.065 135.645 859.258 134.857 859.643 134.166C860.029 133.475 860.561 132.942 861.241 132.568C861.921 132.183 862.681 131.99 863.519 131.99C864.245 131.99 864.896 132.143 865.474 132.449C866.064 132.744 866.545 133.18 866.919 133.758V128.386H868.126ZM863.621 140.014C864.245 140.014 864.806 139.872 865.304 139.589C865.814 139.294 866.211 138.881 866.494 138.348C866.789 137.815 866.936 137.209 866.936 136.529C866.936 135.849 866.789 135.243 866.494 134.71C866.211 134.177 865.814 133.769 865.304 133.486C864.806 133.191 864.245 133.044 863.621 133.044C862.987 133.044 862.414 133.191 861.904 133.486C861.406 133.769 861.009 134.177 860.714 134.71C860.431 135.243 860.289 135.849 860.289 136.529C860.289 137.209 860.431 137.815 860.714 138.348C861.009 138.881 861.406 139.294 861.904 139.589C862.414 139.872 862.987 140.014 863.621 140.014ZM884.097 128.386V141H882.941V139.232C882.578 139.833 882.097 140.292 881.496 140.609C880.907 140.926 880.238 141.085 879.49 141.085C878.651 141.085 877.892 140.892 877.212 140.507C876.532 140.122 875.999 139.583 875.614 138.892C875.229 138.201 875.036 137.413 875.036 136.529C875.036 135.645 875.229 134.857 875.614 134.166C875.999 133.475 876.532 132.942 877.212 132.568C877.892 132.183 878.651 131.99 879.49 131.99C880.215 131.99 880.867 132.143 881.445 132.449C882.034 132.744 882.516 133.18 882.89 133.758V128.386H884.097ZM879.592 140.014C880.215 140.014 880.776 139.872 881.275 139.589C881.785 139.294 882.182 138.881 882.465 138.348C882.76 137.815 882.907 137.209 882.907 136.529C882.907 135.849 882.76 135.243 882.465 134.71C882.182 134.177 881.785 133.769 881.275 133.486C880.776 133.191 880.215 133.044 879.592 133.044C878.957 133.044 878.385 133.191 877.875 133.486C877.376 133.769 876.98 134.177 876.685 134.71C876.402 135.243 876.26 135.849 876.26 136.529C876.26 137.209 876.402 137.815 876.685 138.348C876.98 138.881 877.376 139.294 877.875 139.589C878.385 139.872 878.957 140.014 879.592 140.014ZM895.244 136.903H887.764C887.832 137.832 888.189 138.586 888.835 139.164C889.481 139.731 890.297 140.014 891.283 140.014C891.839 140.014 892.349 139.918 892.813 139.725C893.278 139.521 893.68 139.226 894.02 138.841L894.7 139.623C894.304 140.099 893.805 140.462 893.204 140.711C892.615 140.96 891.963 141.085 891.249 141.085C890.331 141.085 889.515 140.892 888.801 140.507C888.099 140.11 887.549 139.566 887.152 138.875C886.756 138.184 886.557 137.402 886.557 136.529C886.557 135.656 886.744 134.874 887.118 134.183C887.504 133.492 888.025 132.953 888.682 132.568C889.351 132.183 890.099 131.99 890.926 131.99C891.754 131.99 892.496 132.183 893.153 132.568C893.811 132.953 894.326 133.492 894.7 134.183C895.074 134.863 895.261 135.645 895.261 136.529L895.244 136.903ZM890.926 133.027C890.065 133.027 889.34 133.305 888.75 133.86C888.172 134.404 887.844 135.118 887.764 136.002H894.105C894.026 135.118 893.692 134.404 893.102 133.86C892.524 133.305 891.799 133.027 890.926 133.027ZM900.597 131.99C901.764 131.99 902.66 132.285 903.283 132.874C903.906 133.452 904.218 134.313 904.218 135.458V141H903.062V139.606C902.79 140.071 902.388 140.433 901.855 140.694C901.334 140.955 900.71 141.085 899.985 141.085C898.988 141.085 898.194 140.847 897.605 140.371C897.016 139.895 896.721 139.266 896.721 138.484C896.721 137.725 896.993 137.113 897.537 136.648C898.092 136.183 898.971 135.951 900.172 135.951H903.011V135.407C903.011 134.636 902.796 134.053 902.365 133.656C901.934 133.248 901.305 133.044 900.478 133.044C899.911 133.044 899.367 133.14 898.846 133.333C898.325 133.514 897.877 133.769 897.503 134.098L896.959 133.197C897.412 132.812 897.956 132.517 898.591 132.313C899.226 132.098 899.894 131.99 900.597 131.99ZM900.172 140.133C900.852 140.133 901.436 139.98 901.923 139.674C902.41 139.357 902.773 138.903 903.011 138.314V136.852H900.206C898.676 136.852 897.911 137.385 897.911 138.45C897.911 138.971 898.109 139.385 898.506 139.691C898.903 139.986 899.458 140.133 900.172 140.133ZM912.205 140.456C911.979 140.66 911.695 140.819 911.355 140.932C911.027 141.034 910.681 141.085 910.318 141.085C909.48 141.085 908.834 140.858 908.38 140.405C907.927 139.952 907.7 139.311 907.7 138.484V133.078H906.102V132.058H907.7V130.103H908.907V132.058H911.627V133.078H908.907V138.416C908.907 138.949 909.038 139.357 909.298 139.64C909.57 139.912 909.956 140.048 910.454 140.048C910.704 140.048 910.942 140.008 911.168 139.929C911.406 139.85 911.61 139.736 911.78 139.589L912.205 140.456ZM918.959 131.99C920.081 131.99 920.97 132.319 921.628 132.976C922.296 133.622 922.631 134.568 922.631 135.815V141H921.424V135.934C921.424 135.005 921.191 134.296 920.727 133.809C920.262 133.322 919.599 133.078 918.738 133.078C917.774 133.078 917.009 133.367 916.443 133.945C915.887 134.512 915.61 135.299 915.61 136.308V141H914.403V128.386H915.61V133.622C915.938 133.101 916.392 132.698 916.97 132.415C917.548 132.132 918.211 131.99 918.959 131.99ZM934.964 131.99C935.802 131.99 936.562 132.183 937.242 132.568C937.922 132.942 938.454 133.475 938.84 134.166C939.225 134.857 939.418 135.645 939.418 136.529C939.418 137.413 939.225 138.201 938.84 138.892C938.454 139.583 937.922 140.122 937.242 140.507C936.562 140.892 935.802 141.085 934.964 141.085C934.216 141.085 933.541 140.926 932.941 140.609C932.351 140.292 931.875 139.833 931.513 139.232V141H930.357V128.386H931.564V133.758C931.938 133.18 932.414 132.744 932.992 132.449C933.581 132.143 934.238 131.99 934.964 131.99ZM934.879 140.014C935.502 140.014 936.069 139.872 936.579 139.589C937.089 139.294 937.485 138.881 937.769 138.348C938.063 137.815 938.211 137.209 938.211 136.529C938.211 135.849 938.063 135.243 937.769 134.71C937.485 134.177 937.089 133.769 936.579 133.486C936.069 133.191 935.502 133.044 934.879 133.044C934.244 133.044 933.672 133.191 933.162 133.486C932.663 133.769 932.266 134.177 931.972 134.71C931.688 135.243 931.547 135.849 931.547 136.529C931.547 137.209 931.688 137.815 931.972 138.348C932.266 138.881 932.663 139.294 933.162 139.589C933.672 139.872 934.244 140.014 934.879 140.014ZM949.143 132.058L944.672 142.071C944.31 142.91 943.89 143.505 943.414 143.856C942.938 144.207 942.366 144.383 941.697 144.383C941.267 144.383 940.864 144.315 940.49 144.179C940.116 144.043 939.793 143.839 939.521 143.567L940.082 142.666C940.536 143.119 941.08 143.346 941.714 143.346C942.122 143.346 942.468 143.233 942.751 143.006C943.046 142.779 943.318 142.394 943.567 141.85L943.958 140.983L939.963 132.058H941.221L944.587 139.657L947.953 132.058H949.143ZM963.452 128.386V141H962.296V139.232C961.934 139.833 961.452 140.292 960.851 140.609C960.262 140.926 959.593 141.085 958.845 141.085C958.007 141.085 957.247 140.892 956.567 140.507C955.887 140.122 955.355 139.583 954.969 138.892C954.584 138.201 954.391 137.413 954.391 136.529C954.391 135.645 954.584 134.857 954.969 134.166C955.355 133.475 955.887 132.942 956.567 132.568C957.247 132.183 958.007 131.99 958.845 131.99C959.571 131.99 960.222 132.143 960.8 132.449C961.39 132.744 961.871 133.18 962.245 133.758V128.386H963.452ZM958.947 140.014C959.571 140.014 960.132 139.872 960.63 139.589C961.14 139.294 961.537 138.881 961.82 138.348C962.115 137.815 962.262 137.209 962.262 136.529C962.262 135.849 962.115 135.243 961.82 134.71C961.537 134.177 961.14 133.769 960.63 133.486C960.132 133.191 959.571 133.044 958.947 133.044C958.313 133.044 957.74 133.191 957.23 133.486C956.732 133.769 956.335 134.177 956.04 134.71C955.757 135.243 955.615 135.849 955.615 136.529C955.615 137.209 955.757 137.815 956.04 138.348C956.335 138.881 956.732 139.294 957.23 139.589C957.74 139.872 958.313 140.014 958.947 140.014ZM969.942 131.99C971.109 131.99 972.005 132.285 972.628 132.874C973.251 133.452 973.563 134.313 973.563 135.458V141H972.407V139.606C972.135 140.071 971.733 140.433 971.2 140.694C970.679 140.955 970.055 141.085 969.33 141.085C968.333 141.085 967.539 140.847 966.95 140.371C966.361 139.895 966.066 139.266 966.066 138.484C966.066 137.725 966.338 137.113 966.882 136.648C967.437 136.183 968.316 135.951 969.517 135.951H972.356V135.407C972.356 134.636 972.141 134.053 971.71 133.656C971.279 133.248 970.65 133.044 969.823 133.044C969.256 133.044 968.712 133.14 968.191 133.333C967.67 133.514 967.222 133.769 966.848 134.098L966.304 133.197C966.757 132.812 967.301 132.517 967.936 132.313C968.571 132.098 969.239 131.99 969.942 131.99ZM969.517 140.133C970.197 140.133 970.781 139.98 971.268 139.674C971.755 139.357 972.118 138.903 972.356 138.314V136.852H969.551C968.021 136.852 967.256 137.385 967.256 138.45C967.256 138.971 967.454 139.385 967.851 139.691C968.248 139.986 968.803 140.133 969.517 140.133ZM984.189 132.058L979.718 142.071C979.356 142.91 978.936 143.505 978.46 143.856C977.984 144.207 977.412 144.383 976.743 144.383C976.313 144.383 975.91 144.315 975.536 144.179C975.162 144.043 974.839 143.839 974.567 143.567L975.128 142.666C975.582 143.119 976.126 143.346 976.76 143.346C977.168 143.346 977.514 143.233 977.797 143.006C978.092 142.779 978.364 142.394 978.613 141.85L979.004 140.983L975.009 132.058H976.267L979.633 139.657L982.999 132.058H984.189Z" fill="white"/>
</g>
<defs>
<clipPath id="clip0_58:140">
<rect width="1205" height="406" rx="46" fill="white"/>
</clipPath>
</defs>
</svg>
