<svg width="200" height="110" viewBox="0 0 200 110" fill="none" xmlns="http://www.w3.org/2000/svg">
<path d="M20 17.1591C22.5682 17.1591 24.0455 14.983 24.0455 11.1818C24.0455 7.40909 22.5455 5.20455 20 5.20455C17.4545 5.20455 15.9545 7.40909 15.9545 11.1818C15.9545 14.983 17.4318 17.1591 20 17.1591ZM20 15.9091C18.3068 15.9091 17.3182 14.2102 17.3182 11.1818C17.3182 8.15909 18.3182 6.43182 20 6.43182C21.6818 6.43182 22.6818 8.15909 22.6818 11.1818C22.6818 14.2102 21.6932 15.9091 20 15.9091ZM35.2473 10.5568H30.1564V11.8068H35.2473V10.5568ZM45.6948 5.36364H44.2857L41.3766 7.29545V8.72727L44.2176 6.84091H44.2857V17H45.6948V5.36364ZM52.4378 17.1591C54.6537 17.1591 56.2787 15.5227 56.2787 13.2955C56.2787 11.0398 54.7105 9.38636 52.5741 9.38636C51.7901 9.38636 51.0287 9.66477 50.5514 10.0455H50.4832L50.8923 6.61364H55.756V5.36364H49.7105L49.006 11.0909L50.3241 11.25C50.8071 10.9034 51.631 10.6534 52.3469 10.6591C53.8298 10.6705 54.9151 11.7955 54.9151 13.3182C54.9151 14.8125 53.8696 15.9091 52.4378 15.9091C51.2446 15.9091 50.2957 15.142 50.1878 14.0909H48.8241C48.9094 15.8636 50.4378 17.1591 52.4378 17.1591ZM62.0913 17.1591C64.6594 17.1591 66.1367 14.983 66.1367 11.1818C66.1367 7.40909 64.6367 5.20455 62.0913 5.20455C59.5458 5.20455 58.0458 7.40909 58.0458 11.1818C58.0458 14.983 59.5231 17.1591 62.0913 17.1591ZM62.0913 15.9091C60.3981 15.9091 59.4094 14.2102 59.4094 11.1818C59.4094 8.15909 60.4094 6.43182 62.0913 6.43182C63.7731 6.43182 64.7731 8.15909 64.7731 11.1818C64.7731 14.2102 63.7844 15.9091 62.0913 15.9091ZM69.6723 15.4091H68.2177L68.1495 16.0455C67.9848 17.5852 67.6609 19.1193 67.5132 19.8409H68.5359C68.8086 19.0682 69.3882 17.3182 69.5814 16.0227L69.6723 15.4091ZM75.2831 17.1591C77.8513 17.1591 79.3286 14.983 79.3286 11.1818C79.3286 7.40909 77.8286 5.20455 75.2831 5.20455C72.7377 5.20455 71.2377 7.40909 71.2377 11.1818C71.2377 14.983 72.7149 17.1591 75.2831 17.1591ZM75.2831 15.9091C73.5899 15.9091 72.6013 14.2102 72.6013 11.1818C72.6013 8.15909 73.6013 6.43182 75.2831 6.43182C76.9649 6.43182 77.9649 8.15909 77.9649 11.1818C77.9649 14.2102 76.9763 15.9091 75.2831 15.9091ZM85.0431 17.1591C87.6113 17.1591 89.0886 14.983 89.0886 11.1818C89.0886 7.40909 87.5886 5.20455 85.0431 5.20455C82.4977 5.20455 80.9977 7.40909 80.9977 11.1818C80.9977 14.983 82.4749 17.1591 85.0431 17.1591ZM85.0431 15.9091C83.3499 15.9091 82.3613 14.2102 82.3613 11.1818C82.3613 8.15909 83.3613 6.43182 85.0431 6.43182C86.7249 6.43182 87.7249 8.15909 87.7249 11.1818C87.7249 14.2102 86.7363 15.9091 85.0431 15.9091ZM94.8031 17.1591C97.3713 17.1591 98.8486 14.983 98.8486 11.1818C98.8486 7.40909 97.3486 5.20455 94.8031 5.20455C92.2577 5.20455 90.7577 7.40909 90.7577 11.1818C90.7577 14.983 92.2349 17.1591 94.8031 17.1591ZM94.8031 15.9091C93.1099 15.9091 92.1213 14.2102 92.1213 11.1818C92.1213 8.15909 93.1213 6.43182 94.8031 6.43182C96.4849 6.43182 97.4849 8.15909 97.4849 11.1818C97.4849 14.2102 96.4963 15.9091 94.8031 15.9091ZM108.596 17.1818C110.528 17.1818 111.8 16 112.028 14.4545H110.687C110.437 15.4091 109.641 15.9773 108.596 15.9773C107.005 15.9773 105.982 14.6591 105.982 12.6364C105.982 10.6591 107.028 9.36364 108.596 9.36364C109.778 9.36364 110.482 10.0909 110.687 10.8864H112.028C111.8 9.25 110.414 8.15909 108.573 8.15909C106.209 8.15909 104.641 10.0227 104.641 12.6818C104.641 15.2955 106.141 17.1818 108.596 17.1818ZM116.316 17.2045C117.839 17.2045 118.634 16.3864 118.907 15.8182H118.975V17H120.316V11.25C120.316 8.47727 118.202 8.15909 117.089 8.15909C115.771 8.15909 114.271 8.61364 113.589 10.2045L114.862 10.6591C115.157 10.0227 115.856 9.34091 117.134 9.34091C118.367 9.34091 118.975 9.99432 118.975 11.1136V11.1591C118.975 11.8068 118.316 11.75 116.725 11.9545C115.106 12.1648 113.339 12.5227 113.339 14.5227C113.339 16.2273 114.657 17.2045 116.316 17.2045ZM116.521 16C115.452 16 114.68 15.5227 114.68 14.5909C114.68 13.5682 115.612 13.25 116.657 13.1136C117.225 13.0455 118.748 12.8864 118.975 12.6136V13.8409C118.975 14.9318 118.112 16 116.521 16ZM128.705 10.2273C128.285 8.98864 127.342 8.15909 125.614 8.15909C123.774 8.15909 122.41 9.20455 122.41 10.6818C122.41 11.8864 123.126 12.6932 124.728 13.0682L126.183 13.4091C127.063 13.6136 127.478 14.0341 127.478 14.6364C127.478 15.3864 126.683 16 125.433 16C124.336 16 123.649 15.5284 123.41 14.5909L122.137 14.9091C122.45 16.392 123.671 17.1818 125.455 17.1818C127.484 17.1818 128.864 16.0739 128.864 14.5682C128.864 13.3523 128.103 12.5852 126.546 12.2045L125.251 11.8864C124.217 11.6307 123.751 11.2841 123.751 10.6136C123.751 9.86364 124.546 9.31818 125.614 9.31818C126.785 9.31818 127.268 9.96591 127.501 10.5682L128.705 10.2273ZM134.302 17.1818C136.075 17.1818 137.37 16.2955 137.779 14.9773L136.484 14.6136C136.143 15.5227 135.353 15.9773 134.302 15.9773C132.728 15.9773 131.643 14.9602 131.58 13.0909H137.916V12.5227C137.916 9.27273 135.984 8.15909 134.166 8.15909C131.802 8.15909 130.234 10.0227 130.234 12.7045C130.234 15.3864 131.779 17.1818 134.302 17.1818ZM131.58 11.9318C131.671 10.5739 132.632 9.36364 134.166 9.36364C135.62 9.36364 136.552 10.4545 136.552 11.9318H131.58ZM145.897 10.2273C145.477 8.98864 144.534 8.15909 142.806 8.15909C140.965 8.15909 139.602 9.20455 139.602 10.6818C139.602 11.8864 140.318 12.6932 141.92 13.0682L143.374 13.4091C144.255 13.6136 144.67 14.0341 144.67 14.6364C144.67 15.3864 143.874 16 142.624 16C141.528 16 140.84 15.5284 140.602 14.5909L139.329 14.9091C139.642 16.392 140.863 17.1818 142.647 17.1818C144.676 17.1818 146.056 16.0739 146.056 14.5682C146.056 13.3523 145.295 12.5852 143.738 12.2045L142.443 11.8864C141.409 11.6307 140.943 11.2841 140.943 10.6136C140.943 9.86364 141.738 9.31818 142.806 9.31818C143.977 9.31818 144.46 9.96591 144.693 10.5682L145.897 10.2273Z" fill="white"/>
<rect y="3" width="5" height="17" rx="2.5" fill="#EFEFEF"/>
<path d="M20.2955 27.3636H18.8864L15.9773 29.2955V30.7273L18.8182 28.8409H18.8864V39H20.2955V27.3636ZM27.0384 39.1591C29.2543 39.1591 30.8793 37.5227 30.8793 35.2955C30.8793 33.0398 29.3111 31.3864 27.1748 31.3864C26.3907 31.3864 25.6293 31.6648 25.152 32.0455H25.0839L25.493 28.6136H30.3566V27.3636H24.3111L23.6066 33.0909L24.9248 33.25C25.4077 32.9034 26.2316 32.6534 26.9475 32.6591C28.4305 32.6705 29.5157 33.7955 29.5157 35.3182C29.5157 36.8125 28.4702 37.9091 27.0384 37.9091C25.8452 37.9091 24.8964 37.142 24.7884 36.0909H23.4248C23.51 37.8636 25.0384 39.1591 27.0384 39.1591ZM36.6919 39.1591C39.2601 39.1591 40.7373 36.983 40.7373 33.1818C40.7373 29.4091 39.2373 27.2045 36.6919 27.2045C34.1464 27.2045 32.6464 29.4091 32.6464 33.1818C32.6464 36.983 34.1237 39.1591 36.6919 39.1591ZM36.6919 37.9091C34.9987 37.9091 34.0101 36.2102 34.0101 33.1818C34.0101 30.1591 35.0101 28.4318 36.6919 28.4318C38.3737 28.4318 39.3737 30.1591 39.3737 33.1818C39.3737 36.2102 38.3851 37.9091 36.6919 37.9091ZM44.2729 37.4091H42.8184L42.7502 38.0455C42.5854 39.5852 42.2615 41.1193 42.1138 41.8409H43.1365C43.4093 41.0682 43.9888 39.3182 44.182 38.0227L44.2729 37.4091ZM49.8838 39.1591C52.4519 39.1591 53.9292 36.983 53.9292 33.1818C53.9292 29.4091 52.4292 27.2045 49.8838 27.2045C47.3383 27.2045 45.8383 29.4091 45.8383 33.1818C45.8383 36.983 47.3156 39.1591 49.8838 39.1591ZM49.8838 37.9091C48.1906 37.9091 47.2019 36.2102 47.2019 33.1818C47.2019 30.1591 48.2019 28.4318 49.8838 28.4318C51.5656 28.4318 52.5656 30.1591 52.5656 33.1818C52.5656 36.2102 51.5769 37.9091 49.8838 37.9091ZM59.6437 39.1591C62.2119 39.1591 63.6892 36.983 63.6892 33.1818C63.6892 29.4091 62.1892 27.2045 59.6437 27.2045C57.0983 27.2045 55.5983 29.4091 55.5983 33.1818C55.5983 36.983 57.0756 39.1591 59.6437 39.1591ZM59.6437 37.9091C57.9506 37.9091 56.9619 36.2102 56.9619 33.1818C56.9619 30.1591 57.9619 28.4318 59.6437 28.4318C61.3256 28.4318 62.3256 30.1591 62.3256 33.1818C62.3256 36.2102 61.3369 37.9091 59.6437 37.9091ZM69.4038 39.1591C71.9719 39.1591 73.4492 36.983 73.4492 33.1818C73.4492 29.4091 71.9492 27.2045 69.4038 27.2045C66.8583 27.2045 65.3583 29.4091 65.3583 33.1818C65.3583 36.983 66.8356 39.1591 69.4038 39.1591ZM69.4038 37.9091C67.7106 37.9091 66.7219 36.2102 66.7219 33.1818C66.7219 30.1591 67.7219 28.4318 69.4038 28.4318C71.0856 28.4318 72.0856 30.1591 72.0856 33.1818C72.0856 36.2102 71.0969 37.9091 69.4038 37.9091ZM84.651 32.5568H79.5601V33.8068H84.651V32.5568ZM91.0077 39H98.3486V37.75H92.9395V37.6591L95.5531 34.8636C97.5531 32.7216 98.144 31.7216 98.144 30.4318C98.144 28.6364 96.6895 27.2045 94.644 27.2045C92.6043 27.2045 91.0531 28.5909 91.0531 30.6364H92.394C92.394 29.3125 93.252 28.4318 94.5986 28.4318C95.8599 28.4318 96.8259 29.2045 96.8259 30.4318C96.8259 31.5057 96.1952 32.3011 94.8486 33.7727L91.0077 37.9773V39ZM104.092 39.1591C106.307 39.1591 107.932 37.5227 107.932 35.2955C107.932 33.0398 106.364 31.3864 104.228 31.3864C103.444 31.3864 102.682 31.6648 102.205 32.0455H102.137L102.546 28.6136H107.41V27.3636H101.364L100.66 33.0909L101.978 33.25C102.461 32.9034 103.285 32.6534 104.001 32.6591C105.484 32.6705 106.569 33.7955 106.569 35.3182C106.569 36.8125 105.523 37.9091 104.092 37.9091C102.898 37.9091 101.949 37.142 101.842 36.0909H100.478C100.563 37.8636 102.092 39.1591 104.092 39.1591ZM113.745 39.1591C116.313 39.1591 117.79 36.983 117.79 33.1818C117.79 29.4091 116.29 27.2045 113.745 27.2045C111.2 27.2045 109.7 29.4091 109.7 33.1818C109.7 36.983 111.177 39.1591 113.745 39.1591ZM113.745 37.9091C112.052 37.9091 111.063 36.2102 111.063 33.1818C111.063 30.1591 112.063 28.4318 113.745 28.4318C115.427 28.4318 116.427 30.1591 116.427 33.1818C116.427 36.2102 115.438 37.9091 113.745 37.9091ZM121.326 37.4091H119.871L119.803 38.0455C119.639 39.5852 119.315 41.1193 119.167 41.8409H120.19C120.462 41.0682 121.042 39.3182 121.235 38.0227L121.326 37.4091ZM126.937 39.1591C129.505 39.1591 130.982 36.983 130.982 33.1818C130.982 29.4091 129.482 27.2045 126.937 27.2045C124.391 27.2045 122.891 29.4091 122.891 33.1818C122.891 36.983 124.369 39.1591 126.937 39.1591ZM126.937 37.9091C125.244 37.9091 124.255 36.2102 124.255 33.1818C124.255 30.1591 125.255 28.4318 126.937 28.4318C128.619 28.4318 129.619 30.1591 129.619 33.1818C129.619 36.2102 128.63 37.9091 126.937 37.9091ZM136.697 39.1591C139.265 39.1591 140.742 36.983 140.742 33.1818C140.742 29.4091 139.242 27.2045 136.697 27.2045C134.151 27.2045 132.651 29.4091 132.651 33.1818C132.651 36.983 134.129 39.1591 136.697 39.1591ZM136.697 37.9091C135.004 37.9091 134.015 36.2102 134.015 33.1818C134.015 30.1591 135.015 28.4318 136.697 28.4318C138.379 28.4318 139.379 30.1591 139.379 33.1818C139.379 36.2102 138.39 37.9091 136.697 37.9091ZM146.457 39.1591C149.025 39.1591 150.502 36.983 150.502 33.1818C150.502 29.4091 149.002 27.2045 146.457 27.2045C143.911 27.2045 142.411 29.4091 142.411 33.1818C142.411 36.983 143.889 39.1591 146.457 39.1591ZM146.457 37.9091C144.764 37.9091 143.775 36.2102 143.775 33.1818C143.775 30.1591 144.775 28.4318 146.457 28.4318C148.139 28.4318 149.139 30.1591 149.139 33.1818C149.139 36.2102 148.15 37.9091 146.457 37.9091ZM160.25 39.1818C162.181 39.1818 163.454 38 163.681 36.4545H162.341C162.091 37.4091 161.295 37.9773 160.25 37.9773C158.659 37.9773 157.636 36.6591 157.636 34.6364C157.636 32.6591 158.681 31.3636 160.25 31.3636C161.431 31.3636 162.136 32.0909 162.341 32.8864H163.681C163.454 31.25 162.068 30.1591 160.227 30.1591C157.863 30.1591 156.295 32.0227 156.295 34.6818C156.295 37.2955 157.795 39.1818 160.25 39.1818ZM167.97 39.2045C169.493 39.2045 170.288 38.3864 170.561 37.8182H170.629V39H171.97V33.25C171.97 30.4773 169.856 30.1591 168.743 30.1591C167.424 30.1591 165.924 30.6136 165.243 32.2045L166.515 32.6591C166.811 32.0227 167.51 31.3409 168.788 31.3409C170.021 31.3409 170.629 31.9943 170.629 33.1136V33.1591C170.629 33.8068 169.97 33.75 168.379 33.9545C166.76 34.1648 164.993 34.5227 164.993 36.5227C164.993 38.2273 166.311 39.2045 167.97 39.2045ZM168.174 38C167.106 38 166.333 37.5227 166.333 36.5909C166.333 35.5682 167.265 35.25 168.311 35.1136C168.879 35.0455 170.402 34.8864 170.629 34.6136V35.8409C170.629 36.9318 169.765 38 168.174 38ZM180.359 32.2273C179.939 30.9886 178.995 30.1591 177.268 30.1591C175.427 30.1591 174.064 31.2045 174.064 32.6818C174.064 33.8864 174.78 34.6932 176.382 35.0682L177.836 35.4091C178.717 35.6136 179.132 36.0341 179.132 36.6364C179.132 37.3864 178.336 38 177.086 38C175.99 38 175.302 37.5284 175.064 36.5909L173.791 36.9091C174.103 38.392 175.325 39.1818 177.109 39.1818C179.137 39.1818 180.518 38.0739 180.518 36.5682C180.518 35.3523 179.757 34.5852 178.2 34.2045L176.905 33.8864C175.87 33.6307 175.405 33.2841 175.405 32.6136C175.405 31.8636 176.2 31.3182 177.268 31.3182C178.439 31.3182 178.922 31.9659 179.155 32.5682L180.359 32.2273ZM185.956 39.1818C187.728 39.1818 189.024 38.2955 189.433 36.9773L188.138 36.6136C187.797 37.5227 187.007 37.9773 185.956 37.9773C184.382 37.9773 183.297 36.9602 183.234 35.0909H189.569V34.5227C189.569 31.2727 187.638 30.1591 185.819 30.1591C183.456 30.1591 181.888 32.0227 181.888 34.7045C181.888 37.3864 183.433 39.1818 185.956 39.1818ZM183.234 33.9318C183.325 32.5739 184.285 31.3636 185.819 31.3636C187.274 31.3636 188.206 32.4545 188.206 33.9318H183.234ZM197.551 32.2273C197.131 30.9886 196.187 30.1591 194.46 30.1591C192.619 30.1591 191.256 31.2045 191.256 32.6818C191.256 33.8864 191.971 34.6932 193.574 35.0682L195.028 35.4091C195.909 35.6136 196.324 36.0341 196.324 36.6364C196.324 37.3864 195.528 38 194.278 38C193.182 38 192.494 37.5284 192.256 36.5909L190.983 36.9091C191.295 38.392 192.517 39.1818 194.301 39.1818C196.329 39.1818 197.71 38.0739 197.71 36.5682C197.71 35.3523 196.949 34.5852 195.392 34.2045L194.096 33.8864C193.062 33.6307 192.596 33.2841 192.596 32.6136C192.596 31.8636 193.392 31.3182 194.46 31.3182C195.631 31.3182 196.113 31.9659 196.346 32.5682L197.551 32.2273Z" fill="white"/>
<rect y="25" width="5" height="17" rx="2.5" fill="#EEBBB7"/>
<g clip-path="url(#clip0_53_444)">
<path d="M16.2045 61H23.5455V59.75H18.1364V59.6591L20.75 56.8636C22.75 54.7216 23.3409 53.7216 23.3409 52.4318C23.3409 50.6364 21.8864 49.2045 19.8409 49.2045C17.8011 49.2045 16.25 50.5909 16.25 52.6364H17.5909C17.5909 51.3125 18.4489 50.4318 19.7955 50.4318C21.0568 50.4318 22.0227 51.2045 22.0227 52.4318C22.0227 53.5057 21.392 54.3011 20.0455 55.7727L16.2045 59.9773V61ZM29.2884 61.1591C31.5043 61.1591 33.1293 59.5227 33.1293 57.2955C33.1293 55.0398 31.5611 53.3864 29.4248 53.3864C28.6407 53.3864 27.8793 53.6648 27.402 54.0455H27.3339L27.743 50.6136H32.6066V49.3636H26.5611L25.8566 55.0909L27.1748 55.25C27.6577 54.9034 28.4816 54.6534 29.1975 54.6591C30.6805 54.6705 31.7657 55.7955 31.7657 57.3182C31.7657 58.8125 30.7202 59.9091 29.2884 59.9091C28.0952 59.9091 27.1464 59.142 27.0384 58.0909H25.6748C25.76 59.8636 27.2884 61.1591 29.2884 61.1591ZM38.9419 61.1591C41.5101 61.1591 42.9873 58.983 42.9873 55.1818C42.9873 51.4091 41.4873 49.2045 38.9419 49.2045C36.3964 49.2045 34.8964 51.4091 34.8964 55.1818C34.8964 58.983 36.3737 61.1591 38.9419 61.1591ZM38.9419 59.9091C37.2487 59.9091 36.2601 58.2102 36.2601 55.1818C36.2601 52.1591 37.2601 50.4318 38.9419 50.4318C40.6237 50.4318 41.6237 52.1591 41.6237 55.1818C41.6237 58.2102 40.6351 59.9091 38.9419 59.9091ZM46.5229 59.4091H45.0684L45.0002 60.0455C44.8354 61.5852 44.5115 63.1193 44.3638 63.8409H45.3865C45.6593 63.0682 46.2388 61.3182 46.432 60.0227L46.5229 59.4091ZM52.1338 61.1591C54.7019 61.1591 56.1792 58.983 56.1792 55.1818C56.1792 51.4091 54.6792 49.2045 52.1338 49.2045C49.5883 49.2045 48.0883 51.4091 48.0883 55.1818C48.0883 58.983 49.5656 61.1591 52.1338 61.1591ZM52.1338 59.9091C50.4406 59.9091 49.4519 58.2102 49.4519 55.1818C49.4519 52.1591 50.4519 50.4318 52.1338 50.4318C53.8156 50.4318 54.8156 52.1591 54.8156 55.1818C54.8156 58.2102 53.8269 59.9091 52.1338 59.9091ZM61.8937 61.1591C64.4619 61.1591 65.9392 58.983 65.9392 55.1818C65.9392 51.4091 64.4392 49.2045 61.8937 49.2045C59.3483 49.2045 57.8483 51.4091 57.8483 55.1818C57.8483 58.983 59.3256 61.1591 61.8937 61.1591ZM61.8937 59.9091C60.2006 59.9091 59.2119 58.2102 59.2119 55.1818C59.2119 52.1591 60.2119 50.4318 61.8937 50.4318C63.5756 50.4318 64.5756 52.1591 64.5756 55.1818C64.5756 58.2102 63.5869 59.9091 61.8937 59.9091ZM71.6538 61.1591C74.2219 61.1591 75.6992 58.983 75.6992 55.1818C75.6992 51.4091 74.1992 49.2045 71.6538 49.2045C69.1083 49.2045 67.6083 51.4091 67.6083 55.1818C67.6083 58.983 69.0856 61.1591 71.6538 61.1591ZM71.6538 59.9091C69.9606 59.9091 68.9719 58.2102 68.9719 55.1818C68.9719 52.1591 69.9719 50.4318 71.6538 50.4318C73.3356 50.4318 74.3356 52.1591 74.3356 55.1818C74.3356 58.2102 73.3469 59.9091 71.6538 59.9091ZM86.901 54.5568H81.8101V55.8068H86.901V54.5568ZM96.894 61.1591C99.1099 61.1591 100.735 59.5227 100.735 57.2955C100.735 55.0398 99.1668 53.3864 97.0304 53.3864C96.2463 53.3864 95.4849 53.6648 95.0077 54.0455H94.9395L95.3486 50.6136H100.212V49.3636H94.1668L93.4622 55.0909L94.7804 55.25C95.2634 54.9034 96.0872 54.6534 96.8031 54.6591C98.2861 54.6705 99.3713 55.7955 99.3713 57.3182C99.3713 58.8125 98.3259 59.9091 96.894 59.9091C95.7009 59.9091 94.752 59.142 94.644 58.0909H93.2804C93.3656 59.8636 94.894 61.1591 96.894 61.1591ZM106.548 61.1591C109.116 61.1591 110.593 58.983 110.593 55.1818C110.593 51.4091 109.093 49.2045 106.548 49.2045C104.002 49.2045 102.502 51.4091 102.502 55.1818C102.502 58.983 103.979 61.1591 106.548 61.1591ZM106.548 59.9091C104.854 59.9091 103.866 58.2102 103.866 55.1818C103.866 52.1591 104.866 50.4318 106.548 50.4318C108.229 50.4318 109.229 52.1591 109.229 55.1818C109.229 58.2102 108.241 59.9091 106.548 59.9091ZM116.308 61.1591C118.876 61.1591 120.353 58.983 120.353 55.1818C120.353 51.4091 118.853 49.2045 116.308 49.2045C113.762 49.2045 112.262 51.4091 112.262 55.1818C112.262 58.983 113.739 61.1591 116.308 61.1591ZM116.308 59.9091C114.614 59.9091 113.626 58.2102 113.626 55.1818C113.626 52.1591 114.626 50.4318 116.308 50.4318C117.989 50.4318 118.989 52.1591 118.989 55.1818C118.989 58.2102 118.001 59.9091 116.308 59.9091ZM123.889 59.4091H122.434L122.366 60.0455C122.201 61.5852 121.877 63.1193 121.729 63.8409H122.752C123.025 63.0682 123.604 61.3182 123.798 60.0227L123.889 59.4091ZM129.499 61.1591C132.068 61.1591 133.545 58.983 133.545 55.1818C133.545 51.4091 132.045 49.2045 129.499 49.2045C126.954 49.2045 125.454 51.4091 125.454 55.1818C125.454 58.983 126.931 61.1591 129.499 61.1591ZM129.499 59.9091C127.806 59.9091 126.818 58.2102 126.818 55.1818C126.818 52.1591 127.818 50.4318 129.499 50.4318C131.181 50.4318 132.181 52.1591 132.181 55.1818C132.181 58.2102 131.193 59.9091 129.499 59.9091ZM139.259 61.1591C141.828 61.1591 143.305 58.983 143.305 55.1818C143.305 51.4091 141.805 49.2045 139.259 49.2045C136.714 49.2045 135.214 51.4091 135.214 55.1818C135.214 58.983 136.691 61.1591 139.259 61.1591ZM139.259 59.9091C137.566 59.9091 136.578 58.2102 136.578 55.1818C136.578 52.1591 137.578 50.4318 139.259 50.4318C140.941 50.4318 141.941 52.1591 141.941 55.1818C141.941 58.2102 140.953 59.9091 139.259 59.9091ZM149.019 61.1591C151.588 61.1591 153.065 58.983 153.065 55.1818C153.065 51.4091 151.565 49.2045 149.019 49.2045C146.474 49.2045 144.974 51.4091 144.974 55.1818C144.974 58.983 146.451 61.1591 149.019 61.1591ZM149.019 59.9091C147.326 59.9091 146.338 58.2102 146.338 55.1818C146.338 52.1591 147.338 50.4318 149.019 50.4318C150.701 50.4318 151.701 52.1591 151.701 55.1818C151.701 58.2102 150.713 59.9091 149.019 59.9091ZM162.812 61.1818C164.744 61.1818 166.017 60 166.244 58.4545H164.903C164.653 59.4091 163.858 59.9773 162.812 59.9773C161.221 59.9773 160.198 58.6591 160.198 56.6364C160.198 54.6591 161.244 53.3636 162.812 53.3636C163.994 53.3636 164.698 54.0909 164.903 54.8864H166.244C166.017 53.25 164.63 52.1591 162.789 52.1591C160.426 52.1591 158.858 54.0227 158.858 56.6818C158.858 59.2955 160.358 61.1818 162.812 61.1818ZM170.532 61.2045C172.055 61.2045 172.851 60.3864 173.123 59.8182H173.191V61H174.532V55.25C174.532 52.4773 172.419 52.1591 171.305 52.1591C169.987 52.1591 168.487 52.6136 167.805 54.2045L169.078 54.6591C169.373 54.0227 170.072 53.3409 171.351 53.3409C172.583 53.3409 173.191 53.9943 173.191 55.1136V55.1591C173.191 55.8068 172.532 55.75 170.941 55.9545C169.322 56.1648 167.555 56.5227 167.555 58.5227C167.555 60.2273 168.873 61.2045 170.532 61.2045ZM170.737 60C169.669 60 168.896 59.5227 168.896 58.5909C168.896 57.5682 169.828 57.25 170.873 57.1136C171.441 57.0455 172.964 56.8864 173.191 56.6136V57.8409C173.191 58.9318 172.328 60 170.737 60ZM182.922 54.2273C182.501 52.9886 181.558 52.1591 179.831 52.1591C177.99 52.1591 176.626 53.2045 176.626 54.6818C176.626 55.8864 177.342 56.6932 178.944 57.0682L180.399 57.4091C181.28 57.6136 181.694 58.0341 181.694 58.6364C181.694 59.3864 180.899 60 179.649 60C178.552 60 177.865 59.5284 177.626 58.5909L176.353 58.9091C176.666 60.392 177.887 61.1818 179.672 61.1818C181.7 61.1818 183.081 60.0739 183.081 58.5682C183.081 57.3523 182.319 56.5852 180.762 56.2045L179.467 55.8864C178.433 55.6307 177.967 55.2841 177.967 54.6136C177.967 53.8636 178.762 53.3182 179.831 53.3182C181.001 53.3182 181.484 53.9659 181.717 54.5682L182.922 54.2273ZM188.518 61.1818C190.291 61.1818 191.586 60.2955 191.996 58.9773L190.7 58.6136C190.359 59.5227 189.569 59.9773 188.518 59.9773C186.944 59.9773 185.859 58.9602 185.797 57.0909H192.132V56.5227C192.132 53.2727 190.2 52.1591 188.382 52.1591C186.018 52.1591 184.45 54.0227 184.45 56.7045C184.45 59.3864 185.996 61.1818 188.518 61.1818ZM185.797 55.9318C185.888 54.5739 186.848 53.3636 188.382 53.3636C189.836 53.3636 190.768 54.4545 190.768 55.9318H185.797ZM200.113 54.2273C199.693 52.9886 198.75 52.1591 197.023 52.1591C195.182 52.1591 193.818 53.2045 193.818 54.6818C193.818 55.8864 194.534 56.6932 196.136 57.0682L197.591 57.4091C198.471 57.6136 198.886 58.0341 198.886 58.6364C198.886 59.3864 198.091 60 196.841 60C195.744 60 195.057 59.5284 194.818 58.5909L193.545 58.9091C193.858 60.392 195.079 61.1818 196.863 61.1818C198.892 61.1818 200.273 60.0739 200.273 58.5682C200.273 57.3523 199.511 56.5852 197.954 56.2045L196.659 55.8864C195.625 55.6307 195.159 55.2841 195.159 54.6136C195.159 53.8636 195.954 53.3182 197.023 53.3182C198.193 53.3182 198.676 53.9659 198.909 54.5682L200.113 54.2273Z" fill="white"/>
<rect y="47" width="5" height="17" rx="2.5" fill="#EE857D"/>
</g>
<g clip-path="url(#clip1_53_444)">
<path d="M19.8409 83.1591C22.0568 83.1591 23.6818 81.5227 23.6818 79.2955C23.6818 77.0398 22.1136 75.3864 19.9773 75.3864C19.1932 75.3864 18.4318 75.6648 17.9545 76.0455H17.8864L18.2955 72.6136H23.1591V71.3636H17.1136L16.4091 77.0909L17.7273 77.25C18.2102 76.9034 19.0341 76.6534 19.75 76.6591C21.233 76.6705 22.3182 77.7955 22.3182 79.3182C22.3182 80.8125 21.2727 81.9091 19.8409 81.9091C18.6477 81.9091 17.6989 81.142 17.5909 80.0909H16.2273C16.3125 81.8636 17.8409 83.1591 19.8409 83.1591ZM29.4944 83.1591C32.0626 83.1591 33.5398 80.983 33.5398 77.1818C33.5398 73.4091 32.0398 71.2045 29.4944 71.2045C26.9489 71.2045 25.4489 73.4091 25.4489 77.1818C25.4489 80.983 26.9262 83.1591 29.4944 83.1591ZM29.4944 81.9091C27.8012 81.9091 26.8126 80.2102 26.8126 77.1818C26.8126 74.1591 27.8126 72.4318 29.4944 72.4318C31.1762 72.4318 32.1762 74.1591 32.1762 77.1818C32.1762 80.2102 31.1876 81.9091 29.4944 81.9091ZM39.2544 83.1591C41.8226 83.1591 43.2998 80.983 43.2998 77.1818C43.2998 73.4091 41.7998 71.2045 39.2544 71.2045C36.7089 71.2045 35.2089 73.4091 35.2089 77.1818C35.2089 80.983 36.6862 83.1591 39.2544 83.1591ZM39.2544 81.9091C37.5612 81.9091 36.5726 80.2102 36.5726 77.1818C36.5726 74.1591 37.5726 72.4318 39.2544 72.4318C40.9362 72.4318 41.9362 74.1591 41.9362 77.1818C41.9362 80.2102 40.9476 81.9091 39.2544 81.9091ZM46.8354 81.4091H45.3809L45.3127 82.0455C45.1479 83.5852 44.824 85.1193 44.6763 85.8409H45.699C45.9718 85.0682 46.5513 83.3182 46.7445 82.0227L46.8354 81.4091ZM52.4463 83.1591C55.0144 83.1591 56.4917 80.983 56.4917 77.1818C56.4917 73.4091 54.9917 71.2045 52.4463 71.2045C49.9008 71.2045 48.4008 73.4091 48.4008 77.1818C48.4008 80.983 49.8781 83.1591 52.4463 83.1591ZM52.4463 81.9091C50.7531 81.9091 49.7644 80.2102 49.7644 77.1818C49.7644 74.1591 50.7644 72.4318 52.4463 72.4318C54.1281 72.4318 55.1281 74.1591 55.1281 77.1818C55.1281 80.2102 54.1394 81.9091 52.4463 81.9091ZM62.2062 83.1591C64.7744 83.1591 66.2517 80.983 66.2517 77.1818C66.2517 73.4091 64.7517 71.2045 62.2062 71.2045C59.6608 71.2045 58.1608 73.4091 58.1608 77.1818C58.1608 80.983 59.6381 83.1591 62.2062 83.1591ZM62.2062 81.9091C60.5131 81.9091 59.5244 80.2102 59.5244 77.1818C59.5244 74.1591 60.5244 72.4318 62.2062 72.4318C63.8881 72.4318 64.8881 74.1591 64.8881 77.1818C64.8881 80.2102 63.8994 81.9091 62.2062 81.9091ZM71.9663 83.1591C74.5344 83.1591 76.0117 80.983 76.0117 77.1818C76.0117 73.4091 74.5117 71.2045 71.9663 71.2045C69.4208 71.2045 67.9208 73.4091 67.9208 77.1818C67.9208 80.983 69.3981 83.1591 71.9663 83.1591ZM71.9663 81.9091C70.2731 81.9091 69.2844 80.2102 69.2844 77.1818C69.2844 74.1591 70.2844 72.4318 71.9663 72.4318C73.6481 72.4318 74.6481 74.1591 74.6481 77.1818C74.6481 80.2102 73.6594 81.9091 71.9663 81.9091ZM87.2135 76.5568H82.1226V77.8068H87.2135V76.5568ZM97.2974 83.1591C99.6213 83.1591 101.241 81.8011 101.252 79.9091C101.241 78.4375 100.258 77.1875 99.002 76.9545V76.8864C100.093 76.6023 100.809 75.5341 100.82 74.2955C100.809 72.5227 99.3202 71.2045 97.2974 71.2045C95.252 71.2045 93.7634 72.5227 93.7747 74.2955C93.7634 75.5341 94.4793 76.6023 95.5929 76.8864V76.9545C94.3145 77.1875 93.3315 78.4375 93.3429 79.9091C93.3315 81.8011 94.9509 83.1591 97.2974 83.1591ZM97.2974 81.9091C95.7009 81.9091 94.7179 81.0909 94.7293 79.8409C94.7179 78.5284 95.8031 77.5909 97.2974 77.5909C98.769 77.5909 99.8543 78.5284 99.8656 79.8409C99.8543 81.0909 98.8713 81.9091 97.2974 81.9091ZM97.2974 76.3864C96.0247 76.3864 95.127 75.5909 95.1384 74.3864C95.127 73.2045 95.9906 72.4318 97.2974 72.4318C98.5815 72.4318 99.4452 73.2045 99.4565 74.3864C99.4452 75.5909 98.5474 76.3864 97.2974 76.3864ZM103.553 83H105.03L110.212 72.6818V71.3636H102.758V72.6136H108.758V72.7045L103.553 83ZM115.57 83.1591C117.786 83.1591 119.411 81.5227 119.411 79.2955C119.411 77.0398 117.843 75.3864 115.707 75.3864C114.923 75.3864 114.161 75.6648 113.684 76.0455H113.616L114.025 72.6136H118.888V71.3636H112.843L112.138 77.0909L113.457 77.25C113.94 76.9034 114.763 76.6534 115.479 76.6591C116.962 76.6705 118.048 77.7955 118.048 79.3182C118.048 80.8125 117.002 81.9091 115.57 81.9091C114.377 81.9091 113.428 81.142 113.32 80.0909H111.957C112.042 81.8636 113.57 83.1591 115.57 83.1591ZM123.014 81.4091H121.559L121.491 82.0455C121.326 83.5852 121.002 85.1193 120.854 85.8409H121.877C122.15 85.0682 122.729 83.3182 122.923 82.0227L123.014 81.4091ZM128.624 83.1591C131.193 83.1591 132.67 80.983 132.67 77.1818C132.67 73.4091 131.17 71.2045 128.624 71.2045C126.079 71.2045 124.579 73.4091 124.579 77.1818C124.579 80.983 126.056 83.1591 128.624 83.1591ZM128.624 81.9091C126.931 81.9091 125.943 80.2102 125.943 77.1818C125.943 74.1591 126.943 72.4318 128.624 72.4318C130.306 72.4318 131.306 74.1591 131.306 77.1818C131.306 80.2102 130.318 81.9091 128.624 81.9091ZM138.384 83.1591C140.953 83.1591 142.43 80.983 142.43 77.1818C142.43 73.4091 140.93 71.2045 138.384 71.2045C135.839 71.2045 134.339 73.4091 134.339 77.1818C134.339 80.983 135.816 83.1591 138.384 83.1591ZM138.384 81.9091C136.691 81.9091 135.703 80.2102 135.703 77.1818C135.703 74.1591 136.703 72.4318 138.384 72.4318C140.066 72.4318 141.066 74.1591 141.066 77.1818C141.066 80.2102 140.078 81.9091 138.384 81.9091ZM148.144 83.1591C150.713 83.1591 152.19 80.983 152.19 77.1818C152.19 73.4091 150.69 71.2045 148.144 71.2045C145.599 71.2045 144.099 73.4091 144.099 77.1818C144.099 80.983 145.576 83.1591 148.144 83.1591ZM148.144 81.9091C146.451 81.9091 145.463 80.2102 145.463 77.1818C145.463 74.1591 146.463 72.4318 148.144 72.4318C149.826 72.4318 150.826 74.1591 150.826 77.1818C150.826 80.2102 149.838 81.9091 148.144 81.9091ZM161.937 83.1818C163.869 83.1818 165.142 82 165.369 80.4545H164.028C163.778 81.4091 162.983 81.9773 161.937 81.9773C160.346 81.9773 159.323 80.6591 159.323 78.6364C159.323 76.6591 160.369 75.3636 161.937 75.3636C163.119 75.3636 163.823 76.0909 164.028 76.8864H165.369C165.142 75.25 163.755 74.1591 161.914 74.1591C159.551 74.1591 157.983 76.0227 157.983 78.6818C157.983 81.2955 159.483 83.1818 161.937 83.1818ZM169.657 83.2045C171.18 83.2045 171.976 82.3864 172.248 81.8182H172.316V83H173.657V77.25C173.657 74.4773 171.544 74.1591 170.43 74.1591C169.112 74.1591 167.612 74.6136 166.93 76.2045L168.203 76.6591C168.498 76.0227 169.197 75.3409 170.476 75.3409C171.708 75.3409 172.316 75.9943 172.316 77.1136V77.1591C172.316 77.8068 171.657 77.75 170.066 77.9545C168.447 78.1648 166.68 78.5227 166.68 80.5227C166.68 82.2273 167.998 83.2045 169.657 83.2045ZM169.862 82C168.794 82 168.021 81.5227 168.021 80.5909C168.021 79.5682 168.953 79.25 169.998 79.1136C170.566 79.0455 172.089 78.8864 172.316 78.6136V79.8409C172.316 80.9318 171.453 82 169.862 82ZM182.047 76.2273C181.626 74.9886 180.683 74.1591 178.956 74.1591C177.115 74.1591 175.751 75.2045 175.751 76.6818C175.751 77.8864 176.467 78.6932 178.069 79.0682L179.524 79.4091C180.405 79.6136 180.819 80.0341 180.819 80.6364C180.819 81.3864 180.024 82 178.774 82C177.677 82 176.99 81.5284 176.751 80.5909L175.478 80.9091C175.791 82.392 177.012 83.1818 178.797 83.1818C180.825 83.1818 182.206 82.0739 182.206 80.5682C182.206 79.3523 181.444 78.5852 179.887 78.2045L178.592 77.8864C177.558 77.6307 177.092 77.2841 177.092 76.6136C177.092 75.8636 177.887 75.3182 178.956 75.3182C180.126 75.3182 180.609 75.9659 180.842 76.5682L182.047 76.2273ZM187.643 83.1818C189.416 83.1818 190.711 82.2955 191.121 80.9773L189.825 80.6136C189.484 81.5227 188.694 81.9773 187.643 81.9773C186.069 81.9773 184.984 80.9602 184.922 79.0909H191.257V78.5227C191.257 75.2727 189.325 74.1591 187.507 74.1591C185.143 74.1591 183.575 76.0227 183.575 78.7045C183.575 81.3864 185.121 83.1818 187.643 83.1818ZM184.922 77.9318C185.013 76.5739 185.973 75.3636 187.507 75.3636C188.961 75.3636 189.893 76.4545 189.893 77.9318H184.922ZM199.238 76.2273C198.818 74.9886 197.875 74.1591 196.148 74.1591C194.307 74.1591 192.943 75.2045 192.943 76.6818C192.943 77.8864 193.659 78.6932 195.261 79.0682L196.716 79.4091C197.596 79.6136 198.011 80.0341 198.011 80.6364C198.011 81.3864 197.216 82 195.966 82C194.869 82 194.182 81.5284 193.943 80.5909L192.67 80.9091C192.983 82.392 194.204 83.1818 195.988 83.1818C198.017 83.1818 199.398 82.0739 199.398 80.5682C199.398 79.3523 198.636 78.5852 197.079 78.2045L195.784 77.8864C194.75 77.6307 194.284 77.2841 194.284 76.6136C194.284 75.8636 195.079 75.3182 196.148 75.3182C197.318 75.3182 197.801 75.9659 198.034 76.5682L199.238 76.2273Z" fill="white"/>
<rect y="69" width="5" height="17" rx="2.5" fill="#EC5043"/>
</g>
<path d="M19.9318 105.159C22.2557 105.159 23.875 103.801 23.8864 101.909C23.875 100.438 22.892 99.1875 21.6364 98.9545V98.8864C22.7273 98.6023 23.4432 97.5341 23.4545 96.2955C23.4432 94.5227 21.9545 93.2045 19.9318 93.2045C17.8864 93.2045 16.3977 94.5227 16.4091 96.2955C16.3977 97.5341 17.1136 98.6023 18.2273 98.8864V98.9545C16.9489 99.1875 15.9659 100.438 15.9773 101.909C15.9659 103.801 17.5852 105.159 19.9318 105.159ZM19.9318 103.909C18.3352 103.909 17.3523 103.091 17.3636 101.841C17.3523 100.528 18.4375 99.5909 19.9318 99.5909C21.4034 99.5909 22.4886 100.528 22.5 101.841C22.4886 103.091 21.5057 103.909 19.9318 103.909ZM19.9318 98.3864C18.6591 98.3864 17.7614 97.5909 17.7727 96.3864C17.7614 95.2045 18.625 94.4318 19.9318 94.4318C21.2159 94.4318 22.0795 95.2045 22.0909 96.3864C22.0795 97.5909 21.1818 98.3864 19.9318 98.3864ZM26.1876 105H27.6648L32.8466 94.6818V93.3636H25.3921V94.6136H31.3921V94.7045L26.1876 105ZM38.2047 105.159C40.4206 105.159 42.0456 103.523 42.0456 101.295C42.0456 99.0398 40.4774 97.3864 38.341 97.3864C37.5569 97.3864 36.7956 97.6648 36.3183 98.0455H36.2501L36.6592 94.6136H41.5228V93.3636H35.4774L34.7728 99.0909L36.091 99.25C36.574 98.9034 37.3978 98.6534 38.1138 98.6591C39.5967 98.6705 40.6819 99.7955 40.6819 101.318C40.6819 102.812 39.6365 103.909 38.2047 103.909C37.0115 103.909 36.0626 103.142 35.9547 102.091H34.591C34.6763 103.864 36.2047 105.159 38.2047 105.159ZM45.6479 103.409H44.1934L44.1252 104.045C43.9604 105.585 43.6365 107.119 43.4888 107.841H44.5115C44.7843 107.068 45.3638 105.318 45.557 104.023L45.6479 103.409ZM51.2588 105.159C53.8269 105.159 55.3042 102.983 55.3042 99.1818C55.3042 95.4091 53.8042 93.2045 51.2588 93.2045C48.7133 93.2045 47.2133 95.4091 47.2133 99.1818C47.2133 102.983 48.6906 105.159 51.2588 105.159ZM51.2588 103.909C49.5656 103.909 48.5769 102.21 48.5769 99.1818C48.5769 96.1591 49.5769 94.4318 51.2588 94.4318C52.9406 94.4318 53.9406 96.1591 53.9406 99.1818C53.9406 102.21 52.9519 103.909 51.2588 103.909ZM61.0187 105.159C63.5869 105.159 65.0642 102.983 65.0642 99.1818C65.0642 95.4091 63.5642 93.2045 61.0187 93.2045C58.4733 93.2045 56.9733 95.4091 56.9733 99.1818C56.9733 102.983 58.4506 105.159 61.0187 105.159ZM61.0187 103.909C59.3256 103.909 58.3369 102.21 58.3369 99.1818C58.3369 96.1591 59.3369 94.4318 61.0187 94.4318C62.7006 94.4318 63.7006 96.1591 63.7006 99.1818C63.7006 102.21 62.7119 103.909 61.0187 103.909ZM70.7788 105.159C73.3469 105.159 74.8242 102.983 74.8242 99.1818C74.8242 95.4091 73.3242 93.2045 70.7788 93.2045C68.2333 93.2045 66.7333 95.4091 66.7333 99.1818C66.7333 102.983 68.2106 105.159 70.7788 105.159ZM70.7788 103.909C69.0856 103.909 68.0969 102.21 68.0969 99.1818C68.0969 96.1591 69.0969 94.4318 70.7788 94.4318C72.4606 94.4318 73.4606 96.1591 73.4606 99.1818C73.4606 102.21 72.4719 103.909 70.7788 103.909ZM80.1751 102.955H81.4478V99.8409H84.5615V98.5682H81.4478V95.4545H80.1751V98.5682H77.0615V99.8409H80.1751V102.955ZM94.8783 105.182C96.8102 105.182 98.0829 104 98.3102 102.455H96.9693C96.7193 103.409 95.9238 103.977 94.8783 103.977C93.2874 103.977 92.2647 102.659 92.2647 100.636C92.2647 98.6591 93.3102 97.3636 94.8783 97.3636C96.0602 97.3636 96.7647 98.0909 96.9693 98.8864H98.3102C98.0829 97.25 96.6965 96.1591 94.8556 96.1591C92.492 96.1591 90.9238 98.0227 90.9238 100.682C90.9238 103.295 92.4238 105.182 94.8783 105.182ZM102.599 105.205C104.121 105.205 104.917 104.386 105.189 103.818H105.258V105H106.599V99.25C106.599 96.4773 104.485 96.1591 103.371 96.1591C102.053 96.1591 100.553 96.6136 99.8713 98.2045L101.144 98.6591C101.439 98.0227 102.138 97.3409 103.417 97.3409C104.65 97.3409 105.258 97.9943 105.258 99.1136V99.1591C105.258 99.8068 104.599 99.75 103.008 99.9545C101.388 100.165 99.6213 100.523 99.6213 102.523C99.6213 104.227 100.939 105.205 102.599 105.205ZM102.803 104C101.735 104 100.962 103.523 100.962 102.591C100.962 101.568 101.894 101.25 102.939 101.114C103.508 101.045 105.03 100.886 105.258 100.614V101.841C105.258 102.932 104.394 104 102.803 104ZM114.988 98.2273C114.567 96.9886 113.624 96.1591 111.897 96.1591C110.056 96.1591 108.692 97.2045 108.692 98.6818C108.692 99.8864 109.408 100.693 111.011 101.068L112.465 101.409C113.346 101.614 113.761 102.034 113.761 102.636C113.761 103.386 112.965 104 111.715 104C110.619 104 109.931 103.528 109.692 102.591L108.42 102.909C108.732 104.392 109.954 105.182 111.738 105.182C113.766 105.182 115.147 104.074 115.147 102.568C115.147 101.352 114.386 100.585 112.829 100.205L111.533 99.8864C110.499 99.6307 110.033 99.2841 110.033 98.6136C110.033 97.8636 110.829 97.3182 111.897 97.3182C113.067 97.3182 113.55 97.9659 113.783 98.5682L114.988 98.2273ZM120.584 105.182C122.357 105.182 123.653 104.295 124.062 102.977L122.766 102.614C122.425 103.523 121.636 103.977 120.584 103.977C119.011 103.977 117.925 102.96 117.863 101.091H124.198V100.523C124.198 97.2727 122.266 96.1591 120.448 96.1591C118.084 96.1591 116.516 98.0227 116.516 100.705C116.516 103.386 118.062 105.182 120.584 105.182ZM117.863 99.9318C117.954 98.5739 118.914 97.3636 120.448 97.3636C121.903 97.3636 122.834 98.4545 122.834 99.9318H117.863ZM132.18 98.2273C131.759 96.9886 130.816 96.1591 129.089 96.1591C127.248 96.1591 125.884 97.2045 125.884 98.6818C125.884 99.8864 126.6 100.693 128.202 101.068L129.657 101.409C130.538 101.614 130.952 102.034 130.952 102.636C130.952 103.386 130.157 104 128.907 104C127.81 104 127.123 103.528 126.884 102.591L125.612 102.909C125.924 104.392 127.146 105.182 128.93 105.182C130.958 105.182 132.339 104.074 132.339 102.568C132.339 101.352 131.577 100.585 130.021 100.205L128.725 99.8864C127.691 99.6307 127.225 99.2841 127.225 98.6136C127.225 97.8636 128.021 97.3182 129.089 97.3182C130.259 97.3182 130.742 97.9659 130.975 98.5682L132.18 98.2273Z" fill="white"/>
<rect y="91" width="5" height="17" rx="2.5" fill="#EB1B0A"/>
<defs>
<clipPath id="clip0_53_444">
<rect width="200" height="22" fill="white" transform="translate(0 44)"/>
</clipPath>
<clipPath id="clip1_53_444">
<rect width="200" height="22" fill="white" transform="translate(0 66)"/>
</clipPath>
</defs>
</svg>
