<svg width="36" height="36" viewBox="0 0 36 36" fill="none" xmlns="http://www.w3.org/2000/svg">
<g id="coronavirus">
<path id="Path" d="M18.3198 5.55165V3.58478C19.1607 3.28672 19.6651 2.42468 19.5142 1.5434C19.3634 0.662123 18.6013 0.0179443 17.7094 0.0179443C16.8175 0.0179443 16.0554 0.662123 15.9045 1.5434C15.7537 2.42468 16.2581 3.28672 17.099 3.58478V5.55165C17.3004 5.53942 17.508 5.5333 17.7094 5.5333C17.9108 5.5333 18.1184 5.53942 18.3198 5.55165Z" fill="white"/>
<path id="Path_2" d="M9.51772 8.69725L8.13881 7.30807C8.25582 7.06505 8.31714 6.79888 8.31827 6.52903C8.31827 5.51508 7.4984 4.69312 6.48705 4.69312C5.47569 4.69312 4.65582 5.51508 4.65582 6.52903C4.65582 7.54298 5.47569 8.36495 6.48705 8.36495C6.76042 8.36456 7.03012 8.30178 7.27569 8.18135L8.65705 9.56013C8.92848 9.2574 9.21577 8.96937 9.51772 8.69725Z" fill="white"/>
<path id="Path_3" d="M5.51957 17.1608H3.55772C3.26043 16.3177 2.40059 15.8121 1.52156 15.9633C0.642532 16.1145 0 16.8786 0 17.7727C0 18.6669 0.642532 19.431 1.52156 19.5822C2.40059 19.7334 3.26043 19.2277 3.55772 18.3847H5.51957C5.50736 18.1828 5.50126 17.9747 5.50126 17.7727C5.50126 17.5708 5.50736 17.3627 5.51957 17.1608Z" fill="white"/>
<path id="Path_4" d="M8.65705 25.9854L7.2647 27.3764C6.44965 26.9858 5.47245 27.2415 4.9518 27.9817C4.43116 28.7218 4.51891 29.7305 5.1595 30.3691C5.80008 31.0078 6.80669 31.09 7.542 30.5639C8.2773 30.0378 8.52688 29.0566 8.1327 28.2417L9.51772 26.8482C9.21577 26.5761 8.92847 26.2881 8.65705 25.9854Z" fill="white"/>
<path id="Path_5" d="M17.099 29.9938V31.9607C16.2581 32.2587 15.7537 33.1207 15.9045 34.002C16.0554 34.8833 16.8175 35.5275 17.7094 35.5275C18.6013 35.5275 19.3634 34.8833 19.5142 34.002C19.6651 33.1207 19.1607 32.2587 18.3198 31.9607V29.9938C18.1184 30.006 17.9108 30.0121 17.7094 30.0121C17.508 30.0121 17.3004 30.006 17.099 29.9938Z" fill="white"/>
<path id="Path_6" d="M25.9011 26.8482L27.2861 28.2417C27.1664 28.488 27.1038 28.7583 27.103 29.0324C27.0954 29.859 27.6349 30.5907 28.4253 30.8259C29.2158 31.0611 30.0661 30.7429 30.5095 30.0459C30.9529 29.3489 30.8822 28.4418 30.3362 27.8223C29.7902 27.2029 28.901 27.0209 28.1565 27.3764L26.7617 25.9854C26.4903 26.2881 26.203 26.5761 25.9011 26.8482V26.8482Z" fill="white"/>
<path id="Path_7" d="M33.5801 15.9368C32.8068 15.94 32.1189 16.4298 31.8611 17.1607H29.8993C29.9115 17.3627 29.9176 17.5707 29.9176 17.7727C29.9176 17.9746 29.9115 18.1827 29.8993 18.3847H31.8611C32.1731 19.2626 33.0925 19.7661 33.9978 19.5547C34.9032 19.3434 35.5063 18.4846 35.3994 17.5588C35.2925 16.6331 34.5096 15.9351 33.5801 15.9368V15.9368Z" fill="white"/>
<path id="Path_8" d="M26.7617 9.56013L28.1431 8.18013C28.3887 8.30056 28.6584 8.36334 28.9317 8.36373C29.9431 8.36373 30.763 7.54176 30.763 6.52781C30.763 5.51386 29.9431 4.69189 28.9317 4.69189C27.9204 4.69189 27.1005 5.51386 27.1005 6.52781C27.1016 6.79766 27.163 7.06383 27.28 7.30685L25.9011 8.69725C26.203 8.96937 26.4903 9.25741 26.7617 9.56013V9.56013Z" fill="white"/>
<path id="Shape" fill-rule="evenodd" clip-rule="evenodd" d="M27.476 17.1607H29.8993C29.7634 14.3393 28.6544 11.6527 26.7618 9.56005L25.0465 11.2797L24.1859 10.4168L25.9011 8.69717C23.8139 6.79971 21.1341 5.68787 18.3198 5.55164V7.98116H17.099V5.55164C14.2848 5.68787 11.605 6.79971 9.51777 8.69717L11.233 10.4168L10.3723 11.2797L8.65709 9.56005C6.76448 11.6527 5.65547 14.3393 5.51959 17.1607H7.94291V18.3847H5.51959C5.65547 21.2062 6.76448 23.8928 8.65709 25.9854L10.3723 24.2657L11.233 25.1286L9.51777 26.8483C11.605 28.7457 14.2848 29.8576 17.099 29.9938V27.5643H18.3198V29.9938C21.1341 29.8576 23.8139 28.7457 25.9011 26.8483L24.1859 25.1286L25.0465 24.2657L26.7618 25.9854C28.6544 23.8928 29.7634 21.2062 29.8993 18.3847H27.476V17.1607ZM22.3851 13.6529C22.8127 13.4053 23.347 13.4404 23.7387 13.7418C24.1305 14.0431 24.3026 14.5514 24.1748 15.0296C24.047 15.5078 23.6445 15.8617 23.1549 15.9263C22.6654 15.9909 22.1852 15.7535 21.9383 15.3248C21.6012 14.7394 21.8012 13.9909 22.3851 13.6529ZM20.9208 11.2595C20.4313 11.1949 19.9511 11.4323 19.7042 11.861C19.3671 12.4464 19.5672 13.195 20.151 13.533C20.5787 13.7805 21.1129 13.7454 21.5046 13.444C21.8964 13.1427 22.0685 12.6344 21.9407 12.1562C21.8129 11.6781 21.4104 11.3242 20.9208 11.2595ZM11.366 14.1008C11.6129 13.6721 12.0931 13.4346 12.5826 13.4993C13.0722 13.5639 13.4747 13.9178 13.6025 14.396C13.7303 14.8742 13.5582 15.3824 13.1665 15.6838C12.7747 15.9851 12.2405 16.0202 11.8128 15.7727C11.229 15.4347 11.0289 14.6862 11.366 14.1008ZM11.6053 16.5487C10.9311 16.5487 10.3845 17.0967 10.3845 17.7726C10.3845 18.4486 10.9311 18.9966 11.6053 18.9966C12.2796 18.9966 12.8262 18.4486 12.8262 17.7726C12.8262 17.0967 12.2796 16.5487 11.6053 16.5487ZM13.0337 21.8924C12.6061 22.14 12.0719 22.1049 11.6801 21.8035C11.2884 21.5022 11.1163 20.9939 11.244 20.5157C11.3718 20.0376 11.7744 19.6836 12.2639 19.619C12.7535 19.5544 13.2336 19.7918 13.4805 20.2205C13.8176 20.8059 13.6176 21.5545 13.0337 21.8924ZM14.498 24.2858C14.9875 24.3504 15.4677 24.113 15.7146 23.6843C16.0517 23.0989 15.8517 22.3504 15.2678 22.0124C14.8402 21.7648 14.3059 21.7999 13.9142 22.1013C13.5224 22.4026 13.3503 22.9109 13.4781 23.3891C13.6059 23.8673 14.0084 24.2212 14.498 24.2858ZM15.2678 13.533C14.8402 13.7805 14.3059 13.7454 13.9142 13.444C13.5224 13.1427 13.3503 12.6344 13.4781 12.1562C13.6059 11.6781 14.0084 11.3242 14.498 11.2595C14.9875 11.1949 15.4677 11.4323 15.7146 11.861C16.0517 12.4464 15.8517 13.195 15.2678 13.533ZM16.4886 23.8924C16.4886 24.5684 17.0352 25.1164 17.7094 25.1164C18.3836 25.1164 18.9302 24.5684 18.9302 23.8924C18.9302 23.2164 18.3836 22.6685 17.7094 22.6685C17.0352 22.6685 16.4886 23.2164 16.4886 23.8924ZM17.7094 12.8768C17.0352 12.8768 16.4886 12.3288 16.4886 11.6529C16.4886 10.9769 17.0352 10.4289 17.7094 10.4289C18.3836 10.4289 18.9302 10.9769 18.9302 11.6529C18.9302 12.3288 18.3836 12.8768 17.7094 12.8768ZM20.0182 24.0434C20.41 24.3447 20.9442 24.3798 21.3718 24.1323C21.9557 23.7943 22.1558 23.0458 21.8187 22.4604C21.5718 22.0317 21.0916 21.7943 20.6021 21.8589C20.1125 21.9235 19.71 22.2774 19.5822 22.7556C19.4544 23.2338 19.6265 23.742 20.0182 24.0434ZM24.0528 21.4444C23.8059 21.8732 23.3257 22.1106 22.8362 22.0459C22.3466 21.9813 21.9441 21.6274 21.8163 21.1492C21.6885 20.6711 21.8606 20.1628 22.2524 19.8614C22.6441 19.5601 23.1784 19.525 23.606 19.7725C24.1899 20.1105 24.3899 20.859 24.0528 21.4444ZM22.5927 17.7726C22.5927 18.4486 23.1392 18.9966 23.8135 18.9966C24.4877 18.9966 25.0343 18.4486 25.0343 17.7726C25.0343 17.0967 24.4877 16.5487 23.8135 16.5487C23.1392 16.5487 22.5927 17.0967 22.5927 17.7726Z" fill="white"/>
<path id="Path_9" d="M14.5499 5.9501C15.2011 5.77498 15.5874 5.1038 15.4128 4.45094C15.2382 3.79808 14.5687 3.41073 13.9175 3.58575C13.2663 3.76077 12.8799 4.43188 13.0544 5.08477C13.1383 5.39837 13.3429 5.66572 13.6234 5.82801C13.9039 5.9903 14.2372 6.03421 14.5499 5.9501Z" fill="white"/>
<path id="Path_10" d="M11.6053 7.17343C12.1893 6.83561 12.3896 6.08715 12.0526 5.50166C11.7157 4.91617 10.9692 4.71536 10.3852 5.05313C9.80115 5.39089 9.60081 6.13934 9.93769 6.72486C10.0995 7.00607 10.3661 7.21132 10.6788 7.29544C10.9916 7.37957 11.3249 7.33568 11.6053 7.17343Z" fill="white"/>
<path id="Path_11" d="M5.46891 12.1009C5.89653 12.3485 6.43077 12.3134 6.82252 12.012C7.21427 11.7107 7.38637 11.2024 7.25858 10.7242C7.13079 10.2461 6.72826 9.89214 6.23871 9.82752C5.74915 9.76291 5.26898 10.0003 5.02209 10.429C4.68499 11.0144 4.88504 11.7629 5.46891 12.1009Z" fill="white"/>
<path id="Path_12" d="M4.42208 15.4704C5.0733 15.6454 5.7427 15.258 5.91727 14.6051C6.09184 13.9523 5.70549 13.2811 5.05429 13.106C4.4031 12.931 3.73364 13.3183 3.55896 13.9711C3.47506 14.2847 3.51887 14.6188 3.68074 14.9C3.84261 15.1812 4.10928 15.3864 4.42208 15.4704Z" fill="white"/>
<path id="Path_13" d="M5.05381 22.4396C5.53083 22.3115 5.88393 21.908 5.94844 21.4172C6.01295 20.9263 5.77617 20.4449 5.34852 20.1973C4.92087 19.9498 4.38658 19.9849 3.99483 20.2863C3.60308 20.5877 3.43103 21.0961 3.55892 21.5743C3.73349 22.227 4.40268 22.6143 5.05381 22.4396Z" fill="white"/>
<path id="Path_14" d="M5.02209 25.1164C5.26898 25.5452 5.74915 25.7826 6.23871 25.7179C6.72826 25.6533 7.13079 25.2994 7.25858 24.8212C7.38637 24.3431 7.21427 23.8348 6.82252 23.5334C6.43077 23.2321 5.89653 23.197 5.46891 23.4445C4.88504 23.7825 4.68499 24.531 5.02209 25.1164V25.1164Z" fill="white"/>
<path id="Path_15" d="M11.6053 28.3721C11.0214 28.0343 10.2749 28.2349 9.93787 28.8202C9.6008 29.4055 9.80075 30.1539 10.3845 30.492C10.9682 30.83 11.7148 30.6297 12.0521 30.0446C12.2142 29.7634 12.2582 29.4292 12.1744 29.1155C12.0906 28.8018 11.8859 28.5344 11.6053 28.3721Z" fill="white"/>
<path id="Path_16" d="M14.55 29.5948C13.8987 29.4198 13.2293 29.8072 13.0548 30.4601C12.8802 31.1129 13.2665 31.7841 13.9177 31.9592C14.5689 32.1342 15.2384 31.7469 15.4131 31.0941C15.497 30.7805 15.4532 30.4464 15.2913 30.1652C15.1294 29.884 14.8627 29.6788 14.55 29.5948Z" fill="white"/>
<path id="Path_17" d="M20.8689 29.5947C20.2178 29.7698 19.8314 30.4408 20.0058 31.0936C20.1803 31.7465 20.8495 32.134 21.5007 31.9592C22.1519 31.7845 22.5386 31.1136 22.3644 30.4607C22.2807 30.147 22.0761 29.8795 21.7956 29.7171C21.5151 29.5546 21.1818 29.5106 20.8689 29.5947V29.5947Z" fill="white"/>
<path id="Path_18" d="M23.8135 28.3721C23.2295 28.7099 23.0293 29.4584 23.3662 30.0438C23.7031 30.6293 24.4497 30.8301 25.0337 30.4924C25.6177 30.1546 25.818 29.4062 25.4812 28.8206C25.3194 28.5394 25.0528 28.3342 24.74 28.2501C24.4273 28.1659 24.094 28.2098 23.8135 28.3721V28.3721Z" fill="white"/>
<path id="Path_19" d="M29.9499 23.4445C29.5223 23.197 28.9881 23.2321 28.5963 23.5334C28.2046 23.8348 28.0325 24.3431 28.1602 24.8212C28.288 25.2994 28.6906 25.6533 29.1801 25.7179C29.6697 25.7826 30.1498 25.5452 30.3967 25.1164C30.7338 24.531 30.5338 23.7825 29.9499 23.4445Z" fill="white"/>
<path id="Path_20" d="M30.9968 20.075C30.3456 19.9 29.6762 20.2874 29.5016 20.9403C29.327 21.5932 29.7134 22.2643 30.3646 22.4394C31.0158 22.6145 31.6852 22.2272 31.8599 21.5743C31.9438 21.2607 31.9 20.9266 31.7381 20.6454C31.5763 20.3642 31.3096 20.159 30.9968 20.075V20.075Z" fill="white"/>
<path id="Path_21" d="M30.365 13.1058C29.888 13.2338 29.5349 13.6374 29.4704 14.1282C29.4059 14.619 29.6427 15.1005 30.0703 15.348C30.498 15.5956 31.0323 15.5605 31.424 15.2591C31.8158 14.9576 31.9878 14.4493 31.8599 13.9711C31.6854 13.3184 31.0162 12.931 30.365 13.1058Z" fill="white"/>
<path id="Path_22" d="M30.3967 10.429C30.1498 10.0003 29.6697 9.76291 29.1801 9.82752C28.6906 9.89214 28.288 10.2461 28.1602 10.7242C28.0325 11.2024 28.2046 11.7107 28.5963 12.012C28.9881 12.3134 29.5223 12.3485 29.9499 12.1009C30.5338 11.7629 30.7338 11.0144 30.3967 10.429Z" fill="white"/>
<path id="Path_23" d="M23.8135 7.17341C24.3974 7.51121 25.1439 7.31059 25.481 6.72528C25.818 6.13996 25.6181 5.39153 25.0343 5.05347C24.4506 4.71542 23.704 4.91571 23.3667 5.50089C23.2046 5.78206 23.1606 6.11628 23.2444 6.42996C23.3283 6.74365 23.533 7.01109 23.8135 7.17341Z" fill="white"/>
<path id="Path_24" d="M20.8689 5.95011C21.3458 6.07833 21.8529 5.90584 22.1535 5.51309C22.4542 5.12033 22.4892 4.58468 22.2423 4.15593C21.9954 3.72718 21.5151 3.48979 21.0256 3.55447C20.536 3.61915 20.1335 3.97315 20.0058 4.45139C19.8314 5.10419 20.2178 5.7751 20.8689 5.95011V5.95011Z" fill="white"/>
</g>
</svg>
