<svg width="347" height="324" viewBox="0 0 347 324" fill="none" xmlns="http://www.w3.org/2000/svg">
<path d="M0 20C0 8.95431 8.95431 0 20 0H327C338.046 0 347 8.95431 347 20V304C347 315.046 338.046 324 327 324H20C8.95432 324 0 315.046 0 304V20Z" fill="#433E43" fill-opacity="0.85"/>
<path d="M268.616 192.308C268.616 177.795 265.249 163.474 258.773 150.436C252.296 137.398 242.881 125.989 231.245 117.078C219.609 108.168 206.059 101.991 191.63 99.0193C177.201 96.0476 162.273 96.3595 147.984 99.9311C133.696 103.503 120.425 110.24 109.183 119.628C97.9416 129.017 89.0263 140.809 83.1173 154.105C77.2084 167.402 74.4618 181.851 75.0871 196.351C75.7125 210.852 79.6932 225.02 86.7256 237.775L99.4861 230.956C93.5083 220.114 90.1247 208.071 89.5931 195.745C89.0616 183.419 91.3962 171.137 96.419 159.835C101.442 148.533 109.02 138.509 118.576 130.529C128.131 122.548 139.412 116.822 151.557 113.786C163.703 110.75 176.392 110.485 188.657 113.011C200.922 115.537 212.44 120.787 222.331 128.361C232.221 135.935 240.225 145.634 245.73 156.716C251.235 167.798 254.097 179.972 254.097 192.308H268.616Z" fill="#EC4444"/>
<path d="M219.477 275.261C233.825 267.27 245.863 255.803 254.449 241.949C263.035 228.094 267.885 212.31 268.54 196.093L254.032 195.526C253.475 209.31 249.353 222.727 242.054 234.504C234.756 246.28 224.524 256.027 212.328 262.82L219.477 275.261Z" fill="#FF8A00"/>
<path d="M87.8157 239.699C100.055 260.725 119.97 276.37 143.51 283.454C167.05 290.538 192.447 288.527 214.535 277.832L208.127 265.005C189.352 274.097 167.764 275.806 147.754 269.784C127.745 263.763 110.816 250.464 100.413 232.591L87.8157 239.699Z" fill="#767676"/>
<path d="M51.168 37.4L42.684 57H38.204L29.748 37.4H34.648L40.612 51.4L46.66 37.4H51.168ZM57.4514 41.712C59.7847 41.712 61.5767 42.272 62.8274 43.392C64.078 44.4933 64.7034 46.164 64.7034 48.404V57H60.6154V55.124C59.794 56.524 58.2634 57.224 56.0234 57.224C54.866 57.224 53.858 57.028 52.9994 56.636C52.1594 56.244 51.5154 55.7027 51.0674 55.012C50.6194 54.3213 50.3954 53.5373 50.3954 52.66C50.3954 51.26 50.918 50.1587 51.9634 49.356C53.0274 48.5533 54.6607 48.152 56.8634 48.152H60.3354C60.3354 47.2 60.046 46.472 59.4674 45.968C58.8887 45.4453 58.0207 45.184 56.8634 45.184C56.0607 45.184 55.2674 45.3147 54.4834 45.576C53.718 45.8187 53.0647 46.1547 52.5234 46.584L50.9554 43.532C51.7767 42.9533 52.7567 42.5053 53.8954 42.188C55.0527 41.8707 56.238 41.712 57.4514 41.712ZM57.1154 54.284C57.862 54.284 58.5247 54.116 59.1034 53.78C59.682 53.4253 60.0927 52.912 60.3354 52.24V50.7H57.3394C55.5474 50.7 54.6514 51.288 54.6514 52.464C54.6514 53.024 54.866 53.472 55.2954 53.808C55.7434 54.1253 56.35 54.284 57.1154 54.284ZM76.1007 57.224C74.4954 57.224 73.0487 56.8973 71.7607 56.244C70.4914 55.572 69.4927 54.648 68.7647 53.472C68.0554 52.296 67.7007 50.9613 67.7007 49.468C67.7007 47.9747 68.0554 46.64 68.7647 45.464C69.4927 44.288 70.4914 43.3733 71.7607 42.72C73.0487 42.048 74.4954 41.712 76.1007 41.712C77.6874 41.712 79.0687 42.048 80.2447 42.72C81.4394 43.3733 82.3074 44.316 82.8487 45.548L79.4607 47.368C78.6767 45.9867 77.5474 45.296 76.0727 45.296C74.934 45.296 73.9914 45.6693 73.2447 46.416C72.498 47.1627 72.1247 48.18 72.1247 49.468C72.1247 50.756 72.498 51.7733 73.2447 52.52C73.9914 53.2667 74.934 53.64 76.0727 53.64C77.566 53.64 78.6954 52.9493 79.4607 51.568L82.8487 53.416C82.3074 54.6107 81.4394 55.544 80.2447 56.216C79.0687 56.888 77.6874 57.224 76.1007 57.224ZM92.4523 57.224C90.8469 57.224 89.4003 56.8973 88.1123 56.244C86.8429 55.572 85.8443 54.648 85.1163 53.472C84.4069 52.296 84.0523 50.9613 84.0523 49.468C84.0523 47.9747 84.4069 46.64 85.1163 45.464C85.8443 44.288 86.8429 43.3733 88.1123 42.72C89.4003 42.048 90.8469 41.712 92.4523 41.712C94.0389 41.712 95.4203 42.048 96.5963 42.72C97.7909 43.3733 98.6589 44.316 99.2003 45.548L95.8123 47.368C95.0283 45.9867 93.8989 45.296 92.4243 45.296C91.2856 45.296 90.3429 45.6693 89.5963 46.416C88.8496 47.1627 88.4763 48.18 88.4763 49.468C88.4763 50.756 88.8496 51.7733 89.5963 52.52C90.3429 53.2667 91.2856 53.64 92.4243 53.64C93.9176 53.64 95.0469 52.9493 95.8123 51.568L99.2003 53.416C98.6589 54.6107 97.7909 55.544 96.5963 56.216C95.4203 56.888 94.0389 57.224 92.4523 57.224ZM101.715 41.936H106.083V57H101.715V41.936ZM103.899 39.836C103.097 39.836 102.443 39.6027 101.939 39.136C101.435 38.6693 101.183 38.0907 101.183 37.4C101.183 36.7093 101.435 36.1307 101.939 35.664C102.443 35.1973 103.097 34.964 103.899 34.964C104.702 34.964 105.355 35.188 105.859 35.636C106.363 36.084 106.615 36.644 106.615 37.316C106.615 38.044 106.363 38.6507 105.859 39.136C105.355 39.6027 104.702 39.836 103.899 39.836ZM119.293 41.712C121.16 41.712 122.662 42.272 123.801 43.392C124.958 44.512 125.537 46.1733 125.537 48.376V57H121.169V49.048C121.169 47.8533 120.908 46.9667 120.385 46.388C119.862 45.7907 119.106 45.492 118.117 45.492C117.016 45.492 116.138 45.8373 115.485 46.528C114.832 47.2 114.505 48.208 114.505 49.552V57H110.137V41.936H114.309V43.7C114.888 43.0653 115.606 42.58 116.465 42.244C117.324 41.8893 118.266 41.712 119.293 41.712ZM135.572 41.712C137.906 41.712 139.698 42.272 140.948 43.392C142.199 44.4933 142.824 46.164 142.824 48.404V57H138.736V55.124C137.915 56.524 136.384 57.224 134.144 57.224C132.987 57.224 131.979 57.028 131.12 56.636C130.28 56.244 129.636 55.7027 129.188 55.012C128.74 54.3213 128.516 53.5373 128.516 52.66C128.516 51.26 129.039 50.1587 130.084 49.356C131.148 48.5533 132.782 48.152 134.984 48.152H138.456C138.456 47.2 138.167 46.472 137.588 45.968C137.01 45.4453 136.142 45.184 134.984 45.184C134.182 45.184 133.388 45.3147 132.604 45.576C131.839 45.8187 131.186 46.1547 130.644 46.584L129.076 43.532C129.898 42.9533 130.878 42.5053 132.016 42.188C133.174 41.8707 134.359 41.712 135.572 41.712ZM135.236 54.284C135.983 54.284 136.646 54.116 137.224 53.78C137.803 53.4253 138.214 52.912 138.456 52.24V50.7H135.46C133.668 50.7 132.772 51.288 132.772 52.464C132.772 53.024 132.987 53.472 133.416 53.808C133.864 54.1253 134.471 54.284 135.236 54.284ZM156.494 56.272C156.064 56.5893 155.532 56.832 154.898 57C154.282 57.1493 153.628 57.224 152.938 57.224C151.146 57.224 149.755 56.7667 148.766 55.852C147.795 54.9373 147.31 53.5933 147.31 51.82V45.632H144.986V42.272H147.31V38.604H151.678V42.272H155.43V45.632H151.678V51.764C151.678 52.3987 151.836 52.8933 152.154 53.248C152.49 53.584 152.956 53.752 153.554 53.752C154.244 53.752 154.832 53.5653 155.318 53.192L156.494 56.272ZM158.946 41.936H163.314V57H158.946V41.936ZM161.13 39.836C160.327 39.836 159.674 39.6027 159.17 39.136C158.666 38.6693 158.414 38.0907 158.414 37.4C158.414 36.7093 158.666 36.1307 159.17 35.664C159.674 35.1973 160.327 34.964 161.13 34.964C161.932 34.964 162.586 35.188 163.09 35.636C163.594 36.084 163.846 36.644 163.846 37.316C163.846 38.044 163.594 38.6507 163.09 39.136C162.586 39.6027 161.932 39.836 161.13 39.836ZM174.536 57.224C172.949 57.224 171.521 56.8973 170.252 56.244C169.001 55.572 168.021 54.648 167.312 53.472C166.602 52.296 166.248 50.9613 166.248 49.468C166.248 47.9747 166.602 46.64 167.312 45.464C168.021 44.288 169.001 43.3733 170.252 42.72C171.521 42.048 172.949 41.712 174.536 41.712C176.122 41.712 177.541 42.048 178.792 42.72C180.042 43.3733 181.022 44.288 181.732 45.464C182.441 46.64 182.796 47.9747 182.796 49.468C182.796 50.9613 182.441 52.296 181.732 53.472C181.022 54.648 180.042 55.572 178.792 56.244C177.541 56.8973 176.122 57.224 174.536 57.224ZM174.536 53.64C175.656 53.64 176.57 53.2667 177.28 52.52C178.008 51.7547 178.372 50.7373 178.372 49.468C178.372 48.1987 178.008 47.1907 177.28 46.444C176.57 45.6787 175.656 45.296 174.536 45.296C173.416 45.296 172.492 45.6787 171.764 46.444C171.036 47.1907 170.672 48.1987 170.672 49.468C170.672 50.7373 171.036 51.7547 171.764 52.52C172.492 53.2667 173.416 53.64 174.536 53.64ZM194.871 41.712C196.738 41.712 198.241 42.272 199.379 43.392C200.537 44.512 201.115 46.1733 201.115 48.376V57H196.747V49.048C196.747 47.8533 196.486 46.9667 195.963 46.388C195.441 45.7907 194.685 45.492 193.695 45.492C192.594 45.492 191.717 45.8373 191.063 46.528C190.41 47.2 190.083 48.208 190.083 49.552V57H185.715V41.936H189.887V43.7C190.466 43.0653 191.185 42.58 192.043 42.244C192.902 41.8893 193.845 41.712 194.871 41.712ZM225.8 57L222.02 51.54H221.796H217.848V57H213.312V37.4H221.796C223.532 37.4 225.035 37.6893 226.304 38.268C227.592 38.8467 228.582 39.668 229.272 40.732C229.963 41.796 230.308 43.056 230.308 44.512C230.308 45.968 229.954 47.228 229.244 48.292C228.554 49.3373 227.564 50.14 226.276 50.7L230.672 57H225.8ZM225.716 44.512C225.716 43.4107 225.362 42.5707 224.652 41.992C223.943 41.3947 222.907 41.096 221.544 41.096H217.848V47.928H221.544C222.907 47.928 223.943 47.6293 224.652 47.032C225.362 46.4347 225.716 45.5947 225.716 44.512ZM239.533 41.712C241.867 41.712 243.659 42.272 244.909 43.392C246.16 44.4933 246.785 46.164 246.785 48.404V57H242.697V55.124C241.876 56.524 240.345 57.224 238.105 57.224C236.948 57.224 235.94 57.028 235.081 56.636C234.241 56.244 233.597 55.7027 233.149 55.012C232.701 54.3213 232.477 53.5373 232.477 52.66C232.477 51.26 233 50.1587 234.045 49.356C235.109 48.5533 236.743 48.152 238.945 48.152H242.417C242.417 47.2 242.128 46.472 241.549 45.968C240.971 45.4453 240.103 45.184 238.945 45.184C238.143 45.184 237.349 45.3147 236.565 45.576C235.8 45.8187 235.147 46.1547 234.605 46.584L233.037 43.532C233.859 42.9533 234.839 42.5053 235.977 42.188C237.135 41.8707 238.32 41.712 239.533 41.712ZM239.197 54.284C239.944 54.284 240.607 54.116 241.185 53.78C241.764 53.4253 242.175 52.912 242.417 52.24V50.7H239.421C237.629 50.7 236.733 51.288 236.733 52.464C236.733 53.024 236.948 53.472 237.377 53.808C237.825 54.1253 238.432 54.284 239.197 54.284ZM260.455 56.272C260.025 56.5893 259.493 56.832 258.859 57C258.243 57.1493 257.589 57.224 256.899 57.224C255.107 57.224 253.716 56.7667 252.727 55.852C251.756 54.9373 251.271 53.5933 251.271 51.82V45.632H248.947V42.272H251.271V38.604H255.639V42.272H259.391V45.632H255.639V51.764C255.639 52.3987 255.797 52.8933 256.115 53.248C256.451 53.584 256.917 53.752 257.515 53.752C258.205 53.752 258.793 53.5653 259.279 53.192L260.455 56.272ZM277.198 49.524C277.198 49.58 277.17 49.972 277.114 50.7H265.718C265.923 51.6333 266.408 52.3707 267.174 52.912C267.939 53.4533 268.891 53.724 270.03 53.724C270.814 53.724 271.504 53.612 272.102 53.388C272.718 53.1453 273.287 52.772 273.81 52.268L276.134 54.788C274.715 56.412 272.643 57.224 269.918 57.224C268.219 57.224 266.716 56.8973 265.41 56.244C264.103 55.572 263.095 54.648 262.386 53.472C261.676 52.296 261.322 50.9613 261.322 49.468C261.322 47.9933 261.667 46.668 262.358 45.492C263.067 44.2973 264.028 43.3733 265.242 42.72C266.474 42.048 267.846 41.712 269.358 41.712C270.832 41.712 272.167 42.0293 273.362 42.664C274.556 43.2987 275.49 44.2133 276.162 45.408C276.852 46.584 277.198 47.956 277.198 49.524ZM269.386 45.016C268.396 45.016 267.566 45.296 266.894 45.856C266.222 46.416 265.811 47.1813 265.662 48.152H273.082C272.932 47.2 272.522 46.444 271.85 45.884C271.178 45.3053 270.356 45.016 269.386 45.016Z" fill="white"/>
</svg>
