<svg width="347" height="571" viewBox="0 0 347 571" fill="none" xmlns="http://www.w3.org/2000/svg">
<rect width="347" height="571" rx="20" fill="#433E43" fill-opacity="0.85"/>
<path d="M36.384 49.096H30.112V45.4H47.192V49.096H40.92V65H36.384V49.096ZM53.1685 51.924C53.6911 51.196 54.3911 50.6453 55.2685 50.272C56.1645 49.8987 57.1911 49.712 58.3485 49.712V53.744C57.8631 53.7067 57.5365 53.688 57.3685 53.688C56.1178 53.688 55.1378 54.0427 54.4285 54.752C53.7191 55.4427 53.3645 56.488 53.3645 57.888V65H48.9965V49.936H53.1685V51.924ZM75.565 57.524C75.565 57.58 75.537 57.972 75.481 58.7H64.085C64.2903 59.6333 64.7756 60.3707 65.541 60.912C66.3063 61.4533 67.2583 61.724 68.397 61.724C69.181 61.724 69.8716 61.612 70.469 61.388C71.085 61.1453 71.6543 60.772 72.177 60.268L74.501 62.788C73.0823 64.412 71.0103 65.224 68.285 65.224C66.5863 65.224 65.0836 64.8973 63.777 64.244C62.4703 63.572 61.4623 62.648 60.753 61.472C60.0436 60.296 59.689 58.9613 59.689 57.468C59.689 55.9933 60.0343 54.668 60.725 53.492C61.4343 52.2973 62.3956 51.3733 63.609 50.72C64.841 50.048 66.213 49.712 67.725 49.712C69.1996 49.712 70.5343 50.0293 71.729 50.664C72.9236 51.2987 73.857 52.2133 74.529 53.408C75.2196 54.584 75.565 55.956 75.565 57.524ZM67.753 53.016C66.7636 53.016 65.933 53.296 65.261 53.856C64.589 54.416 64.1783 55.1813 64.029 56.152H71.449C71.2996 55.2 70.889 54.444 70.217 53.884C69.545 53.3053 68.7236 53.016 67.753 53.016ZM87.629 49.712C89.4957 49.712 90.9984 50.272 92.137 51.392C93.2944 52.512 93.873 54.1733 93.873 56.376V65H89.505V57.048C89.505 55.8533 89.2437 54.9667 88.721 54.388C88.1984 53.7907 87.4424 53.492 86.453 53.492C85.3517 53.492 84.4744 53.8373 83.821 54.528C83.1677 55.2 82.841 56.208 82.841 57.552V65H78.473V49.936H82.645V51.7C83.2237 51.0653 83.9424 50.58 84.801 50.244C85.6597 49.8893 86.6024 49.712 87.629 49.712ZM113.34 44.224V65H109.168V63.264C108.086 64.5707 106.518 65.224 104.464 65.224C103.046 65.224 101.758 64.9067 100.6 64.272C99.4618 63.6373 98.5658 62.732 97.9125 61.556C97.2591 60.38 96.9325 59.0173 96.9325 57.468C96.9325 55.9187 97.2591 54.556 97.9125 53.38C98.5658 52.204 99.4618 51.2987 100.6 50.664C101.758 50.0293 103.046 49.712 104.464 49.712C106.387 49.712 107.89 50.3187 108.972 51.532V44.224H113.34ZM105.22 61.64C106.322 61.64 107.236 61.2667 107.964 60.52C108.692 59.7547 109.056 58.7373 109.056 57.468C109.056 56.1987 108.692 55.1907 107.964 54.444C107.236 53.6787 106.322 53.296 105.22 53.296C104.1 53.296 103.176 53.6787 102.448 54.444C101.72 55.1907 101.356 56.1987 101.356 57.468C101.356 58.7373 101.72 59.7547 102.448 60.52C103.176 61.2667 104.1 61.64 105.22 61.64Z" fill="white"/>
<g clip-path="url(#clip0_70:275)">
<path opacity="0.2" d="M38 179.4H315" stroke="white" stroke-width="1.20074" stroke-dasharray="4.8 7.2"/>
<path opacity="0.2" d="M38 198.769H315" stroke="white" stroke-width="1.20074" stroke-dasharray="4.8 7.2"/>
<path opacity="0.2" d="M38 218.139H315" stroke="white" stroke-width="1.20074" stroke-dasharray="4.8 7.2"/>
<path opacity="0.2" d="M38 237.509H315" stroke="white" stroke-width="1.20074" stroke-dasharray="4.8 7.2"/>
<path opacity="0.2" d="M38 256.879H315" stroke="white" stroke-width="1.20074" stroke-dasharray="4.8 7.2"/>
<path opacity="0.2" d="M38 276.249H315" stroke="white" stroke-width="1.20074" stroke-dasharray="4.8 7.2"/>
<path opacity="0.2" d="M38 295.619H315" stroke="white" stroke-width="1.20074" stroke-dasharray="4.8 7.2"/>
<path opacity="0.2" d="M38 314.988H315" stroke="white" stroke-width="1.20074" stroke-dasharray="4.8 7.2"/>
<path opacity="0.5" d="M310.359 282.403C309.776 282.334 309.194 282.252 308.615 282.155C303.335 281.331 298.217 279.522 293.121 277.72C286.306 275.311 279.532 272.916 272.469 272.916C263 272.916 254.05 277.22 244.823 281.658C242.023 283.005 239.196 284.364 236.322 285.619C224.861 291.008 212.518 294.857 201.057 291.008C189.794 287.846 179.264 278.594 168.128 268.809C167.062 267.872 165.99 266.929 164.911 265.987C163.992 265.185 163.079 264.383 162.169 263.585C150.858 253.654 140.189 244.288 128.764 242.507C123.482 241.62 118.013 242.695 112.529 243.773C106.114 245.034 99.6785 246.299 93.4994 244.431C87.1262 242.444 80.753 237.685 74.5012 233.017C68.6453 228.645 62.896 224.352 57.3528 222.49C52.2324 221.053 47.2638 221.471 42.3209 222.946" stroke="#EC4444" stroke-width="6" stroke-linecap="round"/>
</g>
<path d="M49.883 145.1V157H48.846L41.196 147.344V157H39.938V145.1H40.975L48.642 154.756V145.1H49.883ZM61.2981 152.903H53.8181C53.8861 153.832 54.2431 154.586 54.8891 155.164C55.5351 155.731 56.3511 156.014 57.3371 156.014C57.8924 156.014 58.4024 155.918 58.8671 155.725C59.3318 155.521 59.7341 155.226 60.0741 154.841L60.7541 155.623C60.3574 156.099 59.8588 156.462 59.2581 156.711C58.6688 156.96 58.0171 157.085 57.3031 157.085C56.3851 157.085 55.5691 156.892 54.8551 156.507C54.1524 156.11 53.6028 155.566 53.2061 154.875C52.8094 154.184 52.6111 153.402 52.6111 152.529C52.6111 151.656 52.7981 150.874 53.1721 150.183C53.5574 149.492 54.0788 148.953 54.7361 148.568C55.4048 148.183 56.1528 147.99 56.9801 147.99C57.8074 147.99 58.5498 148.183 59.2071 148.568C59.8644 148.953 60.3801 149.492 60.7541 150.183C61.1281 150.863 61.3151 151.645 61.3151 152.529L61.2981 152.903ZM56.9801 149.027C56.1188 149.027 55.3934 149.305 54.8041 149.86C54.2261 150.404 53.8974 151.118 53.8181 152.002H60.1591C60.0798 151.118 59.7454 150.404 59.1561 149.86C58.5781 149.305 57.8528 149.027 56.9801 149.027ZM76.7299 148.058L73.3469 157H72.2079L69.3859 149.673L66.5639 157H65.4249L62.0589 148.058H63.2149L66.0199 155.657L68.8929 148.058H69.9299L72.7859 155.657L75.6249 148.058H76.7299ZM84.1525 149.809C84.4358 149.208 84.8551 148.755 85.4105 148.449C85.9771 148.143 86.6741 147.99 87.5015 147.99V149.163L87.2125 149.146C86.2718 149.146 85.5351 149.435 85.0025 150.013C84.4698 150.591 84.2035 151.401 84.2035 152.444V157H82.9965V148.058H84.1525V149.809ZM97.3899 152.903H89.9099C89.9779 153.832 90.3349 154.586 90.9809 155.164C91.6269 155.731 92.4429 156.014 93.4289 156.014C93.9842 156.014 94.4942 155.918 94.9589 155.725C95.4236 155.521 95.8259 155.226 96.1659 154.841L96.8459 155.623C96.4492 156.099 95.9506 156.462 95.3499 156.711C94.7606 156.96 94.1089 157.085 93.3949 157.085C92.4769 157.085 91.6609 156.892 90.9469 156.507C90.2442 156.11 89.6946 155.566 89.2979 154.875C88.9012 154.184 88.7029 153.402 88.7029 152.529C88.7029 151.656 88.8899 150.874 89.2639 150.183C89.6492 149.492 90.1706 148.953 90.8279 148.568C91.4966 148.183 92.2446 147.99 93.0719 147.99C93.8992 147.99 94.6416 148.183 95.2989 148.568C95.9562 148.953 96.4719 149.492 96.8459 150.183C97.2199 150.863 97.4069 151.645 97.4069 152.529L97.3899 152.903ZM93.0719 149.027C92.2106 149.027 91.4852 149.305 90.8959 149.86C90.3179 150.404 89.9892 151.118 89.9099 152.002H96.2509C96.1716 151.118 95.8372 150.404 95.2479 149.86C94.6699 149.305 93.9446 149.027 93.0719 149.027ZM104.471 147.99C105.309 147.99 106.069 148.183 106.749 148.568C107.429 148.942 107.961 149.475 108.347 150.166C108.732 150.857 108.925 151.645 108.925 152.529C108.925 153.424 108.732 154.218 108.347 154.909C107.961 155.6 107.429 156.139 106.749 156.524C106.08 156.898 105.321 157.085 104.471 157.085C103.745 157.085 103.088 156.938 102.499 156.643C101.921 156.337 101.445 155.895 101.071 155.317V160.298H99.8637V148.058H101.02V149.826C101.382 149.237 101.858 148.783 102.448 148.466C103.048 148.149 103.723 147.99 104.471 147.99ZM104.386 156.014C105.009 156.014 105.576 155.872 106.086 155.589C106.596 155.294 106.992 154.881 107.276 154.348C107.57 153.815 107.718 153.209 107.718 152.529C107.718 151.849 107.57 151.248 107.276 150.727C106.992 150.194 106.596 149.781 106.086 149.486C105.576 149.191 105.009 149.044 104.386 149.044C103.751 149.044 103.179 149.191 102.669 149.486C102.17 149.781 101.773 150.194 101.479 150.727C101.195 151.248 101.054 151.849 101.054 152.529C101.054 153.209 101.195 153.815 101.479 154.348C101.773 154.881 102.17 155.294 102.669 155.589C103.179 155.872 103.751 156.014 104.386 156.014ZM115.04 157.085C114.179 157.085 113.402 156.892 112.711 156.507C112.02 156.11 111.476 155.566 111.079 154.875C110.682 154.184 110.484 153.402 110.484 152.529C110.484 151.656 110.682 150.874 111.079 150.183C111.476 149.492 112.02 148.953 112.711 148.568C113.402 148.183 114.179 147.99 115.04 147.99C115.901 147.99 116.678 148.183 117.369 148.568C118.06 148.953 118.599 149.492 118.984 150.183C119.381 150.874 119.579 151.656 119.579 152.529C119.579 153.402 119.381 154.184 118.984 154.875C118.599 155.566 118.06 156.11 117.369 156.507C116.678 156.892 115.901 157.085 115.04 157.085ZM115.04 156.014C115.675 156.014 116.241 155.872 116.74 155.589C117.25 155.294 117.647 154.881 117.93 154.348C118.213 153.815 118.355 153.209 118.355 152.529C118.355 151.849 118.213 151.243 117.93 150.71C117.647 150.177 117.25 149.769 116.74 149.486C116.241 149.191 115.675 149.044 115.04 149.044C114.405 149.044 113.833 149.191 113.323 149.486C112.824 149.769 112.428 150.177 112.133 150.71C111.85 151.243 111.708 151.849 111.708 152.529C111.708 153.209 111.85 153.815 112.133 154.348C112.428 154.881 112.824 155.294 113.323 155.589C113.833 155.872 114.405 156.014 115.04 156.014ZM123.199 149.809C123.483 149.208 123.902 148.755 124.457 148.449C125.024 148.143 125.721 147.99 126.548 147.99V149.163L126.259 149.146C125.319 149.146 124.582 149.435 124.049 150.013C123.517 150.591 123.25 151.401 123.25 152.444V157H122.043V148.058H123.199V149.809ZM133.825 156.456C133.598 156.66 133.315 156.819 132.975 156.932C132.646 157.034 132.3 157.085 131.938 157.085C131.099 157.085 130.453 156.858 130 156.405C129.546 155.952 129.32 155.311 129.32 154.484V149.078H127.722V148.058H129.32V146.103H130.527V148.058H133.247V149.078H130.527V154.416C130.527 154.949 130.657 155.357 130.918 155.64C131.19 155.912 131.575 156.048 132.074 156.048C132.323 156.048 132.561 156.008 132.788 155.929C133.026 155.85 133.23 155.736 133.4 155.589L133.825 156.456ZM143.492 152.903H136.012C136.08 153.832 136.437 154.586 137.083 155.164C137.729 155.731 138.545 156.014 139.531 156.014C140.087 156.014 140.597 155.918 141.061 155.725C141.526 155.521 141.928 155.226 142.268 154.841L142.948 155.623C142.552 156.099 142.053 156.462 141.452 156.711C140.863 156.96 140.211 157.085 139.497 157.085C138.579 157.085 137.763 156.892 137.049 156.507C136.347 156.11 135.797 155.566 135.4 154.875C135.004 154.184 134.805 153.402 134.805 152.529C134.805 151.656 134.992 150.874 135.366 150.183C135.752 149.492 136.273 148.953 136.93 148.568C137.599 148.183 138.347 147.99 139.174 147.99C140.002 147.99 140.744 148.183 141.401 148.568C142.059 148.953 142.574 149.492 142.948 150.183C143.322 150.863 143.509 151.645 143.509 152.529L143.492 152.903ZM139.174 149.027C138.313 149.027 137.588 149.305 136.998 149.86C136.42 150.404 136.092 151.118 136.012 152.002H142.353C142.274 151.118 141.94 150.404 141.35 149.86C140.772 149.305 140.047 149.027 139.174 149.027ZM154.126 144.386V157H152.97V155.232C152.608 155.833 152.126 156.292 151.525 156.609C150.936 156.926 150.267 157.085 149.519 157.085C148.681 157.085 147.921 156.892 147.241 156.507C146.561 156.122 146.029 155.583 145.643 154.892C145.258 154.201 145.065 153.413 145.065 152.529C145.065 151.645 145.258 150.857 145.643 150.166C146.029 149.475 146.561 148.942 147.241 148.568C147.921 148.183 148.681 147.99 149.519 147.99C150.245 147.99 150.896 148.143 151.474 148.449C152.064 148.744 152.545 149.18 152.919 149.758V144.386H154.126ZM149.621 156.014C150.245 156.014 150.806 155.872 151.304 155.589C151.814 155.294 152.211 154.881 152.494 154.348C152.789 153.815 152.936 153.209 152.936 152.529C152.936 151.849 152.789 151.243 152.494 150.71C152.211 150.177 151.814 149.769 151.304 149.486C150.806 149.191 150.245 149.044 149.621 149.044C148.987 149.044 148.414 149.191 147.904 149.486C147.406 149.769 147.009 150.177 146.714 150.71C146.431 151.243 146.289 151.849 146.289 152.529C146.289 153.209 146.431 153.815 146.714 154.348C147.009 154.881 147.406 155.294 147.904 155.589C148.414 155.872 148.987 156.014 149.621 156.014ZM165.643 157.085C164.759 157.085 163.966 156.892 163.263 156.507C162.572 156.122 162.028 155.583 161.631 154.892C161.234 154.189 161.036 153.402 161.036 152.529C161.036 151.656 161.234 150.874 161.631 150.183C162.028 149.492 162.572 148.953 163.263 148.568C163.966 148.183 164.759 147.99 165.643 147.99C166.414 147.99 167.099 148.143 167.7 148.449C168.312 148.744 168.794 149.18 169.145 149.758L168.244 150.37C167.949 149.928 167.575 149.599 167.122 149.384C166.669 149.157 166.176 149.044 165.643 149.044C164.997 149.044 164.413 149.191 163.892 149.486C163.382 149.769 162.98 150.177 162.685 150.71C162.402 151.243 162.26 151.849 162.26 152.529C162.26 153.22 162.402 153.832 162.685 154.365C162.98 154.886 163.382 155.294 163.892 155.589C164.413 155.872 164.997 156.014 165.643 156.014C166.176 156.014 166.669 155.906 167.122 155.691C167.575 155.476 167.949 155.147 168.244 154.705L169.145 155.317C168.794 155.895 168.312 156.337 167.7 156.643C167.088 156.938 166.402 157.085 165.643 157.085ZM174.644 147.99C175.811 147.99 176.707 148.285 177.33 148.874C177.953 149.452 178.265 150.313 178.265 151.458V157H177.109V155.606C176.837 156.071 176.435 156.433 175.902 156.694C175.381 156.955 174.757 157.085 174.032 157.085C173.035 157.085 172.241 156.847 171.652 156.371C171.063 155.895 170.768 155.266 170.768 154.484C170.768 153.725 171.04 153.113 171.584 152.648C172.139 152.183 173.018 151.951 174.219 151.951H177.058V151.407C177.058 150.636 176.843 150.053 176.412 149.656C175.981 149.248 175.352 149.044 174.525 149.044C173.958 149.044 173.414 149.14 172.893 149.333C172.372 149.514 171.924 149.769 171.55 150.098L171.006 149.197C171.459 148.812 172.003 148.517 172.638 148.313C173.273 148.098 173.941 147.99 174.644 147.99ZM174.219 156.133C174.899 156.133 175.483 155.98 175.97 155.674C176.457 155.357 176.82 154.903 177.058 154.314V152.852H174.253C172.723 152.852 171.958 153.385 171.958 154.45C171.958 154.971 172.156 155.385 172.553 155.691C172.95 155.986 173.505 156.133 174.219 156.133ZM183.94 157.085C183.215 157.085 182.518 156.983 181.849 156.779C181.192 156.564 180.676 156.297 180.302 155.98L180.846 155.028C181.22 155.323 181.691 155.566 182.257 155.759C182.824 155.94 183.413 156.031 184.025 156.031C184.841 156.031 185.442 155.906 185.827 155.657C186.224 155.396 186.422 155.034 186.422 154.569C186.422 154.24 186.315 153.985 186.099 153.804C185.884 153.611 185.612 153.47 185.283 153.379C184.955 153.277 184.518 153.181 183.974 153.09C183.249 152.954 182.665 152.818 182.223 152.682C181.781 152.535 181.402 152.291 181.084 151.951C180.778 151.611 180.625 151.141 180.625 150.54C180.625 149.792 180.937 149.18 181.56 148.704C182.184 148.228 183.051 147.99 184.161 147.99C184.739 147.99 185.317 148.069 185.895 148.228C186.473 148.375 186.949 148.574 187.323 148.823L186.796 149.792C186.06 149.282 185.181 149.027 184.161 149.027C183.391 149.027 182.807 149.163 182.41 149.435C182.025 149.707 181.832 150.064 181.832 150.506C181.832 150.846 181.94 151.118 182.155 151.322C182.382 151.526 182.66 151.679 182.988 151.781C183.317 151.872 183.77 151.968 184.348 152.07C185.062 152.206 185.635 152.342 186.065 152.478C186.496 152.614 186.864 152.846 187.17 153.175C187.476 153.504 187.629 153.957 187.629 154.535C187.629 155.317 187.301 155.94 186.643 156.405C185.997 156.858 185.096 157.085 183.94 157.085ZM197.647 152.903H190.167C190.235 153.832 190.592 154.586 191.238 155.164C191.884 155.731 192.7 156.014 193.686 156.014C194.241 156.014 194.751 155.918 195.216 155.725C195.68 155.521 196.083 155.226 196.423 154.841L197.103 155.623C196.706 156.099 196.207 156.462 195.607 156.711C195.017 156.96 194.366 157.085 193.652 157.085C192.734 157.085 191.918 156.892 191.204 156.507C190.501 156.11 189.951 155.566 189.555 154.875C189.158 154.184 188.96 153.402 188.96 152.529C188.96 151.656 189.147 150.874 189.521 150.183C189.906 149.492 190.427 148.953 191.085 148.568C191.753 148.183 192.501 147.99 193.329 147.99C194.156 147.99 194.898 148.183 195.556 148.568C196.213 148.953 196.729 149.492 197.103 150.183C197.477 150.863 197.664 151.645 197.664 152.529L197.647 152.903ZM193.329 149.027C192.467 149.027 191.742 149.305 191.153 149.86C190.575 150.404 190.246 151.118 190.167 152.002H196.508C196.428 151.118 196.094 150.404 195.505 149.86C194.927 149.305 194.201 149.027 193.329 149.027ZM202.518 157.085C201.792 157.085 201.095 156.983 200.427 156.779C199.769 156.564 199.254 156.297 198.88 155.98L199.424 155.028C199.798 155.323 200.268 155.566 200.835 155.759C201.401 155.94 201.991 156.031 202.603 156.031C203.419 156.031 204.019 155.906 204.405 155.657C204.801 155.396 205 155.034 205 154.569C205 154.24 204.892 153.985 204.677 153.804C204.461 153.611 204.189 153.47 203.861 153.379C203.532 153.277 203.096 153.181 202.552 153.09C201.826 152.954 201.243 152.818 200.801 152.682C200.359 152.535 199.979 152.291 199.662 151.951C199.356 151.611 199.203 151.141 199.203 150.54C199.203 149.792 199.514 149.18 200.138 148.704C200.761 148.228 201.628 147.99 202.739 147.99C203.317 147.99 203.895 148.069 204.473 148.228C205.051 148.375 205.527 148.574 205.901 148.823L205.374 149.792C204.637 149.282 203.759 149.027 202.739 149.027C201.968 149.027 201.384 149.163 200.988 149.435C200.602 149.707 200.41 150.064 200.41 150.506C200.41 150.846 200.517 151.118 200.733 151.322C200.959 151.526 201.237 151.679 201.566 151.781C201.894 151.872 202.348 151.968 202.925 152.07C203.64 152.206 204.212 152.342 204.643 152.478C205.073 152.614 205.442 152.846 205.748 153.175C206.054 153.504 206.207 153.957 206.207 154.535C206.207 155.317 205.878 155.94 205.221 156.405C204.575 156.858 203.674 157.085 202.518 157.085ZM217.494 147.99C218.333 147.99 219.092 148.183 219.772 148.568C220.452 148.942 220.985 149.475 221.37 150.166C221.755 150.857 221.948 151.645 221.948 152.529C221.948 153.413 221.755 154.201 221.37 154.892C220.985 155.583 220.452 156.122 219.772 156.507C219.092 156.892 218.333 157.085 217.494 157.085C216.746 157.085 216.072 156.926 215.471 156.609C214.882 156.292 214.406 155.833 214.043 155.232V157H212.887V144.386H214.094V149.758C214.468 149.18 214.944 148.744 215.522 148.449C216.111 148.143 216.769 147.99 217.494 147.99ZM217.409 156.014C218.032 156.014 218.599 155.872 219.109 155.589C219.619 155.294 220.016 154.881 220.299 154.348C220.594 153.815 220.741 153.209 220.741 152.529C220.741 151.849 220.594 151.243 220.299 150.71C220.016 150.177 219.619 149.769 219.109 149.486C218.599 149.191 218.032 149.044 217.409 149.044C216.774 149.044 216.202 149.191 215.692 149.486C215.193 149.769 214.797 150.177 214.502 150.71C214.219 151.243 214.077 151.849 214.077 152.529C214.077 153.209 214.219 153.815 214.502 154.348C214.797 154.881 215.193 155.294 215.692 155.589C216.202 155.872 216.774 156.014 217.409 156.014ZM231.674 148.058L227.203 158.071C226.84 158.91 226.421 159.505 225.945 159.856C225.469 160.207 224.896 160.383 224.228 160.383C223.797 160.383 223.395 160.315 223.021 160.179C222.647 160.043 222.324 159.839 222.052 159.567L222.613 158.666C223.066 159.119 223.61 159.346 224.245 159.346C224.653 159.346 224.998 159.233 225.282 159.006C225.576 158.779 225.848 158.394 226.098 157.85L226.489 156.983L222.494 148.058H223.752L227.118 155.657L230.484 148.058H231.674ZM245.983 144.386V157H244.827V155.232C244.464 155.833 243.982 156.292 243.382 156.609C242.792 156.926 242.124 157.085 241.376 157.085C240.537 157.085 239.778 156.892 239.098 156.507C238.418 156.122 237.885 155.583 237.5 154.892C237.114 154.201 236.922 153.413 236.922 152.529C236.922 151.645 237.114 150.857 237.5 150.166C237.885 149.475 238.418 148.942 239.098 148.568C239.778 148.183 240.537 147.99 241.376 147.99C242.101 147.99 242.753 148.143 243.331 148.449C243.92 148.744 244.402 149.18 244.776 149.758V144.386H245.983ZM241.478 156.014C242.101 156.014 242.662 155.872 243.161 155.589C243.671 155.294 244.067 154.881 244.351 154.348C244.645 153.815 244.793 153.209 244.793 152.529C244.793 151.849 244.645 151.243 244.351 150.71C244.067 150.177 243.671 149.769 243.161 149.486C242.662 149.191 242.101 149.044 241.478 149.044C240.843 149.044 240.271 149.191 239.761 149.486C239.262 149.769 238.865 150.177 238.571 150.71C238.287 151.243 238.146 151.849 238.146 152.529C238.146 153.209 238.287 153.815 238.571 154.348C238.865 154.881 239.262 155.294 239.761 155.589C240.271 155.872 240.843 156.014 241.478 156.014ZM252.472 147.99C253.639 147.99 254.535 148.285 255.158 148.874C255.781 149.452 256.093 150.313 256.093 151.458V157H254.937V155.606C254.665 156.071 254.263 156.433 253.73 156.694C253.209 156.955 252.585 157.085 251.86 157.085C250.863 157.085 250.069 156.847 249.48 156.371C248.891 155.895 248.596 155.266 248.596 154.484C248.596 153.725 248.868 153.113 249.412 152.648C249.967 152.183 250.846 151.951 252.047 151.951H254.886V151.407C254.886 150.636 254.671 150.053 254.24 149.656C253.809 149.248 253.18 149.044 252.353 149.044C251.786 149.044 251.242 149.14 250.721 149.333C250.2 149.514 249.752 149.769 249.378 150.098L248.834 149.197C249.287 148.812 249.831 148.517 250.466 148.313C251.101 148.098 251.769 147.99 252.472 147.99ZM252.047 156.133C252.727 156.133 253.311 155.98 253.798 155.674C254.285 155.357 254.648 154.903 254.886 154.314V152.852H252.081C250.551 152.852 249.786 153.385 249.786 154.45C249.786 154.971 249.984 155.385 250.381 155.691C250.778 155.986 251.333 156.133 252.047 156.133ZM266.719 148.058L262.248 158.071C261.886 158.91 261.466 159.505 260.99 159.856C260.514 160.207 259.942 160.383 259.273 160.383C258.843 160.383 258.44 160.315 258.066 160.179C257.692 160.043 257.369 159.839 257.097 159.567L257.658 158.666C258.112 159.119 258.656 159.346 259.29 159.346C259.698 159.346 260.044 159.233 260.327 159.006C260.622 158.779 260.894 158.394 261.143 157.85L261.534 156.983L257.539 148.058H258.797L262.163 155.657L265.529 148.058H266.719Z" fill="white"/>
<g clip-path="url(#clip1_70:275)">
<path opacity="0.2" d="M36 400.4H313" stroke="white" stroke-width="1.20074" stroke-dasharray="4.8 7.2"/>
<path opacity="0.2" d="M36 419.769H313" stroke="white" stroke-width="1.20074" stroke-dasharray="4.8 7.2"/>
<path opacity="0.2" d="M36 439.139H313" stroke="white" stroke-width="1.20074" stroke-dasharray="4.8 7.2"/>
<path opacity="0.2" d="M36 458.509H313" stroke="white" stroke-width="1.20074" stroke-dasharray="4.8 7.2"/>
<path opacity="0.2" d="M36 477.879H313" stroke="white" stroke-width="1.20074" stroke-dasharray="4.8 7.2"/>
<path opacity="0.2" d="M36 497.249H313" stroke="white" stroke-width="1.20074" stroke-dasharray="4.8 7.2"/>
<path opacity="0.2" d="M36 516.619H313" stroke="white" stroke-width="1.20074" stroke-dasharray="4.8 7.2"/>
<path opacity="0.2" d="M36 535.988H313" stroke="white" stroke-width="1.20074" stroke-dasharray="4.8 7.2"/>
<path opacity="0.5" d="M308.359 503.403C307.776 503.334 307.194 503.252 306.615 503.155C301.335 502.331 296.217 500.522 291.121 498.72C284.306 496.311 277.532 493.916 270.469 493.916C261 493.916 252.05 498.22 242.823 502.658C240.023 504.005 237.196 505.364 234.322 506.619C222.861 512.008 210.518 515.857 199.057 512.008C187.794 508.846 177.264 499.594 166.128 489.809C165.062 488.872 163.99 487.929 162.911 486.987C161.992 486.185 161.079 485.383 160.169 484.585C148.858 474.654 138.189 465.288 126.764 463.507C121.482 462.62 116.013 463.695 110.529 464.773C104.114 466.034 97.6785 467.299 91.4994 465.431C85.1262 463.444 78.753 458.685 72.5012 454.017C66.6453 449.645 60.896 445.352 55.3528 443.49C50.2324 442.053 45.2638 442.471 40.3209 443.946" stroke="#EC4444" stroke-width="6" stroke-linecap="round"/>
</g>
<path d="M47.883 366.1V378H46.846L39.196 368.344V378H37.938V366.1H38.975L46.642 375.756V366.1H47.883ZM59.2981 373.903H51.8181C51.8861 374.832 52.2431 375.586 52.8891 376.164C53.5351 376.731 54.3511 377.014 55.3371 377.014C55.8924 377.014 56.4024 376.918 56.8671 376.725C57.3318 376.521 57.7341 376.226 58.0741 375.841L58.7541 376.623C58.3574 377.099 57.8588 377.462 57.2581 377.711C56.6688 377.96 56.0171 378.085 55.3031 378.085C54.3851 378.085 53.5691 377.892 52.8551 377.507C52.1524 377.11 51.6028 376.566 51.2061 375.875C50.8094 375.184 50.6111 374.402 50.6111 373.529C50.6111 372.656 50.7981 371.874 51.1721 371.183C51.5574 370.492 52.0788 369.953 52.7361 369.568C53.4048 369.183 54.1528 368.99 54.9801 368.99C55.8074 368.99 56.5498 369.183 57.2071 369.568C57.8644 369.953 58.3801 370.492 58.7541 371.183C59.1281 371.863 59.3151 372.645 59.3151 373.529L59.2981 373.903ZM54.9801 370.027C54.1188 370.027 53.3934 370.305 52.8041 370.86C52.2261 371.404 51.8974 372.118 51.8181 373.002H58.1591C58.0798 372.118 57.7454 371.404 57.1561 370.86C56.5781 370.305 55.8528 370.027 54.9801 370.027ZM74.7299 369.058L71.3469 378H70.2079L67.3859 370.673L64.5639 378H63.4249L60.0589 369.058H61.2149L64.0199 376.657L66.8929 369.058H67.9299L70.7859 376.657L73.6249 369.058H74.7299ZM82.1525 370.809C82.4358 370.208 82.8551 369.755 83.4105 369.449C83.9771 369.143 84.6741 368.99 85.5015 368.99V370.163L85.2125 370.146C84.2718 370.146 83.5351 370.435 83.0025 371.013C82.4698 371.591 82.2035 372.401 82.2035 373.444V378H80.9965V369.058H82.1525V370.809ZM95.3899 373.903H87.9099C87.9779 374.832 88.3349 375.586 88.9809 376.164C89.6269 376.731 90.4429 377.014 91.4289 377.014C91.9842 377.014 92.4942 376.918 92.9589 376.725C93.4236 376.521 93.8259 376.226 94.1659 375.841L94.8459 376.623C94.4492 377.099 93.9506 377.462 93.3499 377.711C92.7606 377.96 92.1089 378.085 91.3949 378.085C90.4769 378.085 89.6609 377.892 88.9469 377.507C88.2442 377.11 87.6946 376.566 87.2979 375.875C86.9012 375.184 86.7029 374.402 86.7029 373.529C86.7029 372.656 86.8899 371.874 87.2639 371.183C87.6492 370.492 88.1706 369.953 88.8279 369.568C89.4966 369.183 90.2446 368.99 91.0719 368.99C91.8992 368.99 92.6416 369.183 93.2989 369.568C93.9562 369.953 94.4719 370.492 94.8459 371.183C95.2199 371.863 95.4069 372.645 95.4069 373.529L95.3899 373.903ZM91.0719 370.027C90.2106 370.027 89.4852 370.305 88.8959 370.86C88.3179 371.404 87.9892 372.118 87.9099 373.002H94.2509C94.1716 372.118 93.8372 371.404 93.2479 370.86C92.6699 370.305 91.9446 370.027 91.0719 370.027ZM102.471 368.99C103.309 368.99 104.069 369.183 104.749 369.568C105.429 369.942 105.961 370.475 106.347 371.166C106.732 371.857 106.925 372.645 106.925 373.529C106.925 374.424 106.732 375.218 106.347 375.909C105.961 376.6 105.429 377.139 104.749 377.524C104.08 377.898 103.321 378.085 102.471 378.085C101.745 378.085 101.088 377.938 100.499 377.643C99.9207 377.337 99.4447 376.895 99.0707 376.317V381.298H97.8637V369.058H99.0197V370.826C99.3823 370.237 99.8583 369.783 100.448 369.466C101.048 369.149 101.723 368.99 102.471 368.99ZM102.386 377.014C103.009 377.014 103.576 376.872 104.086 376.589C104.596 376.294 104.992 375.881 105.276 375.348C105.57 374.815 105.718 374.209 105.718 373.529C105.718 372.849 105.57 372.248 105.276 371.727C104.992 371.194 104.596 370.781 104.086 370.486C103.576 370.191 103.009 370.044 102.386 370.044C101.751 370.044 101.179 370.191 100.669 370.486C100.17 370.781 99.7733 371.194 99.4787 371.727C99.1953 372.248 99.0537 372.849 99.0537 373.529C99.0537 374.209 99.1953 374.815 99.4787 375.348C99.7733 375.881 100.17 376.294 100.669 376.589C101.179 376.872 101.751 377.014 102.386 377.014ZM113.04 378.085C112.179 378.085 111.402 377.892 110.711 377.507C110.02 377.11 109.476 376.566 109.079 375.875C108.682 375.184 108.484 374.402 108.484 373.529C108.484 372.656 108.682 371.874 109.079 371.183C109.476 370.492 110.02 369.953 110.711 369.568C111.402 369.183 112.179 368.99 113.04 368.99C113.901 368.99 114.678 369.183 115.369 369.568C116.06 369.953 116.599 370.492 116.984 371.183C117.381 371.874 117.579 372.656 117.579 373.529C117.579 374.402 117.381 375.184 116.984 375.875C116.599 376.566 116.06 377.11 115.369 377.507C114.678 377.892 113.901 378.085 113.04 378.085ZM113.04 377.014C113.675 377.014 114.241 376.872 114.74 376.589C115.25 376.294 115.647 375.881 115.93 375.348C116.213 374.815 116.355 374.209 116.355 373.529C116.355 372.849 116.213 372.243 115.93 371.71C115.647 371.177 115.25 370.769 114.74 370.486C114.241 370.191 113.675 370.044 113.04 370.044C112.405 370.044 111.833 370.191 111.323 370.486C110.824 370.769 110.428 371.177 110.133 371.71C109.85 372.243 109.708 372.849 109.708 373.529C109.708 374.209 109.85 374.815 110.133 375.348C110.428 375.881 110.824 376.294 111.323 376.589C111.833 376.872 112.405 377.014 113.04 377.014ZM121.199 370.809C121.483 370.208 121.902 369.755 122.457 369.449C123.024 369.143 123.721 368.99 124.548 368.99V370.163L124.259 370.146C123.319 370.146 122.582 370.435 122.049 371.013C121.517 371.591 121.25 372.401 121.25 373.444V378H120.043V369.058H121.199V370.809ZM131.825 377.456C131.598 377.66 131.315 377.819 130.975 377.932C130.646 378.034 130.3 378.085 129.938 378.085C129.099 378.085 128.453 377.858 128 377.405C127.546 376.952 127.32 376.311 127.32 375.484V370.078H125.722V369.058H127.32V367.103H128.527V369.058H131.247V370.078H128.527V375.416C128.527 375.949 128.657 376.357 128.918 376.64C129.19 376.912 129.575 377.048 130.074 377.048C130.323 377.048 130.561 377.008 130.788 376.929C131.026 376.85 131.23 376.736 131.4 376.589L131.825 377.456ZM141.492 373.903H134.012C134.08 374.832 134.437 375.586 135.083 376.164C135.729 376.731 136.545 377.014 137.531 377.014C138.087 377.014 138.597 376.918 139.061 376.725C139.526 376.521 139.928 376.226 140.268 375.841L140.948 376.623C140.552 377.099 140.053 377.462 139.452 377.711C138.863 377.96 138.211 378.085 137.497 378.085C136.579 378.085 135.763 377.892 135.049 377.507C134.347 377.11 133.797 376.566 133.4 375.875C133.004 375.184 132.805 374.402 132.805 373.529C132.805 372.656 132.992 371.874 133.366 371.183C133.752 370.492 134.273 369.953 134.93 369.568C135.599 369.183 136.347 368.99 137.174 368.99C138.002 368.99 138.744 369.183 139.401 369.568C140.059 369.953 140.574 370.492 140.948 371.183C141.322 371.863 141.509 372.645 141.509 373.529L141.492 373.903ZM137.174 370.027C136.313 370.027 135.588 370.305 134.998 370.86C134.42 371.404 134.092 372.118 134.012 373.002H140.353C140.274 372.118 139.94 371.404 139.35 370.86C138.772 370.305 138.047 370.027 137.174 370.027ZM152.126 365.386V378H150.97V376.232C150.608 376.833 150.126 377.292 149.525 377.609C148.936 377.926 148.267 378.085 147.519 378.085C146.681 378.085 145.921 377.892 145.241 377.507C144.561 377.122 144.029 376.583 143.643 375.892C143.258 375.201 143.065 374.413 143.065 373.529C143.065 372.645 143.258 371.857 143.643 371.166C144.029 370.475 144.561 369.942 145.241 369.568C145.921 369.183 146.681 368.99 147.519 368.99C148.245 368.99 148.896 369.143 149.474 369.449C150.064 369.744 150.545 370.18 150.919 370.758V365.386H152.126ZM147.621 377.014C148.245 377.014 148.806 376.872 149.304 376.589C149.814 376.294 150.211 375.881 150.494 375.348C150.789 374.815 150.936 374.209 150.936 373.529C150.936 372.849 150.789 372.243 150.494 371.71C150.211 371.177 149.814 370.769 149.304 370.486C148.806 370.191 148.245 370.044 147.621 370.044C146.987 370.044 146.414 370.191 145.904 370.486C145.406 370.769 145.009 371.177 144.714 371.71C144.431 372.243 144.289 372.849 144.289 373.529C144.289 374.209 144.431 374.815 144.714 375.348C145.009 375.881 145.406 376.294 145.904 376.589C146.414 376.872 146.987 377.014 147.621 377.014ZM168.097 365.386V378H166.941V376.232C166.578 376.833 166.097 377.292 165.496 377.609C164.907 377.926 164.238 378.085 163.49 378.085C162.651 378.085 161.892 377.892 161.212 377.507C160.532 377.122 159.999 376.583 159.614 375.892C159.229 375.201 159.036 374.413 159.036 373.529C159.036 372.645 159.229 371.857 159.614 371.166C159.999 370.475 160.532 369.942 161.212 369.568C161.892 369.183 162.651 368.99 163.49 368.99C164.215 368.99 164.867 369.143 165.445 369.449C166.034 369.744 166.516 370.18 166.89 370.758V365.386H168.097ZM163.592 377.014C164.215 377.014 164.776 376.872 165.275 376.589C165.785 376.294 166.182 375.881 166.465 375.348C166.76 374.815 166.907 374.209 166.907 373.529C166.907 372.849 166.76 372.243 166.465 371.71C166.182 371.177 165.785 370.769 165.275 370.486C164.776 370.191 164.215 370.044 163.592 370.044C162.957 370.044 162.385 370.191 161.875 370.486C161.376 370.769 160.98 371.177 160.685 371.71C160.402 372.243 160.26 372.849 160.26 373.529C160.26 374.209 160.402 374.815 160.685 375.348C160.98 375.881 161.376 376.294 161.875 376.589C162.385 376.872 162.957 377.014 163.592 377.014ZM179.244 373.903H171.764C171.832 374.832 172.189 375.586 172.835 376.164C173.481 376.731 174.297 377.014 175.283 377.014C175.839 377.014 176.349 376.918 176.813 376.725C177.278 376.521 177.68 376.226 178.02 375.841L178.7 376.623C178.304 377.099 177.805 377.462 177.204 377.711C176.615 377.96 175.963 378.085 175.249 378.085C174.331 378.085 173.515 377.892 172.801 377.507C172.099 377.11 171.549 376.566 171.152 375.875C170.756 375.184 170.557 374.402 170.557 373.529C170.557 372.656 170.744 371.874 171.118 371.183C171.504 370.492 172.025 369.953 172.682 369.568C173.351 369.183 174.099 368.99 174.926 368.99C175.754 368.99 176.496 369.183 177.153 369.568C177.811 369.953 178.326 370.492 178.7 371.183C179.074 371.863 179.261 372.645 179.261 373.529L179.244 373.903ZM174.926 370.027C174.065 370.027 173.34 370.305 172.75 370.86C172.172 371.404 171.844 372.118 171.764 373.002H178.105C178.026 372.118 177.692 371.404 177.102 370.86C176.524 370.305 175.799 370.027 174.926 370.027ZM184.597 368.99C185.764 368.99 186.66 369.285 187.283 369.874C187.906 370.452 188.218 371.313 188.218 372.458V378H187.062V376.606C186.79 377.071 186.388 377.433 185.855 377.694C185.334 377.955 184.71 378.085 183.985 378.085C182.988 378.085 182.194 377.847 181.605 377.371C181.016 376.895 180.721 376.266 180.721 375.484C180.721 374.725 180.993 374.113 181.537 373.648C182.092 373.183 182.971 372.951 184.172 372.951H187.011V372.407C187.011 371.636 186.796 371.053 186.365 370.656C185.934 370.248 185.305 370.044 184.478 370.044C183.911 370.044 183.367 370.14 182.846 370.333C182.325 370.514 181.877 370.769 181.503 371.098L180.959 370.197C181.412 369.812 181.956 369.517 182.591 369.313C183.226 369.098 183.894 368.99 184.597 368.99ZM184.172 377.133C184.852 377.133 185.436 376.98 185.923 376.674C186.41 376.357 186.773 375.903 187.011 375.314V373.852H184.206C182.676 373.852 181.911 374.385 181.911 375.45C181.911 375.971 182.109 376.385 182.506 376.691C182.903 376.986 183.458 377.133 184.172 377.133ZM196.205 377.456C195.979 377.66 195.695 377.819 195.355 377.932C195.027 378.034 194.681 378.085 194.318 378.085C193.48 378.085 192.834 377.858 192.38 377.405C191.927 376.952 191.7 376.311 191.7 375.484V370.078H190.102V369.058H191.7V367.103H192.907V369.058H195.627V370.078H192.907V375.416C192.907 375.949 193.038 376.357 193.298 376.64C193.57 376.912 193.956 377.048 194.454 377.048C194.704 377.048 194.942 377.008 195.168 376.929C195.406 376.85 195.61 376.736 195.78 376.589L196.205 377.456ZM202.959 368.99C204.081 368.99 204.97 369.319 205.628 369.976C206.296 370.622 206.631 371.568 206.631 372.815V378H205.424V372.934C205.424 372.005 205.191 371.296 204.727 370.809C204.262 370.322 203.599 370.078 202.738 370.078C201.774 370.078 201.009 370.367 200.443 370.945C199.887 371.512 199.61 372.299 199.61 373.308V378H198.403V365.386H199.61V370.622C199.938 370.101 200.392 369.698 200.97 369.415C201.548 369.132 202.211 368.99 202.959 368.99ZM218.964 368.99C219.802 368.99 220.562 369.183 221.242 369.568C221.922 369.942 222.454 370.475 222.84 371.166C223.225 371.857 223.418 372.645 223.418 373.529C223.418 374.413 223.225 375.201 222.84 375.892C222.454 376.583 221.922 377.122 221.242 377.507C220.562 377.892 219.802 378.085 218.964 378.085C218.216 378.085 217.541 377.926 216.941 377.609C216.351 377.292 215.875 376.833 215.513 376.232V378H214.357V365.386H215.564V370.758C215.938 370.18 216.414 369.744 216.992 369.449C217.581 369.143 218.238 368.99 218.964 368.99ZM218.879 377.014C219.502 377.014 220.069 376.872 220.579 376.589C221.089 376.294 221.485 375.881 221.769 375.348C222.063 374.815 222.211 374.209 222.211 373.529C222.211 372.849 222.063 372.243 221.769 371.71C221.485 371.177 221.089 370.769 220.579 370.486C220.069 370.191 219.502 370.044 218.879 370.044C218.244 370.044 217.672 370.191 217.162 370.486C216.663 370.769 216.266 371.177 215.972 371.71C215.688 372.243 215.547 372.849 215.547 373.529C215.547 374.209 215.688 374.815 215.972 375.348C216.266 375.881 216.663 376.294 217.162 376.589C217.672 376.872 218.244 377.014 218.879 377.014ZM233.143 369.058L228.672 379.071C228.31 379.91 227.89 380.505 227.414 380.856C226.938 381.207 226.366 381.383 225.697 381.383C225.267 381.383 224.864 381.315 224.49 381.179C224.116 381.043 223.793 380.839 223.521 380.567L224.082 379.666C224.536 380.119 225.08 380.346 225.714 380.346C226.122 380.346 226.468 380.233 226.751 380.006C227.046 379.779 227.318 379.394 227.567 378.85L227.958 377.983L223.963 369.058H225.221L228.587 376.657L231.953 369.058H233.143ZM247.452 365.386V378H246.296V376.232C245.934 376.833 245.452 377.292 244.851 377.609C244.262 377.926 243.593 378.085 242.845 378.085C242.007 378.085 241.247 377.892 240.567 377.507C239.887 377.122 239.355 376.583 238.969 375.892C238.584 375.201 238.391 374.413 238.391 373.529C238.391 372.645 238.584 371.857 238.969 371.166C239.355 370.475 239.887 369.942 240.567 369.568C241.247 369.183 242.007 368.99 242.845 368.99C243.571 368.99 244.222 369.143 244.8 369.449C245.39 369.744 245.871 370.18 246.245 370.758V365.386H247.452ZM242.947 377.014C243.571 377.014 244.132 376.872 244.63 376.589C245.14 376.294 245.537 375.881 245.82 375.348C246.115 374.815 246.262 374.209 246.262 373.529C246.262 372.849 246.115 372.243 245.82 371.71C245.537 371.177 245.14 370.769 244.63 370.486C244.132 370.191 243.571 370.044 242.947 370.044C242.313 370.044 241.74 370.191 241.23 370.486C240.732 370.769 240.335 371.177 240.04 371.71C239.757 372.243 239.615 372.849 239.615 373.529C239.615 374.209 239.757 374.815 240.04 375.348C240.335 375.881 240.732 376.294 241.23 376.589C241.74 376.872 242.313 377.014 242.947 377.014ZM253.942 368.99C255.109 368.99 256.005 369.285 256.628 369.874C257.251 370.452 257.563 371.313 257.563 372.458V378H256.407V376.606C256.135 377.071 255.733 377.433 255.2 377.694C254.679 377.955 254.055 378.085 253.33 378.085C252.333 378.085 251.539 377.847 250.95 377.371C250.361 376.895 250.066 376.266 250.066 375.484C250.066 374.725 250.338 374.113 250.882 373.648C251.437 373.183 252.316 372.951 253.517 372.951H256.356V372.407C256.356 371.636 256.141 371.053 255.71 370.656C255.279 370.248 254.65 370.044 253.823 370.044C253.256 370.044 252.712 370.14 252.191 370.333C251.67 370.514 251.222 370.769 250.848 371.098L250.304 370.197C250.757 369.812 251.301 369.517 251.936 369.313C252.571 369.098 253.239 368.99 253.942 368.99ZM253.517 377.133C254.197 377.133 254.781 376.98 255.268 376.674C255.755 376.357 256.118 375.903 256.356 375.314V373.852H253.551C252.021 373.852 251.256 374.385 251.256 375.45C251.256 375.971 251.454 376.385 251.851 376.691C252.248 376.986 252.803 377.133 253.517 377.133ZM268.189 369.058L263.718 379.071C263.356 379.91 262.936 380.505 262.46 380.856C261.984 381.207 261.412 381.383 260.743 381.383C260.313 381.383 259.91 381.315 259.536 381.179C259.162 381.043 258.839 380.839 258.567 380.567L259.128 379.666C259.582 380.119 260.126 380.346 260.76 380.346C261.168 380.346 261.514 380.233 261.797 380.006C262.092 379.779 262.364 379.394 262.613 378.85L263.004 377.983L259.009 369.058H260.267L263.633 376.657L266.999 369.058H268.189Z" fill="white"/>
<path d="M91.7895 100.54H86.0286L84.8362 103.2H83.2411L88.1502 92.56H89.6834L94.6079 103.2H92.9819L91.7895 100.54ZM91.2474 99.324L88.9091 94.1104L86.5707 99.324H91.2474ZM96.0082 91.9216H97.4948V103.2H96.0082V91.9216ZM100.333 91.9216H101.82V103.2H100.333V91.9216ZM113.432 102.729C113.216 102.911 112.947 103.053 112.627 103.154C112.307 103.246 111.977 103.291 111.636 103.291C110.81 103.291 110.17 103.073 109.716 102.638C109.261 102.202 109.034 101.579 109.034 100.768V96.3448H107.641V95.144H109.034V93.3808H110.521V95.144H112.875V96.3448H110.521V100.707C110.521 101.143 110.629 101.477 110.846 101.71C111.073 101.943 111.393 102.06 111.806 102.06C112.261 102.06 112.648 101.933 112.968 101.68L113.432 102.729ZM115.23 95.144H116.716V103.2H115.23V95.144ZM115.973 93.5936C115.684 93.5936 115.441 93.5024 115.245 93.32C115.059 93.1376 114.966 92.9147 114.966 92.6512C114.966 92.3877 115.059 92.1648 115.245 91.9824C115.441 91.7899 115.684 91.6936 115.973 91.6936C116.262 91.6936 116.5 91.7848 116.685 91.9672C116.882 92.1395 116.98 92.3573 116.98 92.6208C116.98 92.8944 116.882 93.1275 116.685 93.32C116.5 93.5024 116.262 93.5936 115.973 93.5936ZM129.822 95.068C130.855 95.068 131.67 95.3619 132.269 95.9496C132.878 96.5373 133.183 97.4088 133.183 98.564V103.2H131.696V98.7312C131.696 97.9509 131.51 97.3632 131.139 96.968C130.777 96.5728 130.256 96.3752 129.575 96.3752C128.821 96.3752 128.222 96.6083 127.778 97.0744C127.334 97.5304 127.112 98.1891 127.112 99.0504V103.2H125.625V98.7312C125.625 97.9509 125.44 97.3632 125.068 96.968C124.707 96.5728 124.185 96.3752 123.504 96.3752C122.75 96.3752 122.151 96.6083 121.707 97.0744C121.264 97.5304 121.042 98.1891 121.042 99.0504V103.2H119.555V95.144H120.98V96.3448C121.279 95.9293 121.671 95.6152 122.157 95.4024C122.642 95.1795 123.194 95.068 123.814 95.068C124.454 95.068 125.021 95.1947 125.517 95.448C126.013 95.7013 126.395 96.0712 126.663 96.5576C126.973 96.0915 127.401 95.7267 127.948 95.4632C128.506 95.1997 129.13 95.068 129.822 95.068ZM143.381 99.2176C143.381 99.3291 143.371 99.476 143.35 99.6584H136.691C136.784 100.368 137.099 100.94 137.636 101.376C138.183 101.802 138.859 102.014 139.665 102.014C140.646 102.014 141.435 101.69 142.034 101.042L142.855 101.984C142.483 102.41 142.019 102.734 141.461 102.957C140.914 103.18 140.3 103.291 139.618 103.291C138.751 103.291 137.982 103.119 137.311 102.774C136.639 102.42 136.118 101.928 135.747 101.3C135.385 100.672 135.205 99.9624 135.205 99.172C135.205 98.3917 135.38 97.6875 135.731 97.0592C136.093 96.4309 136.583 95.9445 137.202 95.6C137.832 95.2453 138.54 95.068 139.324 95.068C140.108 95.068 140.805 95.2453 141.415 95.6C142.034 95.9445 142.514 96.4309 142.855 97.0592C143.206 97.6875 143.381 98.4069 143.381 99.2176ZM139.324 96.2992C138.612 96.2992 138.013 96.512 137.528 96.9376C137.053 97.3632 136.774 97.9205 136.691 98.6096H141.957C141.874 97.9307 141.59 97.3784 141.105 96.9528C140.63 96.5171 140.036 96.2992 139.324 96.2992Z" fill="white"/>
<path d="M68.1577 97.12C68.1577 92.7128 64.5177 89.14 60.0275 89.14C55.5373 89.14 51.8973 92.7128 51.8973 97.12V97.88C51.8973 102.287 55.5373 105.86 60.0275 105.86C64.5177 105.86 68.1577 102.287 68.1577 97.88V97.12Z" stroke="white" stroke-width="3"/>
<path d="M60.0275 102.25C62.5934 102.25 64.6734 100.123 64.6734 97.5C64.6734 94.8766 62.5934 92.75 60.0275 92.75C57.4617 92.75 55.3817 94.8766 55.3817 97.5C55.3817 100.123 57.4617 102.25 60.0275 102.25Z" fill="white"/>
<path d="M199.727 92.42H201.276V101.738H207.145V103.06H199.727V92.42ZM211.74 94.928C212.875 94.928 213.742 95.2016 214.341 95.7488C214.95 96.296 215.255 97.1117 215.255 98.196V103.06H213.846V101.996C213.598 102.371 213.242 102.66 212.777 102.862C212.323 103.055 211.781 103.151 211.151 103.151C210.232 103.151 209.494 102.933 208.937 102.498C208.389 102.062 208.116 101.489 208.116 100.78C208.116 100.071 208.379 99.5032 208.906 99.0776C209.432 98.6419 210.268 98.424 211.414 98.424H213.768V98.1352C213.768 97.5069 213.582 97.0256 213.211 96.6912C212.839 96.3568 212.292 96.1896 211.569 96.1896C211.084 96.1896 210.609 96.2707 210.145 96.4328C209.68 96.5848 209.287 96.7925 208.968 97.056L208.348 95.9616C208.771 95.6272 209.277 95.3739 209.866 95.2016C210.454 95.0192 211.078 94.928 211.74 94.928ZM211.399 102.026C211.967 102.026 212.457 101.905 212.87 101.662C213.283 101.408 213.582 101.054 213.768 100.598V99.4728H211.476C210.217 99.4728 209.587 99.8883 209.587 100.719C209.587 101.125 209.747 101.444 210.067 101.677C210.387 101.91 210.831 102.026 211.399 102.026ZM220.36 103.151C219.689 103.151 219.044 103.065 218.424 102.893C217.805 102.71 217.319 102.482 216.969 102.209L217.588 101.054C217.949 101.307 218.388 101.51 218.904 101.662C219.42 101.814 219.942 101.89 220.468 101.89C221.769 101.89 222.42 101.525 222.42 100.795C222.42 100.552 222.331 100.36 222.156 100.218C221.981 100.076 221.758 99.9744 221.49 99.9136C221.232 99.8427 220.86 99.7667 220.375 99.6856C219.714 99.5843 219.172 99.4677 218.749 99.336C218.336 99.2043 217.98 98.9813 217.681 98.6672C217.381 98.3531 217.232 97.9123 217.232 97.3448C217.232 96.6152 217.542 96.0325 218.161 95.5968C218.78 95.1509 219.611 94.928 220.654 94.928C221.201 94.928 221.748 94.9939 222.296 95.1256C222.842 95.2573 223.291 95.4347 223.643 95.6576L223.008 96.8128C222.337 96.3872 221.547 96.1744 220.639 96.1744C220.008 96.1744 219.528 96.2757 219.199 96.4784C218.868 96.6811 218.703 96.9496 218.703 97.284C218.703 97.5475 218.796 97.7552 218.982 97.9072C219.168 98.0592 219.394 98.1707 219.663 98.2416C219.942 98.3125 220.329 98.3936 220.825 98.4848C221.485 98.5963 222.017 98.7179 222.42 98.8496C222.832 98.9712 223.183 99.184 223.473 99.488C223.761 99.792 223.906 100.218 223.906 100.765C223.906 101.494 223.586 102.077 222.946 102.513C222.316 102.938 221.454 103.151 220.36 103.151ZM230.379 102.589C230.162 102.771 229.894 102.913 229.573 103.014C229.254 103.106 228.923 103.151 228.582 103.151C227.757 103.151 227.117 102.933 226.662 102.498C226.208 102.062 225.981 101.439 225.981 100.628V96.2048H224.587V95.004H225.981V93.2408H227.467V95.004H229.821V96.2048H227.467V100.567C227.467 101.003 227.576 101.337 227.793 101.57C228.02 101.804 228.34 101.92 228.753 101.92C229.207 101.92 229.594 101.793 229.914 101.54L230.379 102.589ZM239.185 92.2984C240.641 92.2984 241.76 92.7595 242.545 93.6816C243.34 94.6037 243.738 95.9109 243.738 97.6032C243.738 98.7888 243.521 99.8021 243.087 100.643C242.664 101.474 242.065 102.108 241.291 102.543C240.527 102.969 239.634 103.182 238.612 103.182C238.085 103.182 237.59 103.131 237.125 103.03C236.661 102.918 236.258 102.761 235.917 102.558L236.506 101.373C237.032 101.707 237.729 101.874 238.596 101.874C239.721 101.874 240.599 101.535 241.229 100.856C241.869 100.167 242.189 99.1688 242.189 97.8616V97.4816C241.879 97.9376 241.45 98.2872 240.904 98.5304C240.356 98.7635 239.742 98.88 239.061 98.88C238.349 98.88 237.708 98.7483 237.141 98.4848C236.583 98.2213 236.144 97.8464 235.824 97.36C235.515 96.8635 235.36 96.296 235.36 95.6576C235.36 94.9888 235.525 94.4011 235.855 93.8944C236.196 93.3877 236.655 92.9976 237.234 92.724C237.811 92.4403 238.462 92.2984 239.185 92.2984ZM239.324 97.6488C239.809 97.6488 240.243 97.5576 240.625 97.3752C241.007 97.1928 241.301 96.9445 241.508 96.6304C241.725 96.3163 241.833 95.9667 241.833 95.5816C241.833 95.2067 241.729 94.8672 241.523 94.5632C241.327 94.2491 241.032 94.0008 240.641 93.8184C240.258 93.6259 239.793 93.5296 239.247 93.5296C238.534 93.5296 237.956 93.7171 237.512 94.092C237.079 94.4669 236.862 94.9685 236.862 95.5968C236.862 96.2251 237.083 96.7267 237.528 97.1016C237.972 97.4664 238.57 97.6488 239.324 97.6488ZM249.656 103.182C248.799 103.182 248.035 102.969 247.364 102.543C246.703 102.108 246.182 101.479 245.8 100.658C245.418 99.8376 245.227 98.8648 245.227 97.74C245.227 96.6152 245.418 95.6424 245.8 94.8216C246.182 94.0008 246.703 93.3776 247.364 92.952C248.035 92.5163 248.799 92.2984 249.656 92.2984C250.503 92.2984 251.256 92.5163 251.917 92.952C252.588 93.3776 253.115 94.0008 253.496 94.8216C253.879 95.6424 254.069 96.6152 254.069 97.74C254.069 98.8648 253.879 99.8376 253.496 100.658C253.115 101.479 252.588 102.108 251.917 102.543C251.256 102.969 250.503 103.182 249.656 103.182ZM249.656 101.829C250.523 101.829 251.215 101.479 251.731 100.78C252.257 100.081 252.521 99.0675 252.521 97.74C252.521 96.4125 252.257 95.3992 251.731 94.7C251.215 94.0008 250.523 93.6512 249.656 93.6512C248.778 93.6512 248.076 94.0008 247.55 94.7C247.034 95.3992 246.775 96.4125 246.775 97.74C246.775 99.0675 247.034 100.081 247.55 100.78C248.076 101.479 248.778 101.829 249.656 101.829ZM268.124 91.7816V103.06H266.699V101.783C266.369 102.229 265.951 102.569 265.445 102.802C264.939 103.035 264.381 103.151 263.772 103.151C262.978 103.151 262.265 102.979 261.635 102.634C261.005 102.29 260.51 101.809 260.148 101.19C259.798 100.562 259.622 99.8427 259.622 99.032C259.622 98.2213 259.798 97.5069 260.148 96.8888C260.51 96.2707 261.005 95.7893 261.635 95.4448C262.265 95.1003 262.978 94.928 263.772 94.928C264.361 94.928 264.903 95.0395 265.398 95.2624C265.894 95.4752 266.307 95.7944 266.637 96.22V91.7816H268.124ZM263.896 101.874C264.412 101.874 264.882 101.758 265.305 101.525C265.729 101.282 266.059 100.947 266.296 100.522C266.534 100.086 266.652 99.5893 266.652 99.032C266.652 98.4747 266.534 97.9832 266.296 97.5576C266.059 97.1219 265.729 96.7875 265.305 96.5544C264.882 96.3213 264.412 96.2048 263.896 96.2048C263.369 96.2048 262.895 96.3213 262.471 96.5544C262.059 96.7875 261.728 97.1219 261.48 97.5576C261.243 97.9832 261.124 98.4747 261.124 99.032C261.124 99.5893 261.243 100.086 261.48 100.522C261.728 100.947 262.059 101.282 262.471 101.525C262.895 101.758 263.369 101.874 263.896 101.874ZM273.925 94.928C275.061 94.928 275.929 95.2016 276.527 95.7488C277.137 96.296 277.441 97.1117 277.441 98.196V103.06H276.032V101.996C275.784 102.371 275.428 102.66 274.963 102.862C274.509 103.055 273.967 103.151 273.337 103.151C272.418 103.151 271.68 102.933 271.123 102.498C270.575 102.062 270.302 101.489 270.302 100.78C270.302 100.071 270.565 99.5032 271.092 99.0776C271.618 98.6419 272.454 98.424 273.6 98.424H275.954V98.1352C275.954 97.5069 275.768 97.0256 275.397 96.6912C275.025 96.3568 274.478 96.1896 273.755 96.1896C273.27 96.1896 272.795 96.2707 272.33 96.4328C271.866 96.5848 271.473 96.7925 271.153 97.056L270.534 95.9616C270.958 95.6272 271.463 95.3739 272.052 95.2016C272.64 95.0192 273.265 94.928 273.925 94.928ZM273.585 102.026C274.152 102.026 274.643 101.905 275.056 101.662C275.469 101.408 275.768 101.054 275.954 100.598V99.4728H273.662C272.402 99.4728 271.773 99.8883 271.773 100.719C271.773 101.125 271.933 101.444 272.253 101.677C272.573 101.91 273.017 102.026 273.585 102.026ZM287.304 95.004L283.324 103.866C282.973 104.686 282.56 105.264 282.085 105.598C281.621 105.933 281.058 106.1 280.397 106.1C279.994 106.1 279.602 106.034 279.22 105.902C278.849 105.781 278.539 105.598 278.291 105.355L278.926 104.261C279.349 104.656 279.84 104.854 280.397 104.854C280.759 104.854 281.058 104.757 281.295 104.565C281.543 104.382 281.765 104.063 281.961 103.607L282.224 103.045L278.601 95.004H280.149L283.014 101.449L285.848 95.004H287.304ZM290.939 103.151C290.268 103.151 289.623 103.065 289.003 102.893C288.384 102.71 287.899 102.482 287.548 102.209L288.167 101.054C288.529 101.307 288.967 101.51 289.484 101.662C290 101.814 290.521 101.89 291.048 101.89C292.348 101.89 292.999 101.525 292.999 100.795C292.999 100.552 292.911 100.36 292.736 100.218C292.56 100.076 292.338 99.9744 292.07 99.9136C291.812 99.8427 291.44 99.7667 290.955 99.6856C290.294 99.5843 289.752 99.4677 289.329 99.336C288.916 99.2043 288.56 98.9813 288.26 98.6672C287.961 98.3531 287.811 97.9123 287.811 97.3448C287.811 96.6152 288.121 96.0325 288.74 95.5968C289.36 95.1509 290.19 94.928 291.233 94.928C291.781 94.928 292.328 94.9939 292.875 95.1256C293.422 95.2573 293.872 95.4347 294.222 95.6576L293.587 96.8128C292.916 96.3872 292.126 96.1744 291.218 96.1744C290.589 96.1744 290.108 96.2757 289.778 96.4784C289.447 96.6811 289.282 96.9496 289.282 97.284C289.282 97.5475 289.375 97.7552 289.561 97.9072C289.747 98.0592 289.974 98.1707 290.242 98.2416C290.521 98.3125 290.908 98.3936 291.404 98.4848C292.064 98.5963 292.596 98.7179 292.999 98.8496C293.412 98.9712 293.763 99.184 294.052 99.488C294.341 99.792 294.486 100.218 294.486 100.765C294.486 101.494 294.166 102.077 293.525 102.513C292.896 102.938 292.033 103.151 290.939 103.151Z" fill="white"/>
<path d="M183.002 96.98C183.002 92.5728 179.362 89 174.872 89C170.382 89 166.742 92.5728 166.742 96.98V97.74C166.742 102.147 170.382 105.72 174.872 105.72C179.362 105.72 183.002 102.147 183.002 97.74V96.98Z" stroke="white" stroke-width="3"/>
<defs>
<clipPath id="clip0_70:275">
<rect width="277" height="138" fill="white" transform="translate(38 178)"/>
</clipPath>
<clipPath id="clip1_70:275">
<rect width="277" height="138" fill="white" transform="translate(36 399)"/>
</clipPath>
</defs>
</svg>
