<svg width="883" height="533" viewBox="0 0 883 533" fill="none" xmlns="http://www.w3.org/2000/svg">
<path fill-rule="evenodd" clip-rule="evenodd" d="M856.568 132.43L856.277 132.236V132.527L856.568 132.43V132.43ZM853.656 129.805L854.335 129.514V129.125L853.656 129.805ZM865.692 122.223L865.595 120.862L865.401 120.084L865.692 122.223H865.692ZM823.273 112.21L822.594 112.502L817.061 114.154L815.119 114.835L812.887 115.515L812.11 115.807V116.099L812.401 121.154L812.693 125.82L812.984 130.097L813.469 130.389L815.216 129.903L823.079 127.57L823.273 128.056L837.251 122.709L837.348 122.903L838.61 122.417L843.075 120.668L847.346 125.82L847.929 125.334L848.22 123.876L848.123 126.209H849.094L849.385 127.375L850.258 129.028L854.821 123.487L858.606 124.75L859.48 122.806L865.692 119.501L863.072 114.349L863.751 117.654L860.548 120.084L856.956 120.376L849.773 112.696L846.57 107.836L849.773 104.433L846.473 104.239L845.114 101.031L845.017 100.836L839.484 106.863L827.253 110.946L823.273 112.21Z" fill="#EE867D" stroke="white" stroke-linejoin="round"/>
<path fill-rule="evenodd" clip-rule="evenodd" d="M458.778 53.1054L460.72 60.0074L464.797 84.8936L466.738 94.8092L467.32 103.558L469.553 108.808L470.038 113.279L470.427 114.738L470.329 115.029L466.447 121.445L468.971 125.722L473.824 159.941L474.018 164.413L478.872 164.121L497.994 163.052L545.752 159.066L550.509 158.58V158.094L549.15 150.609L543.229 147.595L538.569 142.734L531.192 138.263L528.862 138.068L525.271 135.346L526.241 121.931L522.844 118.82L524.009 113.377L530.221 107.738L529.153 96.0729L531.386 93.5454L538.957 85.5741L547.597 74.4919L550.897 72.1588L556.721 69.3397L562.837 64.7708L558.76 65.5485L556.333 63.7014L547.014 64.9652L545.558 63.2154L537.21 66.6178L530.512 63.7987L528.668 61.5628L523.329 61.9516L519.738 60.1046L520.903 58.7436L516.34 57.2855H512.263L505.76 60.1046L504.498 58.1604L494.209 56.7022L490.714 47.9532L490.326 45.3284L485.861 44.0647L486.249 51.55L474.406 52.4249L459.749 53.0082L458.778 53.1054H458.778Z" fill="#EE867D" stroke="white" stroke-linejoin="round"/>
<path fill-rule="evenodd" clip-rule="evenodd" d="M365.883 52.2305L333.753 50.0919L310.36 47.856L287.063 45.1341L272.6 43.1899L249.497 39.593L237.946 37.6488L212.125 32.691L209.408 32.1077L205.234 51.9389L207.078 55.5357L208.534 61.0768L207.66 61.8545L209.505 66.9095L212.028 69.0481L219.212 81.1024L219.891 83.1438L222.803 82.9494L219.406 98.8921L218.047 99.281L216.202 104.628L225.812 105.308L226.589 109.78L232.025 123.098L232.995 123.875L236.781 131.652L237.752 130.875L245.809 130.777L256.001 131.847L258.525 128.542L261.534 133.985L262.116 134.277L262.213 133.694L263.572 124.167L296.77 128.25L323.27 130.777L337.248 131.944L362.195 133.402L363.456 133.499H363.748L363.845 132.138L364.136 125.431L364.524 116.585L364.621 114.349L364.815 110.46L366.369 79.9359L367.631 56.2162L367.728 52.3278L365.883 52.2305L365.883 52.2305Z" fill="#EEBBB7" stroke="white" stroke-linejoin="round"/>
<path fill-rule="evenodd" clip-rule="evenodd" d="M456.74 53.1055L427.425 53.6888L406.943 53.5916L389.374 53.2027L368.795 52.425L367.727 52.3278L367.63 56.2163L366.368 79.9359L364.815 110.46L364.621 114.349L368.407 114.543L411.214 115.71L450.721 115.418L467.126 114.932L470.427 114.738L470.038 113.279L469.553 108.808L467.32 103.558L466.738 94.8093L464.797 84.8937L460.72 60.0075L458.778 53.1055H456.74L456.74 53.1055Z" fill="#EEBBB7" stroke="white" stroke-linejoin="round"/>
<path fill-rule="evenodd" clip-rule="evenodd" d="M316.572 494.932L313.563 492.696L310.942 493.377L311.524 498.821L307.933 503.292L311.039 510.389L311.913 517.68L315.504 520.013L317.737 516.416L321.717 513.5L326.57 512.236L331.909 507.667L326.667 503.195L326.57 500.473L316.572 494.932H316.572ZM298.905 487.058L297.449 485.794L296.09 487.641L298.905 487.058ZM291.625 482.878L292.013 479.281L290.169 478.989L291.625 482.878ZM297.74 476.948L296.09 477.726L297.255 481.42L299.779 481.614L300.555 484.822L303.273 485.989L309.292 483.17L303.662 478.503L297.74 476.948ZM285.316 472.962L284.442 475.587L288.616 475.49L292.499 476.462L290.46 473.254L285.316 472.962V472.962ZM273.085 465.283L270.852 463.144L266.581 466.449L269.299 471.504L271.241 469.463L276.774 470.629L276.288 468.296L273.085 465.283ZM229.598 461.005L230.18 459.644L231.83 458.769L229.598 461.005ZM245.032 452.159L238.237 454.687L237.558 456.534L240.276 458.478L244.061 459.45L246.779 454.103L245.032 452.159ZM197.953 434.272V434.175H197.759L197.953 434.272ZM146.507 421.537V421.732H146.604L146.507 421.537ZM117.58 414.149H117.386V414.247L117.58 414.149ZM87.6827 388.971L87.5856 388.68V388.777L87.6827 388.971V388.971ZM21.1903 367.682L20.8991 367.974L21.0933 368.071L21.1904 367.682L21.1903 367.682Z" fill="#EE867D" stroke="white" stroke-linejoin="round"/>
<path fill-rule="evenodd" clip-rule="evenodd" d="M209.311 32.1077L200.671 30.3579L197.856 29.6774L196.594 29.3857L185.334 80.1302L185.82 84.3103L185.432 88.6848L185.626 89.6569V89.7542L185.723 91.6012L189.023 95.198L184.267 107.155L174.172 120.376L173.88 122.806L176.501 129.028L167.28 167.329L166.891 169.371L169.609 169.954L197.08 175.398L208.049 177.439L210.864 177.925L213.582 178.411L227.56 180.647L252.603 184.438L255.418 184.827L255.807 181.619L256.68 175.3L259.981 150.025L261.728 137.485L262.116 134.277L261.534 133.985L258.525 128.542L256.001 131.847L245.809 130.777L237.752 130.875L236.781 131.652L232.995 123.875L232.025 123.098L226.589 109.78L225.812 105.308L216.202 104.628L218.047 99.281L219.406 98.8921L222.803 82.9494L219.891 83.1438L219.212 81.1024L212.028 69.0481L209.505 66.9095L207.66 61.8545L208.534 61.0768L207.078 55.5357L205.234 51.9389L209.408 32.1077H209.311V32.1077Z" fill="#EE867D" stroke="white" stroke-linejoin="round"/>
<path fill-rule="evenodd" clip-rule="evenodd" d="M92.3421 56.3134L92.4392 54.6608L92.2451 54.758L92.3422 56.3134H92.3421ZM113.018 47.4672L113.6 46.495L112.921 46.3978L113.018 47.4672H113.018ZM111.174 45.7174L111.756 43.7731L111.174 43.5787V45.7174ZM118.26 42.8982L118.162 40.954L116.512 43.4815L118.26 42.8982H118.26ZM118.454 38.8153L118.745 36.8711L118.551 36.385L118.454 38.8153H118.454ZM118.745 29.2886L118.648 28.2193L118.26 28.1221L118.745 29.2886H118.745ZM121.851 22.8726L120.978 22.7754L119.23 25.4973L121.851 22.8726V22.8726ZM119.424 20.2479L119.91 19.8591L120.007 19.5674L119.424 20.2479H119.424ZM118.939 20.5395L118.648 18.5953L117.774 20.2479L118.939 20.5395ZM118.454 17.8176L117.58 17.4288L118.26 18.4009L118.454 17.8176ZM121.366 19.4702V18.2065L121.075 18.6925L121.366 19.4702ZM122.239 18.2065L121.851 17.9148H121.754L122.239 18.2065H122.239ZM116.706 16.0678L116.221 15.679L116.027 15.5818L116.706 16.0678V16.0678ZM120.298 15.679L117.677 16.3594L118.357 16.5539L120.298 15.679ZM118.163 15.4845L117.677 14.9013L117.58 14.9985L118.162 15.4845L118.163 15.4845ZM120.201 14.318H119.813L120.298 14.5124L120.201 14.318H120.201ZM101.175 64.1876L104.67 67.9788L104.087 75.2697L104.767 77.1167L110.009 79.9358L124.763 81.2968L125.346 83.0466L132.335 83.1439L138.935 84.0188L149.71 82.8522L155.049 83.7271L156.505 83.0467L183.781 89.2682L185.626 89.657L185.431 88.6849L185.82 84.3104L185.334 80.1303L196.594 29.3858L195.041 29.0942L172.327 23.7476L152.525 18.6926L130.102 12.471L123.404 10.8184L124.957 19.2758L123.501 21.9978L120.88 20.6368L123.404 32.3994L120.686 36.2879L119.424 39.8847V43.5787L113.697 47.5644L111.271 46.009L108.941 47.1756L113.212 41.6345L112.144 45.4258L114.571 42.801L116.512 43.1899L115.93 38.3293L117.192 38.5237L119.813 32.691L118.939 31.8161L115.542 36.1907L113.309 36.2879L115.736 33.5659L118.454 32.8855L117.483 27.9277L114.765 27.2472L113.406 24.9141L111.756 25.789L102.826 21.9005L94.963 15.7762L92.8275 21.7061L92.6333 24.2336L94.2835 28.7054L93.2157 43.1899L92.4392 45.4258L96.8073 45.8146L92.4392 48.9254L94.7688 50.0919L92.9245 56.3135L92.0509 51.4529L90.4007 57.0911L92.6333 59.8131L95.06 59.6187L97.9721 61.3685L99.4282 64.1876H101.175V64.1876Z" fill="#EC5044" stroke="white" stroke-linejoin="round"/>
<path fill-rule="evenodd" clip-rule="evenodd" d="M272.406 289.524L239.693 285.441L222.124 282.914L197.08 278.928L194.556 278.539V278.734L190.285 297.593L188.052 297.496L184.655 294.482L180.384 298.079L180.287 313.535L178.734 316.841V317.132V317.23L178.54 319.66L181.937 328.798L184.946 332.881L179.51 336.089L177.375 340.074L173.88 348.629L172.133 349.018L172.036 356.114L175.045 358.35L173.492 362.627L169.997 362.822L167.959 366.613L174.948 370.988L188.149 378.376L228.918 400.054L263.475 404.331H263.863L266.581 375.654L267.261 368.557L274.541 293.315L274.929 289.816L272.405 289.524H272.406Z" fill="#EE867D" stroke="white" stroke-linejoin="round"/>
<path fill-rule="evenodd" clip-rule="evenodd" d="M106.223 343.477L106.611 345.615V346.004L106.223 343.477ZM91.9538 335.116L92.6333 336.575L93.0215 336.477L91.9538 335.116V335.116ZM108.941 334.825L109.232 337.352L110.979 338.616L108.941 334.825ZM97.1955 321.021L96.1278 320.729L97.0014 321.118L97.1955 321.021V321.021ZM86.4208 318.104L83.8 319.66L84.4795 320.34L86.4208 318.104ZM81.3733 316.257L81.1791 317.035L82.0527 317.229L81.3733 316.257ZM89.9153 318.202L94.1864 320.632L94.9629 319.951L89.9153 318.202ZM67.2011 233.044L67.104 232.753V233.141L67.2011 233.044V233.044ZM123.21 159.261L119.424 158.288L77.8788 146.818L62.4448 142.151V142.54L61.5711 152.164L57.4942 163.538L50.6994 171.995L50.5052 176.273L53.8056 182.203L55.4558 189.979L53.1261 196.298L53.5144 202.617L52.3496 205.242L56.3294 213.894L58.8532 217.199L58.6591 226.628L64.6773 232.364L68.1718 226.531L71.9575 229.545L73.4136 228.184L68.1718 229.156L68.0747 234.114L69.1425 240.335L66.2304 237.516L64.5802 233.725L64.0949 238.974L65.4539 249.376L70.8897 256.083L67.2982 260.75L67.8806 266.679L71.7634 272.707L78.5582 291.371L80.6937 292.538L80.0142 305.467L81.082 307.022L95.6424 312.272L100.108 317.035L101.661 320.146L105.932 322.576L110.591 323.451L112.532 328.798L116.415 330.645L122.239 337.547L127.675 346.587L127.287 354.948L130.296 358.933L169.997 362.822L173.492 362.627L175.045 358.35L172.036 356.114L172.133 349.018L173.88 348.629L177.375 340.074L179.51 336.089L184.946 332.881L181.937 328.798L178.54 319.66L178.734 317.229V317.132L176.21 313.73L168.444 303.328L153.399 282.136L132.432 252L120.589 235.572L109.135 219.046L122.336 162.955L123.21 159.261L123.21 159.261Z" fill="#EC5044" stroke="white" stroke-linejoin="round"/>
<path fill-rule="evenodd" clip-rule="evenodd" d="M389.859 235.086L390.247 216.032L385.588 215.838L361.903 214.963L359.574 214.866L357.632 214.768L328.803 212.921L309.583 211.366L285.607 209.033L283.277 208.741L282.986 211.269L277.744 261.916L275.9 279.609L275.123 287.288L274.929 289.816L277.938 290.107L326.861 294.385L348.411 295.746L369.863 296.718L372.969 296.815L374.911 296.912L378.987 297.01L380.929 297.107L387.044 297.301H388.597V295.357L389.665 243.932L389.762 238.197V236.35L389.859 235.086L389.859 235.086Z" fill="#EE867D" stroke="white" stroke-linejoin="round"/>
<path fill-rule="evenodd" clip-rule="evenodd" d="M195.041 275.428L205.137 212.533L210.281 181.036L210.864 177.925L208.049 177.439L197.08 175.398L169.609 169.954L166.891 169.371L164.173 168.787L150.487 165.774L125.928 159.941L123.21 159.261L122.336 162.955L109.135 219.046L120.589 235.572L132.432 252L153.399 282.136L168.444 303.328L176.21 313.73L178.734 317.132V316.841L180.287 313.535L180.384 298.079L184.655 294.482L188.052 297.496L190.285 297.593L194.556 278.734V278.539L195.041 275.429L195.041 275.428Z" fill="#EE867D" stroke="white" stroke-linejoin="round"/>
<path fill-rule="evenodd" clip-rule="evenodd" d="M372.678 304.398L372.775 301.87L372.872 299.343L372.969 296.815L369.863 296.718L348.411 295.746L326.861 294.385L277.938 290.108L274.929 289.816L274.541 293.315L267.261 368.557L266.581 375.654L263.863 404.331L264.252 404.428L277.647 405.692L278.909 398.887L281.336 396.943L308.515 399.373H308.709L306.283 394.61L318.61 395.485L349.381 397.235L368.601 398.11L371.901 306.925L372.581 307.022L372.678 304.398L372.678 304.398Z" fill="#EE867D" stroke="white" stroke-linejoin="round"/>
<path fill-rule="evenodd" clip-rule="evenodd" d="M62.4448 142.151L77.8788 146.817L119.424 158.288L123.21 159.261L125.928 159.941L150.487 165.774L164.173 168.787L166.891 169.371L167.28 167.329L176.501 129.028L173.88 122.806L174.171 120.376L184.267 107.155L189.023 95.1981L185.723 91.6012L185.626 89.7542V89.657L183.781 89.2681L156.505 83.0466L155.049 83.7271L149.71 82.8522L138.935 84.0187L132.335 83.1438L125.346 83.0465L124.763 81.2967L110.009 79.9358L104.767 77.1166L104.087 75.2696L104.67 67.9787L101.175 64.1875L100.884 64.2847L100.205 64.7708L95.3513 62.2433L92.4392 63.1182L90.4978 62.146L88.4593 70.5062L87.1004 72.8393L81.0821 87.5183L79.3348 95.5868L78.2671 95.6841L72.6371 109.099L68.8514 114.835L67.4924 115.807L63.9979 122.612L63.3184 129.805L61.1829 136.221L62.4448 142.054V142.151L62.4448 142.151ZM97.9722 62.3405L97.681 61.4656L97.5838 62.1461L97.9721 62.3405H97.9722Z" fill="#EE867D" stroke="white" stroke-linejoin="round"/>
<path fill-rule="evenodd" clip-rule="evenodd" d="M252.603 184.438L227.56 180.647L213.582 178.411L210.864 177.925L210.281 181.036L205.137 212.532L195.041 275.428L194.556 278.539L197.08 278.928L222.124 282.914L239.693 285.441L272.406 289.524L274.929 289.816L275.123 287.288L275.9 279.608L277.744 261.916L282.986 211.269L283.277 208.741L281.336 208.547L256.583 205.533L252.798 205.047L255.224 186.091L255.418 184.827L252.603 184.438Z" fill="#EE867D" stroke="white" stroke-linejoin="round"/>
<path fill-rule="evenodd" clip-rule="evenodd" d="M361.612 171.606L362.389 156.441L363.359 136.027L363.456 133.499L362.194 133.402L337.248 131.944L323.27 130.778L296.77 128.25L263.572 124.167L262.213 133.694L262.116 134.277L261.728 137.485L259.981 150.025L256.68 175.3L255.807 181.619L255.418 184.827L255.224 186.091L252.797 205.047L256.583 205.533L281.336 208.547L283.277 208.741L285.607 209.033L309.583 211.366L328.803 212.921L357.632 214.768L359.574 214.866L359.671 212.338L360.156 202.131L361.03 184.341L361.418 176.759L361.515 174.231L361.612 171.606H361.612Z" fill="#EEBBB7" stroke="white" stroke-linejoin="round"/>
<path fill-rule="evenodd" clip-rule="evenodd" d="M590.695 307.703L580.212 309.258L584.483 302.453L582.639 298.662L545.655 302.259L514.399 304.786L509.837 305.078L510.419 307.8L514.205 327.437L514.302 331.811L515.37 358.253L515.467 362.627L515.758 362.725L517.214 364.28L523.038 364.086L523.621 372.64L523.815 375.071L526.824 374.779L536.045 374.098L572.641 370.696H572.835L572.738 368.557L573.708 367.877L571.961 364.572L575.65 349.018L574.194 347.268L579.727 341.144L579.338 335.894L583.415 329.089V328.992L583.221 328.798L586.716 325.59L585.745 321.701L588.463 317.424L587.88 313.438L590.792 307.8V307.703H590.695V307.703Z" fill="#EE867D" stroke="white" stroke-linejoin="round"/>
<path fill-rule="evenodd" clip-rule="evenodd" d="M561.769 177.148L556.43 174.328L553.518 170.343L552.547 164.607L553.324 161.983L550.509 158.58L545.752 159.066L497.994 163.052L478.872 164.121L474.018 164.413L471.98 164.51L473.63 175.301L472.271 180.453L474.406 183.661V184.341L475.086 184.439L478.192 193.576L481.201 198.34L481.395 203.784L484.696 208.353L484.113 210.297L487.123 222.546V222.837L507.022 222.254L528.28 220.407L549.15 217.782L553.906 221.962L554.1 222.157L554.974 221.768L554.294 217.977L557.886 215.741L559.342 205.825L557.886 205.145L558.76 200.09L563.128 199.215L567.981 195.715L570.117 189.591L570.214 186.48L566.331 182.786L565.166 180.453L561.478 178.12L561.672 177.634L561.769 177.148L561.769 177.148Z" fill="#EE867D" stroke="white" stroke-linejoin="round"/>
<path fill-rule="evenodd" clip-rule="evenodd" d="M509.157 292.343L506.73 251.223L502.362 248.695L501.974 246.751L498.48 243.64L501.877 239.46L500.518 237.03L497.994 237.127L495.665 235.475L494.694 234.697L491.394 234.891L455.575 236.252L439.17 236.641H406.555L393.451 236.447L389.762 236.349V238.196L389.665 243.932L388.597 295.357V297.301L392.771 297.398L415.291 297.69L468 296.912L505.566 295.163L509.254 294.871L509.157 292.343L509.157 292.343Z" fill="#EE867D" stroke="white" stroke-linejoin="round"/>
<path fill-rule="evenodd" clip-rule="evenodd" d="M553.906 221.962L549.15 217.782L528.28 220.406L507.022 222.253L487.123 222.837L487.025 223.42L489.452 228.086L491.685 229.642L494.306 234.308L494.694 234.697L495.665 235.474L497.994 237.127L500.518 237.03L501.877 239.46L498.48 243.64L501.974 246.751L502.362 248.695L506.73 251.223L509.157 292.343L509.254 294.871L509.448 297.398L509.546 299.926L509.74 302.55L509.837 305.078L514.399 304.786L545.655 302.259L582.639 298.662L584.483 302.453L580.212 309.258L590.695 307.702H590.793V306.925L590.987 302.453L592.928 300.023L592.346 297.301L592.248 297.204L592.151 297.106L592.54 295.843L593.122 296.037L593.413 296.815L593.316 297.106V297.204V297.981L593.704 298.079L594.481 297.106V297.009L594.578 296.718L597.102 295.162L597.49 294.968L598.364 286.996L598.17 286.607L597.878 286.51L590.987 280.872L592.054 278.831L590.113 273.289L586.618 270.568L580.018 267.651L575.844 264.249L576.329 257.25L577.591 250.736L570.602 251.125L568.467 248.889L567.496 244.418L556.43 235.085L553.324 226.433L554.1 222.156L553.906 221.962V221.962Z" fill="#EE867D" stroke="white" stroke-linejoin="round"/>
<path fill-rule="evenodd" clip-rule="evenodd" d="M472.562 184.147L469.553 181.133L458.972 178.022L455.575 177.925L450.43 179.383L444.315 175.495L425.192 175.689L397.334 175.398L364.427 174.328L361.515 174.231L361.418 176.759L361.03 184.341L360.156 202.131L359.671 212.338L359.574 214.866L361.903 214.963L385.588 215.838L390.247 216.032L389.859 235.086L389.762 236.349L393.451 236.447L406.555 236.641H439.17L455.575 236.252L491.393 234.891L494.694 234.697L494.306 234.308L491.685 229.642L489.452 228.086L487.025 223.42L487.122 222.837V222.545L484.113 210.297L484.696 208.352L481.395 203.784L481.201 198.34L478.192 193.576L475.086 184.438L474.406 184.341L472.562 184.147L472.562 184.147Z" fill="#EEBBB7" stroke="white" stroke-linejoin="round"/>
<path fill-rule="evenodd" clip-rule="evenodd" d="M509.74 302.55L509.545 299.926L509.448 297.398L509.254 294.871L505.566 295.162L468 296.912L415.291 297.69L392.771 297.398L388.597 297.301H387.044L380.929 297.106L378.987 297.009L374.91 296.912L372.969 296.815L372.872 299.342L372.775 301.87L372.678 304.397L372.581 307.022H373.163L396.654 307.605L421.504 307.897L421.795 341.143L423.542 346.976L427.425 350.67L431.599 350.864L432.472 349.115L438.199 354.364L445.674 355.142L447.033 356.697L449.751 355.433L456.545 358.641V360.488L459.069 360.391L461.69 358.155L466.544 361.266L471.106 362.919L474.212 358.641L484.113 363.307L487.802 360.294L490.811 359.127L493.238 359.711L502.362 357.086L507.216 359.127L511.584 361.946L515.369 362.627H515.466L515.369 358.252L514.302 331.811L514.205 327.436L510.419 307.8L509.836 305.078L509.739 302.55L509.74 302.55Z" fill="#EE867D" stroke="white" stroke-linejoin="round"/>
<path fill-rule="evenodd" clip-rule="evenodd" d="M467.126 114.932L450.722 115.418L411.214 115.71L368.407 114.543L364.621 114.349L364.524 116.585L364.136 125.431L363.845 132.139L363.748 133.499H363.456L363.359 136.027L362.389 156.441L361.612 171.606L361.515 174.231L364.427 174.328L397.333 175.398L425.192 175.689L444.315 175.495L450.43 179.383L455.575 177.925L458.972 178.022L469.553 181.133L472.562 184.147L474.406 184.341V183.661L472.271 180.453L473.63 175.301L471.98 164.51L474.018 164.413L473.824 159.941L468.97 125.723L466.447 121.445L470.329 115.029L470.427 114.738L467.126 114.932L467.126 114.932Z" fill="#EEBBB7" stroke="white" stroke-linejoin="round"/>
<path fill-rule="evenodd" clip-rule="evenodd" d="M589.239 449.146L587.977 449.437L587.395 450.021L589.239 449.146ZM593.316 449.146L592.637 448.854L592.443 449.146H593.316ZM595.646 448.368H594.966L594.578 448.854L595.646 448.368ZM594.481 447.687L594.287 447.396L594.19 447.687H594.481ZM602.247 442.535L601.955 442.73H602.441L602.247 442.535ZM615.836 436.8L616.419 436.022L615.739 436.897L615.836 436.8V436.8ZM617.778 434.272L617.584 434.369V434.467L617.778 434.272V434.272ZM567.884 442.827L569.34 440.98L565.36 439.91L563.613 441.369L567.884 442.827ZM608.168 434.369L607.78 433.981L607.682 434.175L608.168 434.369ZM609.236 432.62L608.265 432.328L608.556 433.3L609.236 432.62ZM617.195 430.967V430.675V430.773V430.967V430.967ZM619.137 429.703L619.04 429.606L619.137 429.8V429.703V429.703ZM618.36 429.509L618.166 429.412L618.069 429.703L618.36 429.509L618.36 429.509ZM611.565 429.217L612.439 428.926V428.634L611.565 429.217ZM612.051 428.731L612.536 428.245L612.439 428.148L612.051 428.731L612.051 428.731ZM608.653 425.134L608.459 425.329H608.556L608.653 425.134H608.653ZM572.835 370.696H572.64L536.045 374.098L526.824 374.779L523.815 375.07L523.912 377.403L525.853 396.165L529.056 400.637L529.154 403.262L532.26 408.706L534.784 416.677L533.91 421.149L533.231 432.231L531.774 435.828H531.969L532.26 438.355L530.61 440.688L542.646 439.327L552.062 441.952L558.76 442.827L562.157 440.397L560.313 437.966L566.525 436.022L566.331 438.161L569.534 437.383L572.155 441.466L574.388 440.688L580.212 444.674L576.62 445.938L584.871 448.368H587.978L589.822 446.132L593.802 443.993L596.617 448.076L598.558 444.382L597.976 438.55L603.217 440.591L603.8 442.341L610.012 443.118L613.118 445.646L612.73 447.687L617.098 443.605L615.448 441.466L608.168 439.619L605.45 438.063L605.353 435.147L608.362 435.536L610.692 430.773L607.682 426.593L606.032 430.578L602.247 429.898L604.867 425.62L603.12 425.134L598.849 428.148L592.734 428.537L590.987 427.176L593.802 422.218L597.102 422.121L602.732 423.968L606.809 424.357L604.576 421.537L600.305 413.177L601.47 408.511L567.981 412.205L569.243 410.941L567.884 407.442L569.923 404.428L571.087 396.846L578.465 384.208L574.873 379.834L575.067 376.626L572.835 371.376V370.696H572.835Z" fill="#EC5044" stroke="white" stroke-linejoin="round"/>
<path fill-rule="evenodd" clip-rule="evenodd" d="M474.212 516.902L469.553 499.307V502.612L474.212 516.902ZM473.144 485.989L469.844 492.21L469.456 494.252L473.144 485.989ZM475.765 481.42L478.872 477.337L476.639 478.698L475.765 481.42ZM486.734 471.504L479.454 475.295L481.492 474.907L486.734 471.504ZM487.705 470.143L489.743 468.491L488.967 468.685L487.705 470.143ZM372.581 307.022L371.901 306.925L368.601 398.109L349.381 397.234L318.61 395.485L306.283 394.61L308.709 399.373L308.806 399.47L319.29 409.969L325.308 417.066L333.268 422.996L338.898 433.3L341.033 444.09L345.596 447.104L349.187 451.09L354.332 452.937L361.806 457.7L365.204 458.964L369.863 454.298L371.319 449.34L373.746 444.577L381.317 441.563L384.229 443.021L392.674 443.702L400.343 448.465L405.584 449.437L404.128 452.159L407.137 454.103L409.952 457.506L410.535 461.103L412.379 463.533L416.65 473.837L420.921 477.434L424.222 482.878L428.396 487.155L430.24 487.739L431.793 498.821L436.355 501.348L436.549 504.848L437.714 504.556L445.674 514.277L449.654 515.152L454.701 518.166H462.467L468.097 521.277L474.795 519.818L471.786 516.999L469.068 508.833L468 501.737L466.447 499.404L467.126 494.641L465.088 494.446L462.37 489.974L465.476 493.28L469.068 492.016L471.009 486.864L467.126 481.614L472.95 482.295L475.668 478.115L475.28 476.656L477.707 473.448L477.124 476.268L479.842 474.129L478.775 470.338L482.269 472.185L486.734 469.657L482.366 465.088L485.084 466.158L490.132 466.449L496.732 464.991L504.11 460.033L508.575 456.339L509.254 453.617L511.972 450.798L510.516 446.132L510.807 443.216L515.661 441.077L515.273 446.229H518.185L514.981 448.951L527.892 442.146L530.027 442.049L531.386 435.827H531.774L533.23 432.231L533.91 421.149L534.783 416.677L532.26 408.705L529.153 403.262L529.056 400.637L525.853 396.165L523.912 377.403L523.815 375.07L523.62 372.64L523.038 364.085L517.214 364.28L515.758 362.724L515.467 362.627H515.37L511.584 361.947L507.216 359.127L502.362 357.086L493.238 359.711L490.811 359.127L487.802 360.294L484.113 363.308L474.212 358.641L471.106 362.919L466.544 361.266L461.69 358.155L459.069 360.391L456.546 360.488V358.641L449.751 355.433L447.033 356.697L445.674 355.142L438.2 354.364L432.472 349.115L431.599 350.865L427.425 350.67L423.542 346.976L421.795 341.143L421.504 307.897L396.654 307.605L373.163 307.022H372.581L372.581 307.022Z" fill="#EC5044" stroke="white" stroke-linejoin="round"/>
<path fill-rule="evenodd" clip-rule="evenodd" d="M837.251 122.709L823.273 128.056L823.079 127.57L815.216 129.903L813.469 130.389L813.663 131.361L817.352 145.651L818.517 147.109L815.993 150.22L817.74 151.872L823.37 146.429L826.379 142.249L826.962 143.415L841.134 137.096L841.425 136.805L841.328 134.472L840.745 132.43L837.736 123.973L837.348 122.903L837.251 122.709H837.251Z" fill="#EE867D" stroke="white" stroke-linejoin="round"/>
<path fill-rule="evenodd" clip-rule="evenodd" d="M824.147 55.2441L822.885 56.7995L821.429 56.5078L820.652 62.9238V63.021L822.982 71.7701L822.788 73.5199L818.614 79.0609L819.682 84.1159V90.4347L818.905 96.2674L823.273 112.21L827.253 110.946L839.484 106.863L845.017 100.836V99.281L845.308 96.7534L844.628 97.0451L844.531 96.4618L838.416 88.9765L838.222 88.296L824.147 55.2441L824.147 55.2441Z" fill="#EEBBB7" stroke="white" stroke-linejoin="round"/>
<path fill-rule="evenodd" clip-rule="evenodd" d="M846.764 131.458L846.667 129.417L846.376 130.194L846.764 131.458H846.764ZM848.705 129.903L847.443 127.472L847.346 130L848.705 129.903V129.903ZM848.123 126.889L848.802 128.639L849.676 130.194L850.258 129.028L849.385 127.375L849.094 126.209H848.123V126.889ZM837.348 122.903L837.737 123.973L840.746 132.43L841.328 134.472L841.425 136.805L841.619 136.513L846.279 132.819L845.405 126.209L847.346 125.82L843.075 120.668L838.61 122.417L837.348 122.903Z" fill="#EE867D" stroke="white" stroke-linejoin="round"/>
<path fill-rule="evenodd" clip-rule="evenodd" d="M823.273 112.21L818.905 96.2674L819.682 90.4347V84.116L818.614 79.061L822.788 73.5199L822.982 71.7701L820.652 63.0211L819.39 63.5071L814.052 65.4513L808.81 67.4928L796.773 71.8673L796.094 72.0617L800.462 82.269L801.918 91.8929L807.063 99.9615L811.916 115.904L812.11 115.807L812.887 115.515L815.119 114.835L817.061 114.154L822.594 112.502L823.273 112.21V112.21Z" fill="#EEBBB7" stroke="white" stroke-linejoin="round"/>
<path fill-rule="evenodd" clip-rule="evenodd" d="M618.554 324.52L618.943 325.298L620.301 326.173L620.884 366.03L621.078 387.902L626.029 417.843L626.417 417.746L630.785 418.621L631.95 409.969L633.891 414.83L637.192 417.843L643.501 414.149L642.822 413.566L643.016 413.663L638.648 403.65L680.581 396.846L683.396 396.36V396.262L680.775 391.305L680.581 384.208L678.446 380.32L679.514 372.737L681.261 370.793L674.078 357.961L661.07 318.299L660.973 318.104L658.061 318.59L642.53 321.118L634.765 322.09L618.457 324.326L618.554 324.52V324.52Z" fill="#EE867D" stroke="white" stroke-linejoin="round"/>
<path fill-rule="evenodd" clip-rule="evenodd" d="M754.936 515.25H754.742L754.839 515.347L754.937 515.25H754.936ZM767.555 510.486H767.458L767.555 510.681V510.486ZM770.176 509.806V509.611L769.982 509.903L770.176 509.806V509.806ZM769.206 509.611L768.817 509.223L768.72 509.32L769.206 509.611L769.206 509.611ZM768.914 510.389L767.75 508.931L768.429 510.195L768.914 510.389ZM778.136 504.654V505.042L778.33 504.848L778.136 504.654ZM779.495 503.682L779.786 503.195L779.398 503.584L779.495 503.682V503.682ZM778.913 500.96L778.815 500.862V501.057L778.913 500.96V500.96ZM779.592 498.626L779.398 498.724L779.689 498.821L779.592 498.627V498.626ZM779.98 498.626L779.786 498.432L779.883 498.724L779.98 498.626L779.98 498.626ZM779.301 498.432L779.204 498.335V498.529L779.301 498.432V498.432ZM782.892 497.752V497.654L782.698 498.043L782.892 497.752V497.752ZM778.816 498.14H778.621L778.816 498.238V498.14ZM780.854 496.974H780.563L780.466 497.071L780.854 496.974H780.854ZM773.477 496.877V496.682L773.38 496.877H773.477ZM774.35 496.585H774.059L774.35 497.168V496.585ZM772.021 496.682V496.099L771.535 496.196L772.021 496.682V496.682ZM770.662 495.71L771.147 496.196V496.002L770.662 495.71ZM784.931 496.293L783.184 497.071L783.766 497.168L784.931 496.293V496.293ZM771.341 495.419H770.759V495.613L771.341 495.419ZM786.678 490.558L786.775 490.072L786.872 488.808L786.678 490.558H786.678ZM786.775 485.114L786.387 484.142L786.193 484.531L786.775 485.114ZM764.352 487.544L764.158 487.836L764.643 487.933L764.352 487.544V487.544ZM762.508 486.669L761.634 486.961L762.314 487.058L762.508 486.67V486.669ZM760.567 486.864V486.572L760.469 486.67L760.567 486.864V486.864ZM758.528 486.767L757.946 487.155L758.722 487.544L758.528 486.767ZM761.246 486.864L761.149 486.572L760.664 486.475L761.246 486.864V486.864ZM748.53 477.337L747.948 477.629L749.112 478.018L748.53 477.337ZM746.2 474.226L745.424 473.06L745.715 473.935L746.2 474.226ZM749.209 476.171L747.851 473.06L746.88 472.768L749.209 476.171ZM745.327 472.282L745.035 471.504L744.841 471.018L745.327 472.282ZM737.27 461.492L735.523 460.228L736.202 460.908L737.27 461.492ZM780.951 454.978L773.865 443.119H773.477L780.951 454.978ZM731.931 436.022L731.64 435.925L731.931 436.119V436.022V436.022ZM731.349 435.342L731.252 435.439L731.349 435.536V435.342V435.342ZM731.058 433.981L731.349 434.175V433.981H731.058ZM731.64 433.592L731.252 433.689H731.349L731.64 433.592H731.64ZM730.96 433.495L730.669 433.203L730.766 433.3L730.96 433.495V433.495ZM730.281 432.425H730.087L730.378 432.523L730.281 432.425H730.281ZM730.96 431.259H730.572L730.475 431.356L730.96 431.259H730.96ZM731.349 431.453L730.863 430.967L731.058 431.064L731.349 431.453V431.453ZM727.66 427.273L727.466 427.176V427.273H727.66ZM723.486 427.273L723.195 426.884L723.292 427.37L723.486 427.273V427.273ZM688.153 424.065L691.065 421.829L687.862 423.968L688.153 424.065V424.065ZM693.977 419.399L694.268 419.107L693.103 419.593L693.977 419.399ZM657.091 412.886L646.51 416.288L652.334 414.636L657.091 412.886ZM683.397 396.36L680.582 396.846L638.648 403.651L643.016 413.664L643.307 413.761L642.239 417.746L645.345 416.385L648.743 413.372L654.567 413.177L661.265 410.747L665.827 411.428L664.759 413.08L673.107 415.899L680.29 419.399L681.941 423.288L687.279 422.121L699.898 411.817L704.558 412.011L723.583 426.398L727.466 425.621L731.543 431.064L732.319 439.716L731.058 445.16L731.64 447.882L735.037 454.687L733.484 449.34L737.852 449.243L738.241 453.131L735.911 459.159L743.968 470.241L746.977 470.338L744.453 466.936L747.559 467.324L749.404 466.158L748.627 472.379L752.801 475.685L755.616 483.267L759.402 485.6L764.255 486.864L770.953 495.419L774.447 497.266L769.788 497.557L771.924 499.987L779.592 497.46L783.378 495.321L786.872 483.073L785.125 464.019L784.737 462.075L775.418 446.521L767.458 435.245L762.993 426.009L766.779 429.217L767.556 428.634L769.206 436.703L773.477 442.827L769.303 434.661L769.497 430.773L756.975 415.511L753.966 410.747L749.986 402.679L747.268 395.874L745.133 393.444L744.647 390.333L744.55 390.236L737.852 389.847L735.231 391.888L733.775 399.373L732.416 395.874L686.6 401.609L683.299 396.457L683.397 396.36V396.36Z" fill="#EC5044" stroke="white" stroke-linejoin="round"/>
<path fill-rule="evenodd" clip-rule="evenodd" d="M746.103 375.848L746.006 372.932L745.327 375.459L746.103 375.848H746.103ZM747.171 371.376L746.783 369.14L746.491 370.501L747.171 371.376ZM701.743 310.133L700.481 310.425L696.792 311.202L683.202 314.021L681.941 314.313L680.582 314.507L673.01 315.966L670.972 316.354L662.721 317.91L660.974 318.104L661.071 318.299L674.078 357.961L681.261 370.793L679.514 372.737L678.446 380.32L680.582 384.208L680.776 391.305L683.397 396.262V396.36L683.299 396.457L686.6 401.609L732.416 395.874L733.775 399.373L735.231 391.888L737.852 389.846L744.55 390.235L743.968 379.736L745.23 377.501L744.55 373.321L745.909 369.335L747.947 367.099L746.491 365.738L749.889 361.558H749.792L743.968 356.114L736.008 344.74L731.64 342.699L712.905 326.951L708.343 321.118L699.51 317.424L699.025 315.48L701.743 310.133Z" fill="#EC5044" stroke="white" stroke-linejoin="round"/>
<path fill-rule="evenodd" clip-rule="evenodd" d="M617.001 422.607L616.516 422.704V422.801L617.001 422.607V422.607ZM626.029 421.44H624.67L625.932 421.538L626.029 421.44H626.029ZM614.769 422.412L614.38 422.801L614.477 422.898L614.769 422.412L614.769 422.412ZM623.893 421.635H620.204L623.699 421.732L623.893 421.635ZM583.415 328.992V329.089L579.338 335.894L579.727 341.144L574.194 347.268L575.65 349.018L571.961 364.572L573.708 367.877L572.738 368.557L572.835 370.696V371.376L575.067 376.626L574.873 379.834L578.465 384.208L571.087 396.846L569.923 404.428L567.884 407.442L569.243 410.941L567.981 412.205L601.47 408.511L600.305 413.177L604.576 421.538L606.809 424.357V424.259L610.4 420.177L617.972 418.524L624.961 419.302L626.029 417.941V417.843L621.078 387.902L620.884 366.03L620.302 326.173L618.943 325.298L618.554 324.52H618.36L613.507 325.201L604.965 326.367L585.551 328.798L583.415 328.992L583.415 328.992Z" fill="#EE867D" stroke="white" stroke-linejoin="round"/>
<path fill-rule="evenodd" clip-rule="evenodd" d="M701.742 310.133L699.025 315.48L699.51 317.424L708.343 321.118L712.905 326.951L731.64 342.699L736.008 344.74L743.968 356.114L749.792 361.558L750.762 357.086L749.209 352.809L753.383 355.92L755.713 354.073L751.733 350.767L756.587 350.476L764.158 344.06L763.284 342.407L767.944 338.81L767.458 337.061L770.856 334.922L771.05 329.964L776.389 320.049L779.98 315.48L780.369 315.285L758.722 301.578L750.665 303.134L739.697 302.745L734.261 299.926L702.034 310.133H701.742Z" fill="#EE867D" stroke="white" stroke-linejoin="round"/>
<path fill-rule="evenodd" clip-rule="evenodd" d="M561.672 177.634L561.478 178.12L565.166 180.453L566.331 182.786L570.214 186.48L570.117 189.591L567.981 195.715L563.128 199.214L558.76 200.089L557.886 205.144L559.342 205.825L557.886 215.74L554.294 217.976L554.974 221.768L554.1 222.156L553.324 226.434L556.43 235.086L567.496 244.418L568.467 248.89L570.602 251.126L577.591 250.737L576.329 257.25L575.844 264.249L580.018 267.651L586.618 270.568L590.113 273.29L592.054 278.831L590.987 280.872L597.879 286.511L598.17 286.608L597.587 286.025L599.529 281.456L607.003 283.497L608.847 281.358L607.391 277.081L613.507 273.484L611.856 271.151L613.313 267.846V267.554L612.924 267.457L613.021 258.805L615.157 257.25L618.845 248.598L618.069 244.807L615.642 240.238L617.001 235.086L610.206 187.16L609.236 186.091L606.712 180.355L604.673 178.217L603.8 172.579V172.384L590.695 174.231L582.833 175.203L561.672 177.634Z" fill="#EC5044" stroke="white" stroke-linejoin="round"/>
<path fill-rule="evenodd" clip-rule="evenodd" d="M650.587 179.675L635.735 182.299L632.338 182.98L620.301 184.924L617.778 186.966L613.992 188.715L612.536 188.618L610.789 187.743L610.206 187.16L617.001 235.085L615.642 240.238L618.069 244.807L618.845 248.598L615.157 257.25L613.021 258.805L612.924 267.457L613.312 267.554L613.701 267.457L615.157 264.735H618.748L623.116 263.277L628.552 265.318L629.135 263.082L632.241 260.749L636.9 261.43L639.424 256.472L646.316 257.055L646.219 254.236L652.334 246.167L651.364 242.473L655.635 242.376L660.876 238.196L659.614 233.433L659.808 233.238L659.614 231.586L653.79 197.173L651.169 182.494L650.878 180.938L650.587 179.675L650.587 179.675Z" fill="#EE867D" stroke="white" stroke-linejoin="round"/>
<path fill-rule="evenodd" clip-rule="evenodd" d="M593.413 296.815L593.122 296.037L592.54 295.843L592.151 297.106L592.249 297.204L593.316 297.106L593.413 296.815H593.413ZM659.809 233.238L659.614 233.433L660.876 238.196L655.635 242.376L651.364 242.473L652.334 246.168L646.219 254.236L646.316 257.055L639.424 256.472L636.9 261.43L632.241 260.749L629.135 263.082L628.552 265.318L623.116 263.277L618.748 264.735H615.157L613.701 267.457L613.313 267.554V267.846L611.856 271.151L613.507 273.484L607.391 277.081L608.847 281.358L607.003 283.497L599.529 281.455L597.587 286.024L598.17 286.608L598.364 286.996L597.49 294.968L597.102 295.162L594.578 296.718L594.481 297.009L597.296 296.62L616.904 293.996L615.933 290.107L619.234 290.01L658.741 284.761L686.503 280.094L686.891 279.803L687.57 279.025L694.85 275.137L700.48 267.748L701.257 265.221L704.946 262.305L709.605 256.375L710.284 255.403L709.993 255.305H707.567L704.46 253.556L698.927 246.848L696.986 240.043V239.849L696.792 239.654L692.715 237.321L690.871 234.21L687.182 237.807L684.852 238.391L681.94 237.224L679.416 239.168L674.175 236.835L672.816 237.418L667.865 233.141L665.341 231.877L660.585 232.461L659.809 233.238Z" fill="#EE867D" stroke="white" stroke-linejoin="round"/>
<path fill-rule="evenodd" clip-rule="evenodd" d="M790.464 311.883L789.396 312.952L789.59 313.147L790.464 311.883ZM791.24 306.244L790.755 307.022L790.949 307.8L791.24 306.244ZM797.065 297.204L795.608 298.176L794.832 299.342L797.065 297.204ZM809.586 291.079L809.004 290.691L807.742 290.593L809.586 291.079V291.079ZM806.966 290.496H806.092L804.636 291.274L806.966 290.496ZM809.975 291.566L812.79 284.566L810.848 287.483L809.975 291.566ZM814.149 282.33L815.411 280.483H814.731L814.149 282.33ZM822.303 274.748L820.167 263.957L822.011 269.596L822.303 274.748ZM810.46 250.153L810.266 250.251L809.975 250.348H810.072L815.411 259.389L819.585 263.569L810.46 250.153H810.46ZM808.713 250.737L807.936 250.931L808.13 251.028H809.781L809.586 250.445L809.295 250.542H809.004V250.737L808.81 250.834L808.713 250.737V250.737ZM718.924 272.901L718.438 274.359L718.536 278.539L717.468 278.442L714.944 283.594L712.129 283.886L706.887 289.038L704.558 288.163L701.548 292.635L693.589 299.828L689.706 300.801L685.629 304.592L685.435 307.119L681.843 309.064L681.94 313.341V314.313L683.202 314.021L696.792 311.202L700.481 310.425L701.743 310.133H702.034L734.261 299.926L739.697 302.745L750.666 303.134L758.722 301.578L780.369 315.285L780.757 314.994L790.755 310.911L790.852 305.564L794.444 299.051L798.327 295.357L806.383 290.01L807.451 288.066L809.587 289.038L810.557 282.622L809.392 284.858L805.316 286.219L801.433 286.316L806.189 282.816L804.733 281.261L806.383 277.761L797.259 276.303L796.871 275.817L804.636 274.359L807.16 275.623L810.363 275.331L812.984 273.387L814.925 269.596L816.673 269.11L816.381 263.763L814.149 261.624L811.916 263.666L812.402 268.818L810.751 262.499L809.489 262.208L799.88 266.193L804.151 262.013L804.345 260.361L808.81 259.291L810.072 255.986L813.081 257.736L809.878 252.973L807.645 251.028L768.817 262.11L744.065 268.429L719.021 273.095L718.924 272.901H718.924Z" fill="#EE867D" stroke="white" stroke-linejoin="round"/>
<path fill-rule="evenodd" clip-rule="evenodd" d="M718.438 186.091L716.012 175.592L715.526 173.453L712.808 161.496L709.314 163.732L701.84 169.468L696.986 175.398L693.2 175.981L686.211 179.967L682.329 177.634L670.583 176.273L664.371 177.828L658.255 179.286L651.849 180.647L650.878 180.939L651.169 182.494L653.79 197.173L659.614 231.586L659.809 233.239L660.585 232.461L665.341 231.878L667.865 233.141L672.816 237.419L674.175 236.835L679.417 239.169L681.94 237.224L684.852 238.391L687.182 237.808L690.871 234.211L692.715 237.322L696.792 239.655L696.986 239.849L701.16 237.808L702.616 234.6L701.451 231.294L704.752 226.239L707.178 225.851L706.887 221.573L710.867 216.129L711.547 216.907L715.138 214.185L718.244 209.519L718.73 188.23L718.924 188.132L718.438 186.091V186.091Z" fill="#EE867D" stroke="white" stroke-linejoin="round"/>
<path fill-rule="evenodd" clip-rule="evenodd" d="M686.503 280.095L658.741 284.761L619.234 290.01L615.933 290.107L616.904 293.996L597.296 296.621L594.481 297.009V297.107L593.705 298.079L593.316 297.982V297.204V297.107L592.248 297.204L592.346 297.301L592.928 300.023L590.987 302.453L590.792 306.925V307.703V307.8L587.88 313.438L588.463 317.424L585.745 321.701L586.716 325.59L583.221 328.798L583.415 328.992L585.551 328.798L604.965 326.367L613.507 325.201L618.36 324.52H618.554L618.457 324.326L634.765 322.09L642.53 321.118L658.061 318.59L660.973 318.104L662.721 317.91L670.972 316.355L673.01 315.966L680.581 314.508L681.94 314.313V313.341L681.843 309.064L685.435 307.12L685.629 304.592L689.706 300.801L693.589 299.829L701.548 292.635L704.558 288.163L706.887 289.038L712.129 283.886L714.944 283.594L717.468 278.442L718.535 278.539L718.438 274.359L718.924 272.901L717.371 273.193L711.838 274.748L705.237 276.109L688.638 279.511L686.891 279.803L686.503 280.095L686.503 280.095Z" fill="#EE867D" stroke="white" stroke-linejoin="round"/>
<path fill-rule="evenodd" clip-rule="evenodd" d="M809.004 250.542H809.295L809.586 250.445L809.392 249.959L809.004 250.542V250.542ZM805.704 239.655V240.141L806.189 239.849L805.704 239.655ZM807.451 236.252L807.354 235.475L807.451 236.252ZM806.868 237.419L806.674 238.683L806.383 239.169L806.868 237.419ZM807.742 234.891L807.839 234.308L807.645 234.891H807.742H807.742ZM808.324 232.267L808.616 231.586L808.13 233.336L808.324 232.267ZM808.422 230.809L808.81 228.67L808.324 229.156L808.422 230.809ZM810.169 221.185L810.363 220.31L810.266 220.504L810.169 221.185H810.169ZM809.781 218.949L808.519 219.435L806.577 220.31L805.898 221.185L806.189 221.282L803.859 235.766L804.733 238.099L806.092 232.072L808.616 224.198L809.781 219.046V218.949ZM811.722 218.171L811.431 218.268L811.334 218.657L810.848 221.671L811.236 220.601L811.722 218.171V218.171ZM710.285 255.403L709.605 256.375L704.946 262.305L701.257 265.221L700.481 267.749L694.851 275.137L687.57 279.025L686.891 279.803L688.638 279.512L705.237 276.109L711.838 274.748L717.371 273.193L718.924 272.901L719.021 273.096L744.065 268.429L768.817 262.111L807.645 251.029L807.354 250.542L807.257 250.251L807.936 250.931L808.713 250.737L808.616 250.64L807.936 247.334L808.421 247.432L809.975 250.348L810.266 250.251L810.46 250.154L810.072 249.376L806.092 243.252L801.141 244.126L798.909 245.973L796.773 244.029L789.493 241.599L784.445 241.404L794.249 240.53L799.685 244.224L801.238 241.793L796.87 236.252L799.977 236.447L798.326 231.975L794.444 232.169L785.222 224.684H784.057L797.064 231.1L796.191 226.628L797.064 225.17L790.464 222.643L784.737 222.254L781.922 219.726L779.592 221.184L778.718 214.477L779.689 214.671L779.495 209.227L779.301 209.033L779.107 209.13L778.913 209.033L778.427 208.644L778.136 208.353L775.03 206.992L771.826 204.659L767.361 203.492L767.07 203.395V203.492L766.488 207.575L757.46 203.686L757.654 209.325L752.704 218.754L749.695 222.059L747.753 227.795L741.832 225.753L738.92 238.974L736.59 243.446L736.202 249.279L734.455 252.098L727.951 254.042L722.612 258.222L720.089 258.611L717.662 260.75L711.547 258.514L710.479 255.5L710.285 255.403L710.285 255.403Z" fill="#EE867D" stroke="white" stroke-linejoin="round"/>
<path fill-rule="evenodd" clip-rule="evenodd" d="M606.032 114.154L603.606 117.168L602.15 121.542L602.829 123.973L606.032 114.154ZM550.315 91.3097L551.771 89.2682L550.703 90.2403L550.315 91.3097ZM552.547 88.1017L552.062 87.5184L550.994 88.1989L552.547 88.1017V88.1017ZM531.386 93.5455L529.154 96.073L530.221 107.738L524.009 113.377L522.844 118.821L526.241 121.931L525.271 135.347L528.862 138.068L531.192 138.263L538.569 142.735L543.229 147.595L549.15 150.609L550.509 158.094V158.58L553.324 161.983L552.547 164.607L553.518 170.343L556.43 174.328L561.769 177.148L561.672 177.634L582.833 175.203L590.695 174.231L603.8 172.384L603.411 170.926V166.357L600.791 161.496L600.111 155.372L601.373 148.567L600.694 143.318L603.023 136.805L602.15 135.735L602.344 129.708L603.606 125.139L602.15 123.584L599.335 124.556L597.781 128.639L594.093 130.778L595.258 125.625L598.558 121.251L598.752 119.307L598.849 119.209L594.19 114.543V107.933L588.948 103.656L581.765 103.169L574.388 101.225L558.468 96.3646L555.362 94.6148L555.071 94.9065L550.12 94.226L548.47 95.1981L549.15 88.1016L541.19 92.1845L531.483 93.7399L531.386 93.5455V93.5455ZM550.412 88.3933L550.218 87.7128L549.538 88.0045L550.412 88.3933ZM546.917 87.7128L547.208 87.1296L547.014 86.9351L546.917 87.7128ZM554.003 86.0602L553.712 84.6993L553.421 86.3519L554.003 86.0602Z" fill="#EE867D" stroke="white" stroke-linejoin="round"/>
<path fill-rule="evenodd" clip-rule="evenodd" d="M736.979 203.2L723.195 206.603L718.924 188.133L718.73 188.23L718.244 209.519L715.138 214.185L711.547 216.907L710.867 216.129L706.887 221.573L707.178 225.851L704.752 226.24L701.451 231.295L702.616 234.6L701.16 237.808L696.986 239.849V240.044L698.927 246.848L704.46 253.556L707.567 255.306H709.993L710.285 255.403L710.479 255.5L711.547 258.514L717.662 260.75L720.089 258.611L722.612 258.222L727.951 254.042L734.455 252.098L736.202 249.279L736.59 243.446L738.92 238.974L741.832 225.754L747.753 227.795L749.695 222.059L752.704 218.754L757.654 209.325L757.46 203.686L766.488 207.575L767.07 203.492V203.395L764.255 198.534L758.431 197.854L755.034 200.478V202.423L752.122 203.103L747.85 206.117L745.618 206.603L741.153 212.922L738.92 202.714L736.979 203.2V203.2Z" fill="#EEBBB7" stroke="white" stroke-linejoin="round"/>
<path fill-rule="evenodd" clip-rule="evenodd" d="M794.055 187.16L794.444 188.618L802.5 211.658L811.722 208.936L811.625 208.741H811.819L812.11 208.838L812.304 208.741L812.11 208.352L809.781 202.131L798.423 191.34L798.909 183.855H796.579L794.832 185.216L794.055 187.16H794.055Z" fill="#EE867D" stroke="white" stroke-linejoin="round"/>
<path fill-rule="evenodd" clip-rule="evenodd" d="M778.427 208.644L778.913 209.033L779.107 209.13L779.301 209.033L779.495 209.13L780.174 209.519L780.369 209.811V210.491L780.563 210.88L781.825 208.547L780.466 207.769L778.816 207.867L778.427 208.644V208.644Z" fill="#EE867D" stroke="white" stroke-linejoin="round"/>
<path fill-rule="evenodd" clip-rule="evenodd" d="M811.819 217.782L812.498 212.532L811.916 216.421L811.528 218.073L811.431 218.268L811.722 218.171L811.819 217.782V217.782ZM812.304 208.741L812.11 208.838L812.304 209.422V210.588V208.741V208.741ZM738.92 202.714L741.153 212.921L745.618 206.603L747.85 206.116L752.121 203.103L755.033 202.422V200.478L758.431 197.853L764.255 198.534L767.07 203.395L767.361 203.492L771.826 204.658L775.03 206.991L778.136 208.352L778.427 208.644L778.815 207.866L780.466 207.769L781.825 208.547L780.563 210.88V210.977L778.718 216.615L784.737 220.504L790.755 220.795L794.735 222.642L793.085 217.976L787.94 216.226L786.678 212.241L789.881 216.518L792.502 216.907L790.173 214.574L788.328 207.672L788.814 203.686L786.775 199.312L788.911 197.562L790.464 191.924L789.881 200.284L791.531 203.103L793.085 199.798L793.958 205.242L792.308 209.227L797.064 210.977L792.988 212.338L795.123 216.324L798.618 217.49L800.559 214.088L800.365 218.851L803.665 218.754L805.801 221.184H805.898L806.577 220.309L808.519 219.434L809.781 218.948L809.683 218.754L812.207 211.269V210.977L811.722 209.033V208.936L802.5 211.657L794.444 188.618L794.055 187.16L792.405 187.646L785.513 189.785L747.559 200.381L740.667 202.228L738.92 202.714V202.714Z" fill="#EE867D" stroke="white" stroke-linejoin="round"/>
<path fill-rule="evenodd" clip-rule="evenodd" d="M817.061 186.771L816.575 185.605V186.771H817.061ZM818.031 183.175L818.323 180.258L817.74 182.786L818.031 183.175ZM814.052 153.331L803.859 150.803L802.112 150.317L800.462 149.928L796.385 158.969L798.132 161.108L798.035 167.621L799.879 167.912L803.665 177.828L803.471 178.12L798.715 185.119L799.2 190.465L810.654 194.354L810.751 198.826L813.372 195.132L813.76 189.785L816.478 187.938L815.411 183.952L817.449 179.189V168.787L816.77 165.385L812.207 165.482L813.372 160.816L814.052 153.331V153.331Z" fill="#EE867D" stroke="white" stroke-linejoin="round"/>
<path fill-rule="evenodd" clip-rule="evenodd" d="M813.76 161.205L812.304 163.246L811.916 163.829L813.76 161.205ZM827.156 156.441L832.009 152.164V151.97L827.156 156.441ZM814.44 159.455V156.15L814.149 157.9L814.44 159.455ZM836.96 143.901L835.795 143.609L835.601 144.484L836.96 143.901ZM839.581 142.151L839.484 143.123L839.678 142.54L839.581 142.151H839.581ZM836.863 142.249L830.359 148.276L820.361 152.553L817.74 154.789L817.546 156.928L814.828 159.163L815.216 162.08L819.39 160.427L825.506 155.469L832.301 151.872L842.59 142.151L835.31 147.692L832.98 148.665L836.863 142.249ZM839.872 138.166L840.26 137.582L839.095 138.943L839.872 138.166ZM730.766 134.569L729.213 134.374L730.378 135.93L730.766 134.569ZM762.993 104.822L763.187 103.753L762.411 104.725L762.993 104.822V104.822ZM763.479 97.8228L763.09 98.0173L762.605 99.0866L763.479 97.8228ZM722.418 153.039L723.098 155.955L728.242 157.219L757.752 149.151L787.455 140.207L792.891 144.387L793.958 146.818L800.268 149.539L800.462 149.928L802.112 150.317L803.859 150.803L814.052 153.331L813.857 152.845L814.731 156.83L816.672 156.344L817.74 151.97V151.872L815.993 150.22L818.517 147.109L817.352 145.651L813.663 131.361L813.469 130.389L812.984 130.097L812.693 125.82L812.401 121.154L812.11 116.099V115.807L811.916 115.904L807.063 99.9615L801.918 91.8929L800.462 82.269L796.094 72.0618L795.511 72.3534L775.224 79.1582L771.147 83.5327L766.585 92.2818L766.779 94.226L760.761 103.364L764.449 104.628L765.517 111.53L761.246 117.168L748.433 124.945L746.006 123.973L736.493 125.334L727.66 130.68L728.145 133.5L731.252 136.221L729.504 144.776L722.515 152.942L722.418 153.039V153.039Z" fill="#EC5044" stroke="white" stroke-linejoin="round"/>
<path fill-rule="evenodd" clip-rule="evenodd" d="M800.268 149.539L793.958 146.817L792.891 144.387L787.455 140.207L757.752 149.151L728.242 157.219L723.098 155.955L722.418 153.039L720.768 154.303L718.147 156.15L713.391 161.01L712.808 161.496L715.526 173.453L716.012 175.592L718.439 186.091L718.924 188.132L723.195 206.603L736.979 203.2L738.92 202.714L740.667 202.228L747.559 200.381L785.513 189.785L792.405 187.646L794.055 187.16L794.832 185.216L796.579 183.855H798.909L799.2 182.98L802.986 178.703L803.374 178.022L803.665 177.828L799.879 167.912L798.035 167.621L798.132 161.108L796.385 158.969L800.462 149.928L800.268 149.539Z" fill="#EC5044" stroke="white" stroke-linejoin="round"/>
<path fill-rule="evenodd" clip-rule="evenodd" d="M847.055 97.7256H846.958L847.152 97.8229L847.055 97.7256H847.055ZM854.238 77.0195L853.462 75.853V76.4363L854.238 77.0195ZM852.879 75.9502V74.9781L852.782 74.3948L852.879 75.9502ZM856.374 71.8673L856.18 71.7701L856.277 72.0617L856.374 71.8673L856.374 71.8673ZM866.081 67.0067L865.886 65.5486L865.498 66.229L866.081 67.0067ZM863.654 67.59L863.751 66.5207L862.586 66.7151L863.654 67.59ZM867.245 64.382H866.857V64.5764L867.245 64.382ZM862.392 65.8402L861.518 65.6458L861.421 66.5207L862.392 65.8402ZM867.343 62.8266L868.216 63.5071L867.925 62.7294L867.343 62.8266V62.8266ZM864.722 62.9238L863.848 64.5764L865.013 63.9932L864.722 62.9238ZM860.548 63.021L860.159 63.6043L860.451 64.4792L860.548 63.021ZM866.275 59.8131L866.178 59.0354L865.886 59.5214L866.275 59.8131H866.275ZM865.789 60.2019L864.916 59.4242V60.1047L865.789 60.2019V60.2019ZM860.354 62.4378L860.159 61.3685L859.771 62.2434L860.354 62.4378ZM869.575 59.0354L868.119 61.174L868.022 59.6186L869.575 59.0354ZM876.661 52.5222L875.982 51.5501L875.593 51.7445L876.661 52.5222ZM879.282 48.1477L878.7 47.856L878.603 48.1477H879.282ZM880.544 40.5652H879.67L880.641 40.8568L880.544 40.5652H880.544ZM882 41.5373L881.709 39.7875L880.932 39.6903L882 41.5373ZM880.447 39.9819L880.253 38.1349L879.573 39.3986L880.447 39.9819ZM824.147 55.2441L838.222 88.2961L838.416 88.9765L844.531 96.4618V96.3646L845.502 96.073L845.696 90.5319L847.249 88.5877L848.22 83.4354L847.346 82.5605L848.996 77.5055L854.626 74.8808L858.315 70.4091L859.674 62.6322L865.595 62.2433L864.819 58.2576L872.196 55.4385L872.681 51.064L874.429 51.4528L879.282 47.4672L881.418 42.3149L876.467 37.3571L871.225 36.2878L869.284 32.3021V29.9691L866.081 30.9412L862.489 29.6774V25.6918L852.782 4.69404L845.696 1L837.833 7.61039L835.698 7.22154L833.854 3.81914L831.33 4.79125L827.738 22.6782L829 28.5109L830.068 40.3707L827.253 49.5086L829.194 50.9668L826.865 55.4385L824.341 55.0497L824.147 55.2441V55.2441Z" fill="#EEBBB7" stroke="white" stroke-linejoin="round"/>
<path fill-rule="evenodd" clip-rule="evenodd" d="M620.204 117.557L619.719 116.779L619.622 117.751L620.204 117.557ZM621.757 115.807L620.593 114.252L620.399 114.932L621.757 115.807ZM622.728 108.808L621.757 107.933V108.127L622.728 108.808ZM620.301 184.924L632.338 182.98L635.735 182.3L650.587 179.675L650.878 180.939L651.849 180.647L658.255 179.286L664.371 177.828L670.583 176.273L670.486 175.981L673.689 169.662L673.398 164.413L676.99 155.372L679.805 157.025L680.873 154.983L680.581 147.206L677.96 142.346L674.078 132.041L670.68 128.25L668.933 127.764L662.624 132.139L663.303 133.013L660.003 139.235L656.799 138.652L655.829 132.139L657.188 131.652L660.003 125.139L660.294 113.668L655.926 103.947L646.219 102.295L645.248 100.836L636.221 98.2117L632.144 103.267L632.532 107.641L629.426 111.53L630.105 117.557L627.096 119.695V112.113L624.378 117.848L621.175 122.903L619.039 124.556L620.107 129.903L618.748 135.444L619.525 142.346L618.554 145.748L625.543 159.163L626.417 164.316L625.543 173.842L620.884 184.536L620.301 184.924ZM641.074 97.3368L638.55 97.5312L640.104 98.6977L641.074 97.3368ZM626.32 99.8643H625.543L626.417 100.253L626.32 99.8643H626.32ZM643.307 87.5184L642.336 85.963L641.948 86.0602L643.307 87.5184V87.5184ZM555.362 94.6148L558.468 96.3646L574.388 101.225L581.765 103.169L588.948 103.656L594.19 107.933V114.543L598.849 119.209V119.112L602.635 108.127L607.197 104.919L610.692 101.031L611.274 104.53L614.866 98.9893L623.505 95.6841L624.184 94.3231L632.92 95.3925L636.318 97.1423L637.968 92.865L639.521 93.8371L646.316 92.7678L644.666 90.0458L641.657 88.296L642.239 81.9773L636.318 85.2825L630.882 84.602L629.135 80.4219L629.717 79.0609L622.34 82.5605L617.584 82.8522L609.041 88.1016L608.071 90.0458L602.829 88.7821L599.529 90.2403L592.928 84.5048L578.27 80.033L577.979 78.2832L568.564 87.3239L563.225 88.6849L555.653 94.4204L555.362 94.6148V94.6148ZM589.725 72.5478L578.368 78.1861L582.153 81.8801L583.609 78.1861L587.492 73.4227L589.725 72.5478ZM577.009 59.2298L569.243 64.5764L568.855 67.2011L574.97 62.7294L577.009 59.2298Z" fill="#EC5044" stroke="white" stroke-linejoin="round"/>
<path fill-rule="evenodd" clip-rule="evenodd" d="M1.48535 522.929L1 523.124L1.38828 523.221L1.48539 522.929H1.48535ZM3.32967 521.86V522.152L3.52381 522.054L3.32967 521.86ZM4.30036 522.346V522.152L4.20325 522.249L4.30036 522.346V522.346ZM4.10621 522.152V522.054H3.91208L4.10621 522.152ZM4.10621 520.985L4.20332 520.402L3.81505 520.596L4.10624 520.985H4.10621ZM15.1721 525.748L15.075 525.651L15.2691 526.04L15.172 525.748L15.1721 525.748ZM7.98899 522.346L6.92123 521.374V523.707L7.98899 522.346ZM10.4157 524.485L10.3186 523.804L8.66844 523.707L10.4157 524.485H10.4157ZM16.2399 525.846L16.1428 526.04H16.3369L16.2398 525.846H16.2399ZM16.6281 525.943H16.434L16.8223 526.04L16.6281 525.943ZM17.793 526.332H17.6959H17.5988H17.7929H17.793ZM15.6575 524.971L14.8809 524.873L15.1721 525.165L15.6575 524.971ZM18.0842 525.165L17.89 525.068V525.165H18.0842ZM24.0054 526.332L20.2197 526.623L19.3461 527.012L24.0054 526.332ZM35.7508 530.803V530.415H35.5566L35.7508 530.803ZM40.7984 530.901L40.9925 530.706L40.7984 530.512V530.901ZM44.5841 531.97L44.7782 531.873H44.6811L44.584 531.97H44.5841ZM41.4779 530.22L41.3808 529.831H41.1866L41.4778 530.22H41.4779ZM42.8368 530.22L43.031 529.637H42.9339L42.8368 530.22H42.8368ZM59.2415 528.762L59.3386 528.568L59.1445 528.47L59.2416 528.762L59.2415 528.762ZM56.8148 527.887L53.4174 530.901L55.8441 530.706L58.6591 528.47L56.8148 527.887ZM62.9302 528.956L62.2507 528.762L62.736 529.151L62.9302 528.956ZM64.2891 529.054L63.2214 528.762L63.0272 528.859L64.2891 529.054V529.054ZM60.6005 527.693H59.5327L61.377 528.179L60.6005 527.693ZM65.0657 528.665L64.9686 528.47L64.5803 528.568L65.0656 528.665L65.0657 528.665ZM62.1536 527.498L61.7653 527.304V528.373L62.1536 527.498ZM74.5785 529.929L74.4814 529.831H74.2872L74.5784 529.929H74.5785ZM74.7726 529.831V529.734L74.5785 529.637L74.7726 529.831V529.831ZM73.1224 529.248L73.3166 529.637V529.54L73.1224 529.248ZM73.996 529.248L73.1224 528.956L74.1902 529.734L73.996 529.248ZM86.8092 529.734L86.615 529.345H86.5179L86.8091 529.734H86.8092ZM191.256 523.221L191.061 523.027L191.159 523.221H191.256H191.256ZM194.071 521.471L194.362 521.86H194.556L194.071 521.471ZM87.974 528.762L87.8769 528.859V529.151L87.974 528.762V528.762ZM75.9374 527.012L76.1316 526.234H76.0345L75.9374 527.012H75.9374ZM199.701 519.235L198.827 519.721L199.604 520.11L199.701 519.235H199.701ZM77.6847 526.526L77.5876 526.332L77.6847 526.526ZM70.4045 524.387L67.9778 524.874L65.8422 527.693L70.4045 524.387ZM87.7799 528.082L87.1975 528.568L87.7799 528.47V528.081V528.082ZM199.701 518.749L199.507 518.36L199.409 518.555L199.701 518.749H199.701ZM78.4612 525.554L77.7817 525.457L78.4612 526.137V525.554V525.554ZM193.294 520.013L193.1 520.207L193.294 520.888V520.013ZM80.0143 525.457L79.7231 525.554L80.1114 525.846L80.0143 525.457L80.0143 525.457ZM87.1975 527.498H86.9062L86.7121 527.304L87.1975 527.498ZM79.2378 525.457L78.7524 525.165L78.9466 525.457H79.2378ZM85.7414 526.526L84.8678 526.818L84.2854 528.373L85.7414 526.526ZM191.159 519.721V520.402L191.547 519.916L191.159 519.721ZM74.2872 523.415L75.0638 523.221H74.9667L74.2872 523.415H74.2872ZM73.3166 522.832L73.1224 522.638V522.735L73.3166 522.832V522.832ZM191.159 519.041L190.964 518.944L190.867 519.235L191.159 519.041L191.159 519.041ZM84.6736 524.874L84.4795 524.776L84.2854 525.068L84.6736 524.874V524.874ZM190.188 519.235L190.285 518.749L190.091 518.652L190.188 519.235H190.188ZM189.411 518.749L189.12 519.138L189.605 519.235L189.411 518.749ZM88.7506 523.513L88.5564 523.318H88.4593L88.7505 523.513H88.7506ZM189.12 516.999L189.897 517.291L190.188 516.902L189.12 516.999ZM190.285 516.319L189.994 516.513L190.479 516.805L190.285 516.319ZM188.052 516.902L187.858 516.513L187.664 516.708L188.052 516.902ZM197.759 513.305L196.497 516.902L197.759 516.124V513.305ZM189.217 514.666L188.344 515.541L188.538 516.513L189.217 514.666ZM98.8458 522.443V522.054L98.7486 522.249L98.8458 522.443ZM188.149 513.694L190.964 517.972L197.274 521.957L195.818 518.555L189.8 513.403L188.149 513.694ZM94.963 520.888L94.8659 520.596L94.6718 520.693L94.963 520.888H94.963ZM191.45 512.042L191.061 513.5L191.741 513.014L191.45 512.042ZM193.488 512.042L193.391 513.014L194.265 513.305L193.488 512.042H193.488ZM98.0692 519.624L97.5838 519.527L97.0985 519.721L98.0692 519.624V519.624ZM108.067 520.402L107.679 521.082L107.873 520.499L108.067 520.402V520.402ZM109.523 520.499L108.65 520.596L109.135 521.18L109.523 520.499ZM50.6994 508.056L51.6701 508.542L51.476 508.348L50.6994 508.056ZM189.897 510.097L190.382 511.944L191.353 511.361L189.897 510.097ZM185.723 510.875L186.208 515.347L187.179 514.375L185.723 510.875ZM186.208 509.417L188.441 512.528L188.149 510.486L186.208 509.417ZM179.316 510.195L178.734 512.042L179.51 510.778L179.316 510.195ZM110.882 515.152L110.688 514.861L110.882 515.25V515.152ZM179.51 508.736L183.393 515.152L182.811 510.778L179.51 508.736ZM116.318 512.139L116.027 512.43L116.512 512.625L116.318 512.139ZM115.056 512.333L115.153 512.042H114.765L115.056 512.333H115.056ZM114.086 512.333L111.562 513.986L108.456 518.069L110.009 519.721L117.192 514.375L114.086 512.333ZM175.336 506.014L174.657 505.626V506.209L175.336 506.014ZM113.503 511.167L113.6 511.556L114.28 511.944L113.503 511.167H113.503ZM177.181 504.167L175.239 505.14L177.084 505.723L177.181 504.167H177.181ZM175.919 504.167L175.725 503.973L175.627 504.167H175.919H175.919ZM181.84 502.612L181.063 502.32L180.869 502.904L181.84 502.612ZM177.666 503.293L176.986 503.195V503.39L177.666 503.293V503.293ZM179.801 502.515L183.781 508.348L182.714 503.001L179.801 502.515ZM115.736 508.834L113.406 510.583L114.474 511.75L117.58 509.417L115.736 508.834ZM88.2652 504.654L88.1681 504.167V504.362L88.2652 504.654ZM118.065 505.917L117.871 506.015V506.112L118.065 505.917V505.917ZM117.095 505.723H116.998L116.804 506.014L117.095 505.723H117.095ZM119.424 504.945L119.133 504.751V504.848L119.424 504.945V504.945ZM120.201 504.848L119.91 504.653V504.751L120.201 504.848V504.848ZM118.939 504.556H118.551V504.654L118.939 504.556ZM138.256 502.612L138.353 502.32L138.159 502.515L138.256 502.612L138.256 502.612ZM144.177 499.501L145.342 498.043L144.954 498.335L144.177 499.501ZM132.335 499.307L132.723 499.015L132.82 498.626L132.335 499.307H132.335ZM132.335 498.238L131.946 498.529L132.626 498.335L132.335 498.237V498.238ZM116.415 498.238L116.318 497.849H116.221L116.415 498.238H116.415ZM131.946 498.14L131.558 498.529L131.364 498.918L131.946 498.14ZM142.624 496.974H142.721H142.818H142.624H142.624ZM143.109 496.974L142.915 496.876V496.974H143.109ZM133.985 497.46L134.373 497.071L133.888 497.46H133.985H133.985ZM135.15 496.585L132.82 500.376L135.829 496.876L135.15 496.585ZM132.14 497.071L131.849 496.682L131.752 496.876L132.14 497.071H132.14ZM139.518 496.196L139.324 496.099L139.421 496.196H139.518H139.518ZM142.042 496.39V495.71L141.847 496.002L142.042 496.39ZM70.7928 488.905L66.1334 488.711L69.3367 492.113L70.7928 488.905ZM137.091 495.807L137.285 496.488L137.771 495.71L137.091 495.807V495.807ZM133.208 495.71L132.917 497.849L133.402 496.488L133.208 495.71ZM48.9522 479.573L49.0493 479.184L48.9522 479.573ZM132.238 494.349L132.335 494.641L132.529 494.543L132.238 494.349L132.238 494.349ZM131.752 494.738L131.558 494.155L131.267 494.349L131.752 494.738ZM136.314 493.571V493.182L136.023 493.377L136.314 493.571ZM131.946 492.988V493.96L132.238 493.28L131.946 492.988ZM124.569 491.821V491.53V491.821ZM73.899 479.767L74.0931 479.184L73.996 479.281L73.8989 479.767L73.899 479.767ZM74.1902 478.795L74.0931 478.698L73.996 478.795H74.1901H74.1902ZM78.4612 476.073L78.3641 475.879L78.4612 476.073ZM80.7909 473.74L80.4026 473.546V473.643L80.7909 473.74V473.74ZM80.2085 473.351V473.157L80.0143 473.351H80.2085ZM64.6774 468.782L64.4833 468.296L64.3862 468.005L64.6774 468.782H64.6774ZM66.1334 467.032H66.2305L66.3277 467.13L66.1335 467.032H66.1334ZM63.5126 466.546L62.736 465.574L63.3184 466.352L63.5126 466.546ZM61.9595 464.991H61.7653L62.0565 465.088L61.9594 464.991H61.9595ZM61.9595 463.824L62.1536 463.922L61.9595 463.824ZM87.6828 471.504L86.615 471.601L87.1975 471.893L87.6828 471.504V471.504ZM60.8917 462.075L60.1151 464.991L62.5419 465.38L65.7452 468.685L67.6865 467.81L60.8917 462.075ZM77.8788 463.241V463.047V463.144V463.241V463.241ZM73.0254 452.937L72.8312 452.84L72.9283 452.937H73.0254H73.0254ZM75.8404 453.909L76.1316 453.812H76.0345L75.8403 453.909H75.8404ZM77.7817 453.326H78.0729L78.9466 452.937L77.7817 453.326ZM81.2762 452.256L81.4704 452.062L81.1792 452.256H81.2763H81.2762ZM81.7616 452.159L82.344 451.867L81.8586 451.965L81.7615 452.159L81.7616 452.159ZM83.2176 451.576L82.7323 451.673V451.77L83.2176 451.576V451.576ZM145.536 433.98L145.148 433.689L144.468 433.397L145.536 433.98ZM94.6718 431.842L95.5454 430.675L95.0601 431.064L94.6718 431.842ZM95.8366 430.481L96.2249 429.898L96.0308 430.092L95.8366 430.481ZM96.419 429.703L97.0985 429.12L96.7102 429.314L96.419 429.703ZM126.996 429.898L127.481 430.384H127.772L126.996 429.898ZM111.368 423.482L107.388 426.787L104.961 426.106L99.3311 429.314L98.2633 428.634L91.8568 435.827L85.3531 437.286L85.9355 440.785L88.8476 444.771L94.2835 450.02L93.4099 452.062L97.4868 453.812L95.3513 454.2L92.7304 452.159L94.0894 455.173L92.3421 456.242L86.8092 451.187L82.4411 451.965L74.9667 454.784L78.3642 458.575L77.8788 460.908L80.1114 463.63L87.4886 466.546L92.8275 463.824L93.7011 465.866L92.245 471.99H87.7799L82.5381 474.323L82.2469 472.671L79.529 473.74L78.2671 476.559L73.8019 479.962V484.919L75.5491 485.697L74.1902 489.877L80.0143 494.932L83.7029 493.377L82.9264 499.598L83.9942 500.959L88.4594 501.931L90.1095 503.778L93.9923 504.07L95.8366 506.014L99.8164 504.848L97.9721 507.375L96.5161 512.527L84.6736 520.207L83.1205 521.762L80.8879 520.888L77.2964 521.762L72.1517 525.165L80.2085 522.832L81.3733 524.582L91.7597 521.179L92.0509 522.54L96.1278 518.457L104.67 512.527L105.349 512.916L112.824 506.986L110.882 504.653L113.406 500.473L120.007 492.599L125.054 491.627L126.608 492.696L120.492 494.446L118.842 500.959L119.036 504.459L121.172 504.264L131.461 498.043L132.238 495.71L131.364 492.113L134.47 492.891L136.703 491.432L143.109 495.321L142.624 496.39L157.184 498.237L160.582 497.168L161.552 498.626L174.171 504.653L176.307 503.39L176.501 496.099L178.151 499.404L186.305 505.334L186.985 507.764L194.071 511.75L195.915 516.902L197.662 512.916L201.254 519.915L203.68 515.93L201.739 510.972L194.265 510.194L182.811 499.209L176.598 494.64L171.842 499.307H169.027L162.523 495.029L156.117 494.738L146.992 437.091L145.439 434.369L141.75 432.133L136.217 433.203L131.946 432.328L126.51 430.189L120.783 430.578L119.327 427.856L114.765 427.176L113.989 425.523L111.95 427.856L111.368 423.482Z" fill="#EE867D" stroke="white" stroke-linejoin="round"/>
</svg>
