<svg width="382" height="284" viewBox="0 0 382 284" fill="none" xmlns="http://www.w3.org/2000/svg">
<path fill-rule="evenodd" clip-rule="evenodd" d="M6.98354 163.886L7.33285 157.933L6.63451 158.283L6.98354 163.886ZM81.3583 132.02L83.4534 128.518L81.0091 128.168L81.3583 132.02ZM74.724 125.716L76.819 118.713L74.724 118.012V125.716ZM100.214 115.561L99.8646 108.557L93.9286 117.662L100.214 115.561ZM100.912 100.853L101.96 93.8494L101.261 92.0985L100.912 100.853ZM101.96 66.535L101.61 62.683L100.214 62.3328L101.96 66.535ZM113.133 43.4228L109.991 43.0726L103.706 52.8778L113.133 43.4228ZM104.404 33.9678L106.15 32.5671L106.499 31.5165L104.404 33.9678ZM102.658 35.0183L101.611 28.0146L98.468 33.9678L102.658 35.0183ZM100.912 25.2132L97.7696 23.8124L100.214 27.3143L100.912 25.2132ZM111.388 31.1663V26.6139L110.34 28.3648L111.388 31.1663ZM114.53 26.6139L113.133 25.5634H112.784L114.53 26.6139ZM94.627 18.9098L92.8812 17.5091L92.1828 17.1589L94.627 18.9098ZM107.547 17.5091L98.1189 19.9604L100.563 20.6608L107.547 17.5091ZM99.8647 16.8087L98.1189 14.7076L97.7695 15.0578L99.8647 16.8087ZM107.197 12.6065H105.801L107.547 13.3069L107.197 12.6065ZM38.7587 192.251L51.3291 205.909L49.234 232.172L51.6782 238.826L70.5338 248.981L123.609 253.884L125.704 260.187L150.845 260.538L174.589 263.689L213.347 259.487L232.552 262.639L237.79 260.187L335.909 282.599L342.543 284L341.845 280.498L343.241 264.74L341.495 249.682L382 66.8853L376.413 65.8348L294.706 46.5746L223.473 28.365L142.814 5.95314L118.72 0L124.307 30.4661L119.069 40.2713L109.642 35.3687L118.72 77.7411L108.943 91.7485L104.404 104.705V118.012L83.8026 132.37L75.0731 126.767L66.6928 130.969L82.0567 111.009L78.2157 124.666L86.9452 115.211L93.9287 116.612L91.8336 99.1023L96.373 99.8027L105.801 78.7916L102.658 75.64L90.437 91.3983L82.4058 91.7485L91.1353 81.9433L100.912 79.492L97.4205 61.6325L87.6435 59.1812L82.755 50.7768L76.819 53.9285L44.6947 39.9211L16.4113 17.8594L8.72945 39.2207L8.03108 48.3255L13.9671 64.434L10.1261 116.612L7.33271 124.666L23.0457 126.067L7.33271 137.272L15.713 141.475L9.07859 163.887L5.93601 146.377L0 166.688L8.03108 176.493L16.7605 175.793L27.2358 182.096L32.4735 192.252L38.7587 192.251Z" fill="#EC5044" fill-opacity="0.5"/>
</svg>
